<?xml version="1.0" encoding="utf-8" ?><svg xmlns="http://www.w3.org/2000/svg" viewBox="0 0 1024 1024">
<!-- FIGURE: Main body (#B4913E) + outlines (#4A2219) -->

<!-- Body elements (#B4913E) -->
<path fill="#B4913E" d="M533.958 68.2511C557.326 55.3613 577.879 46.2424 604.797 54.1651C612.624 56.4688 626.503 62.6504 631.984 68.4448C642.798 79.8774 644.072 76.8059 657.382 80.7321C671.486 84.8955 684.538 92.0262 695.661 101.646C697.427 103.153 701.259 106.506 702.522 108.365L703.284 109.153C724.573 127.712 743.304 168.796 733.059 197.035C731.582 201.449 729.973 205.819 728.233 210.137C727.155 212.104 726.929 212.42 725.365 214.026C722.273 220.964 712.53 230.758 706.666 235.643C700.61 242.516 699.129 245.9 698.133 255.037C697.431 261.397 695.824 266.269 693.126 272.077C692.615 273.179 690.282 277.694 690.031 278.561L688.342 280.604C687.482 281.948 687.446 281.465 687.427 282.711C684.619 285.628 683.836 285.978 682.746 289.915C692.424 338.618 672.624 389.641 658.536 435.365C654.616 448.09 653.933 462.096 647.221 473.854C643.673 480.483 630.372 487.511 629.03 490.346L629.782 492.068C632.884 506.66 636 523.36 643.433 536.51C671.698 523.888 710.604 518.707 741.297 520.191C751.436 520.682 762.794 522.308 772.878 523.815C772.65 508.634 775.734 496.337 786.596 485.032C796.426 474.969 809.869 469.25 823.937 469.146C837.588 468.877 850.787 474.046 860.625 483.514C870.245 492.839 875.724 505.632 875.835 519.029C875.992 532.677 870.227 546.843 860.67 556.571C859.806 557.444 858.922 558.296 858.019 559.128L858.007 559.308C879.812 574.252 899.478 596.628 913.719 618.768C911.319 622.136 897.936 640.932 897.622 643.078L897.912 644.173C901.701 644.548 912.828 625.745 915.43 622.268C941.875 667.839 951.446 718.101 945.856 770.231C955.277 769.711 962.43 767.732 970.648 762.769C973.113 761.28 975.792 758.795 978.439 759.232L979.01 760.277C978.223 762.817 973.443 765.303 971.118 766.573C962.574 771.24 954.897 773.401 945.2 773.961C939.886 830.561 909.228 885.516 865.657 921.692C821.219 958.845 763.797 976.738 706.121 971.405C617.989 963.172 547.048 901.146 521.863 817.213C520.568 812.9 519.649 808.271 518.216 804.045L487.534 804.184C451.863 804.172 366.116 798.655 340.302 772.423C337.239 769.311 334.813 765.627 333.73 761.361C331.452 752.38 332.526 740.35 332.501 730.954C332.415 716.818 332.438 702.68 332.569 688.544L332.504 685.845C332.117 682.715 332.535 669.192 332.583 665.239L332.535 661.256C332.117 645.498 362.9 628.379 374.156 619.135C330.268 610.845 299.957 596.829 264.033 570.817C242.506 579.254 218.036 590.61 196.624 599.893L151.165 619.899C142.157 623.865 132.915 627.615 124.101 631.957C105.81 592.051 89.0993 549.976 71.6843 509.528C60.0562 482.521 46.8284 453.726 36.1351 426.588C44.7031 422.39 54.498 418.502 63.3254 414.68L98.9276 399.045L98.9857 398.744C98.2133 397.798 97.782 396.887 97.2584 395.784C91.0749 382.76 89.0911 367.345 93.9431 353.62C98.2506 341.158 107.38 330.947 119.284 325.278C138.899 316.038 150.626 320.34 168.97 326.991C175.648 270.792 199.749 218.093 237.893 176.284C288.443 120.705 354.499 92.4528 428.91 88.8654C430.324 88.5462 450.232 81.0667 450.774 80.6519C475.574 61.6643 504.544 55.8761 533.958 68.2511Z"/>
<path fill="#B4913E" d="M767.426 672.636C767.621 685.63 767.686 698.625 767.62 711.62C767.617 716.635 767.66 721.618 767.599 726.663C767.537 731.74 767.845 736.444 766.301 741.438C764.37 747.682 759.902 753.369 755.435 758.066C733.589 779.463 699.214 793.105 669.87 800.186C660.758 802.385 644.017 803.947 634.945 803.97C596.028 804.068 557.114 804.045 518.216 804.045L487.534 804.184C451.863 804.172 366.116 798.655 340.302 772.423C337.239 769.311 334.813 765.627 333.73 761.361C331.452 752.38 332.526 740.35 332.501 730.954C332.415 716.818 332.438 702.68 332.569 688.544C354.655 726.631 446.26 730.689 485.45 730.536C506.354 730.455 528.545 730.573 549.546 730.582L597.251 730.633C604.696 730.664 612.26 730.83 619.614 730.866C661.589 731.075 702.008 719.823 739.206 700.69C751.164 694.54 763.211 686.332 767.426 672.636Z"/>
<path fill="#B4913E" d="M332.583 665.239C335.993 687.075 379.975 699.037 398.599 702.244C445.365 710.297 493.963 708.233 541.321 708.081L594.008 708.098C603.237 708.146 615.185 708.738 624.086 708.21C642.207 707.135 661.549 704.703 679.373 701.3C697.66 698.052 713.783 691.335 730.223 682.91C745.867 674.894 763.996 666.117 767.449 646.836C767.482 649.935 767.427 664.399 767.793 666.599C767.804 669.163 767.83 670.143 767.426 672.636C763.211 686.332 751.164 694.54 739.206 700.69C702.008 719.823 661.589 731.075 619.614 730.866C612.26 730.83 604.696 730.664 597.251 730.633L549.546 730.582C528.545 730.573 506.354 730.455 485.45 730.536C446.26 730.689 354.655 726.631 332.569 688.544L332.504 685.845C332.117 682.715 332.535 669.192 332.583 665.239Z"/>
<path fill="#B4913E" d="M703.284 109.153C724.573 127.712 743.304 168.796 733.059 197.035L731.826 196.222C729.972 196.291 727.598 198.415 725.824 199.622C716.11 206.235 690.253 214.302 684.001 199.607C682.634 196.395 680.792 191.473 679.407 187.983C694.613 196.892 713.415 198.771 727.414 186.229C729.381 184.467 732.72 181.637 732.866 178.993L732.256 178.713C730.003 179.538 725.773 183.764 721.75 185.882C708.15 193.044 683.399 190.539 674.803 176.848C673.522 174.807 670.829 167.529 671.759 165.053L672.735 164.627C685.274 179.114 712.643 186.414 723.577 164.813C724.513 162.963 725.129 158.111 724.293 156.151L723.97 156.174C723.506 156.804 723.508 156.698 723.255 157.483C715.656 181.11 686.963 175.426 674.415 160.444C676.468 155.401 677.362 152.875 678.684 147.574C692.183 155.05 707.868 156.186 715.567 139.514C716.412 137.684 717.497 135.108 717.333 133.14C716.517 132.852 715.842 133.025 715.368 133.892C706.442 150.238 695.359 150.127 679.274 144.047C679.469 139.558 679.499 134.904 679.589 130.399C693.67 129.731 700.4 122.68 703.284 109.153Z"/>
<path fill="#B4913E" d="M689.855 215.241C702.184 222.601 713.342 221.618 725.365 214.026C722.273 220.964 712.53 230.758 706.666 235.643L706.33 234.69C707.232 233.613 707.194 233.698 707.607 232.359C705.859 231.17 698.191 233.769 694.719 234.309L689.855 215.241Z"/>
<path fill="#B4913E" d="M731.826 196.222L733.059 197.035C731.582 201.449 729.973 205.819 728.233 210.137C725.627 210.695 719.583 214.129 714.84 215.024C705.725 216.744 699.74 216.799 691.484 211.904C702.904 212.912 728.086 208.915 731.826 196.222Z"/>
<path fill="#B4913E" d="M584.862 172.075L585.649 171.603C588.403 174.482 605.976 178.709 610.671 179.83C625.245 183.312 639.574 183.175 654.095 179.61C636.258 187.643 615.079 185.42 596.85 179.241C593.026 177.945 587.662 174.981 584.862 172.075Z"/>
<path fill="#B4913E" d="M695.345 238.178C700.049 237.42 702.136 236.902 706.33 234.69L706.666 235.643C700.61 242.516 699.129 245.9 698.133 255.037L697.079 255.332C697.127 248.376 696.675 245.049 695.345 238.178Z"/>
<path fill="#B4913E" d="M687.427 282.711C686.178 281.435 684.678 279.944 683.286 278.854C673.965 271.56 658.212 269.762 650.976 280.928C650.481 281.693 650.685 281.467 649.849 281.823C649.435 271.836 660.535 269.982 668.263 271.027C676.066 272.082 682.408 275.627 688.342 280.604C687.482 281.948 687.446 281.465 687.427 282.711Z"/>
<path fill="#B4913E" d="M663.919 277.588C672.46 276.795 677.321 278.866 683.844 283.911C679.15 292.209 678.981 297.645 669.614 302.909C661.819 305.061 658.316 303.823 651.602 299.894C650.697 295.884 650.518 292.619 650.489 288.546C650.816 287.905 651.155 287.27 651.505 286.641C654.623 281.087 658.159 279.23 663.919 277.588Z"/>
<path fill="#B4913E" d="M570.49 276.178C587.267 275.276 596.911 282.115 582.197 297.289C577.38 302.256 568.444 302.902 561.869 302.177C553.064 299.948 548.499 296.136 541.575 290.568C551.321 285.238 558.825 277.736 570.49 276.178Z"/>
<path fill="#B4913E" d="M450.168 178.802C451.676 179.737 455.725 186.717 457.129 188.601C469.562 205.278 481.692 211.96 500.903 217.583C479.779 216.531 458.187 197.792 450.168 178.802Z"/>

<!-- Outlines (#4A2219) -->
<path fill="#4A2219" d="M428.91 88.8654L429.031 89.4858C424.904 91.76 413.946 98.7977 410.644 99.8785C398.917 100.688 385.942 103.375 374.497 106.243C322.785 118.973 276.289 147.416 241.407 187.658C205.604 228.496 183.564 279.567 178.411 333.633C187.17 342.565 189.177 346.263 193.654 358.147L193.61 358.393C198.963 376.167 195.109 398.001 181.26 411.002C180.897 414.074 183.231 423.577 183.989 426.809C196.375 479.617 226.395 528.078 269.428 561.348C270.635 562.282 274.115 565.044 275.394 565.569C313.767 592.979 341.652 602.438 387.396 610.159C384.717 612.244 377.006 618.758 374.156 619.135C330.268 610.845 299.957 596.829 264.033 570.817C262.416 569.042 256.418 564.193 254.311 562.358C248.068 556.986 242.063 551.343 236.314 545.445C201.716 509.255 181.588 467.43 171.316 418.783C168.925 402.607 166.722 386.172 167.202 369.776C166.911 354.448 168.046 342.03 168.97 326.991C175.648 270.792 199.749 218.093 237.893 176.284C288.443 120.705 354.499 92.4528 428.91 88.8654Z"/>
<path fill="#4A2219" d="M193.61 358.393C198.963 376.167 195.109 398.001 181.26 411.002C178.549 405.447 177.473 372.968 176.898 364.948C181.006 363.775 189.254 360.155 193.61 358.393Z"/>
<path fill="#4A2219" d="M98.9857 398.744C104.813 396.568 114.459 391.952 120.598 389.347L167.202 369.776C166.722 386.172 168.925 402.607 171.316 418.783C144.488 433.358 115.054 424.494 98.9276 399.045L98.9857 398.744Z"/>
<path fill="#4A2219" d="M772.878 523.815C804.513 529.835 831.387 541.415 858.019 559.128L858.007 559.308C848.946 566.615 840.903 571.257 828.995 572.357C815.155 573.728 801.352 569.421 790.749 560.422C779.493 550.809 773.998 538.368 772.878 523.815Z"/>
<path fill="#4A2219" d="M945.856 770.231C955.277 769.711 962.43 767.732 970.648 762.769C973.113 761.28 975.792 758.795 978.439 759.232L979.01 760.277C978.223 762.817 973.443 765.303 971.118 766.573C962.574 771.24 954.897 773.401 945.2 773.961C931.426 772.68 922.284 764.313 909.916 764.513C903.447 765.785 898.005 778.137 895.274 782.478C884.397 799.765 864.207 800.44 849.488 787.74C845.553 784.345 838.045 783.707 832.93 784.425C809.237 787.754 810.693 819.461 787.739 823.969C764.562 829.132 768.172 806.907 755.855 796.875C751.24 793.116 745.244 797.116 742.544 795.924L742.351 795.205C744.488 793.018 749.51 792.005 752.426 792.511C764.994 794.694 765.37 809.211 772.226 817.338C774.39 819.903 777.468 821.576 780.919 821.627C802.96 821.092 804.87 799.663 817.972 787.841C823.975 781.514 841.292 777.965 848.645 783.677C863.03 794.849 881.426 798.884 892.48 780.267C895.425 775.307 897.791 768.267 902.805 764.136C912.937 755.787 924.293 764.028 934.333 767.805C938.485 769.385 941.743 769.868 945.856 770.231Z"/>
<path fill="#4A2219" d="M627.948 346.821C628.357 329.936 624.368 312.684 622.542 295.928C621.615 287.425 622.077 278.724 620.966 270.287C620.68 268.116 620.216 265.423 618.874 263.618C611.913 254.25 566.396 258.918 554.353 257.478C553.432 257.368 553.459 257.536 552.87 256.783C557.672 253.47 596.406 254.963 604.412 255.638C608.914 256.017 618.857 257.603 621.991 261.748C622.545 262.481 623.72 267.855 623.834 269.242C624.508 277.45 624.719 285.75 625.568 293.972C626.872 306.595 628.913 319.191 629.679 331.865C629.971 336.692 630.148 341.805 629.482 346.617C629.484 346.782 628.989 348.751 628.879 348.765C619.95 349.933 615.246 347.553 607.246 353.212C604.549 358.959 603.229 367.811 609.921 371.779C615.992 375.379 622.878 370.486 629.111 368.863L629.797 368.69C639.349 371.124 650.815 381.338 660.242 371.247C664.984 366.171 656.756 343.848 655.282 337.139C651.141 318.281 647.623 299.395 646.107 280.183C645.642 274.281 646.059 268.637 650.031 264.417C654.973 256.927 684.998 251.521 690.927 257.425C684.264 262.235 654.473 251.069 648.212 275.029C648.609 274.737 649.105 274.423 649.43 274.029C659.31 262.04 681.21 268.195 690.031 278.561L688.342 280.604C687.482 281.948 687.446 281.465 687.427 282.711C684.619 285.628 683.836 285.978 682.746 289.915C676.058 304.609 668.84 311.988 652.197 304.368C655.298 324.037 659.046 342.422 664.233 361.629C665.442 366.104 664.8 371.813 661.921 375.575C658.114 380.549 651.351 383.192 645.243 384.018C642.465 384.351 640.229 384.041 637.13 384.535L636.745 385.305C637.658 386.912 638.939 387.548 640.485 388.608C642.229 392.373 637.708 394.906 634.328 393.973C632.122 390.974 635.069 389.325 634.724 386.91C632.76 373.185 622.166 377.962 612.997 379.195C609.928 379.608 604.747 377.506 603.151 375.427C597.038 367.466 599.882 355.951 607.758 350.258C614.771 345.076 620.174 345.961 627.948 346.821Z"/>
<path fill="#4A2219" d="M335.628 352.822L335.751 351.318C337.02 351.403 339.162 353.909 340.719 355.041C352.053 363.277 364.098 361.767 374.36 352.823C377.267 350.289 380.897 345.75 383.313 343.914C379.594 352.107 374.903 359.114 366.016 362.463C359.51 364.961 352.267 364.704 345.954 361.751C342.95 360.345 340.659 358.553 338.174 356.395C337.518 355.068 336.556 354.011 335.628 352.822Z"/>
<path fill="#4A2219" d="M367.493 399.19C372.754 399.686 378.486 405.946 387.069 405.632C392.031 405.451 403.025 401.072 404.412 402.315C403.194 403.896 401.501 404.937 399.786 405.93C390.462 411.331 380.004 409.208 371.699 403.105C370.306 401.791 368.904 400.486 367.493 399.19Z"/>
<path fill="#4A2219" d="M349.253 379.722C351.722 381.049 353.5 383.413 355.694 384.545C361.908 387.753 368.821 388.734 375.63 387.017C381.524 385.53 384.226 382.485 388.82 379.293C380.674 393.307 369.372 393.73 355.962 387.344C352.617 384.818 351.354 383.33 349.253 379.722Z"/>
<path fill="#4A2219" d="M578.222 145.362C583.256 152.901 575.384 170.943 572.383 178.276C562.608 202.163 549.745 215.725 523.925 221.23C522.307 224.722 519.725 228.07 517.743 231.42C509.366 245.568 499.357 257.082 484.067 264.12C478.852 274.932 475.617 281.537 466.853 289.74C466.701 289.882 461.543 303.77 459.753 306.599C452.291 318.389 445.883 322.731 432.66 326.383C427.281 334.901 422.507 338.66 413.35 342.587C416.495 348.429 420.035 352.305 425.336 356.193C427.269 357.611 432.337 360.93 432.724 363.028C431.341 363.196 430.419 362.66 429.05 362.039C419.912 357.902 414.835 352.431 411.355 343.177C386.199 349.291 360.284 332.855 350.889 309.502C349.971 307.219 347.682 298.988 348.687 296.844C349.433 297.608 352.091 306.545 353.298 309.142C354.891 312.563 356.892 315.779 359.255 318.72C372.849 335.742 397.814 345.313 418.013 334.215C422.354 331.831 425.315 329.501 429.158 326.348C396.443 331.378 368.126 318.453 360.746 284.405C362.911 287.965 364.762 292.297 366.703 296.14C379.409 321.332 413.557 327.465 438.106 317.966C451.059 312.954 456.477 303.95 461.596 291.775C432.665 305.927 398.589 293.725 393.464 260.034C396.645 266.232 398.061 272.494 402.833 277.953C414.369 291.151 432.41 295.23 449.102 290.904C463.91 287.066 472.124 279.185 479.714 266.269C460.986 273.962 437.069 275.536 419.79 262.998C416.697 260.753 409.976 254.725 409.403 250.929C411.735 251.907 414.817 255.818 416.99 257.493C438.508 274.076 470.514 267.889 491.55 253.537C500.182 247.646 504.819 242.787 511.375 234.426C506.363 237.338 502.442 239.663 496.982 241.614C480.646 245.34 471 246.181 454.892 239.831C439.673 233.831 428.554 222.809 422.124 207.774C420.732 204.519 416.331 191.717 417.47 188.922C418.305 189.733 419.967 195.4 420.325 196.853C427.518 226.064 462.638 248.39 492.77 239.638L493.37 239.457C482.187 240.175 473.988 239.673 463.341 235.604C442.582 227.67 426.602 208.463 423.889 186.292C430.902 201.28 432.639 210.924 446.638 222.294C468.265 239.858 501.121 244.594 520.568 221.369C501.493 222.518 487.573 221.018 471.457 209.419C462.143 202.716 452.591 191.675 449.36 180.454C448.747 178.324 447.793 170.816 447.372 168.183C449.716 171.927 451.619 175.895 453.998 179.638C461.902 192.074 472.143 201.877 485.291 208.524C498.764 215.334 516.956 218.499 531.478 213.375C550.345 206.719 560.796 194.362 569.456 177.173C539.645 200.357 489.264 187.686 470.909 155.507C473.387 157.876 476.093 160.559 478.463 163.067C499.731 185.585 539.453 193.524 566.008 176.019C573.113 171.335 575.461 163.371 576.785 155.374C568.306 167.505 557.599 173.537 543.087 176.371C524.2 180.044 504.627 176.074 488.665 165.331C485.758 163.361 475.151 154.722 474.557 151.707C475.741 151.879 485.933 160.749 488.687 162.356C519.453 180.305 558.739 177.013 578.222 145.362Z"/>
<path fill="#4A2219" d="M617.288 265.543C618.194 265.431 618.089 265.521 619.036 265.727L619.482 266.824C618.627 271.626 605.443 275.139 601.246 278.597C589.907 287.939 592.514 302.049 575.406 305.41C559.871 308.461 549.725 299.914 537.563 291.935C531.512 294.891 522.28 300.324 515.644 296.358L515.666 295.648C518.665 294.965 523.724 293.991 526.248 292.888C545.307 284.555 560.99 270.869 583.177 272.996C587.17 273.379 594.672 272.753 599.119 272.375C604.307 271.815 605.593 271.633 610.552 270.069L610.528 269.798C594.871 271.692 579.973 271.314 564.459 272.718C556.129 273.472 543.662 278.781 535.552 281.491C522.42 285.878 514.697 290.436 500.881 285.807C506.307 285.186 508.75 286.228 515.321 284.604C523.284 282.636 529.107 280.131 536.763 277.284C544.536 274.335 552.561 272.102 560.74 270.613C580.001 267.293 596.347 271.452 617.288 265.543Z"/>
<path fill="#4A2219" d="M668.773 101.33C669.827 102.264 670.129 103.373 669.583 104.721C656.479 137.127 615.803 142.024 586.118 133.173C592.671 132.971 601.414 133.813 608.21 133.977C624.732 134.375 640.701 130.825 654.173 120.905C654.94 120.317 655.33 119.9 656.025 119.228C655.206 118.969 653.485 120.17 652.33 120.726C647.573 123.069 642.504 124.716 637.278 125.616C623.529 128.015 594.529 127.62 582.871 119.413C606.176 126.248 647.219 129.493 664.614 108.565C666.176 106.685 667.667 103.554 668.773 101.33Z"/>
<path fill="#4A2219" d="M565.816 121.893L566.21 122.401C566.403 123.946 566.38 124.32 565.524 125.738C557.823 138.495 540.474 145.221 526.168 145.457C515.178 145.638 496.019 141.742 486.728 135.895C489.364 136.612 492.006 137.302 494.656 137.964C516.395 143.35 534.32 144.944 554.366 132.844C556.628 131.361 558.491 129.638 560.535 127.87C554.864 129.594 548.273 131.533 542.479 132.486C525.471 135.285 494.962 136.35 479 131.753C485.279 131.062 492.127 131.779 498.46 131.932C509.794 132.206 521.191 132.262 532.493 131.237C541.148 130.452 560.182 128.634 565.816 121.893Z"/>
<path fill="#4A2219" d="M702.522 108.365L703.284 109.153C700.4 122.68 693.67 129.731 679.589 130.399C679.499 134.904 679.469 139.558 679.274 144.047C695.359 150.127 706.442 150.238 715.368 133.892C715.842 133.025 716.517 132.852 717.333 133.14C717.497 135.108 716.412 137.684 715.567 139.514C707.868 156.186 692.183 155.05 678.684 147.574C677.362 152.875 676.468 155.401 674.415 160.444C686.963 175.426 715.656 181.11 723.255 157.483C723.508 156.698 723.506 156.804 723.97 156.174L724.293 156.151C725.129 158.111 724.513 162.963 723.577 164.813C712.643 186.414 685.274 179.114 672.735 164.627L671.759 165.053C670.829 167.529 673.522 174.807 674.803 176.848C683.399 190.539 708.15 193.044 721.75 185.882C725.773 183.764 730.003 179.538 732.256 178.713L732.866 178.993C732.72 181.637 729.381 184.467 727.414 186.229C713.415 198.771 694.613 196.892 679.407 187.983C680.792 191.473 682.634 196.395 684.001 199.607C690.253 214.302 716.11 206.235 725.824 199.622C727.598 198.415 729.972 196.291 731.826 196.222L733.059 197.035C731.582 201.449 729.973 205.819 728.233 210.137C727.155 212.104 726.929 212.42 725.365 214.026C722.273 220.964 712.53 230.758 706.666 235.643C700.61 242.516 699.129 245.9 698.133 255.037L697.079 255.332L695.991 255.813C695.26 254.959 691.371 230.285 690.616 226.423C686.765 206.714 676.223 189.668 669.732 171.422L669.463 170.653C649.127 194.641 616.646 192.687 589.806 178.968C586.544 177.301 578.607 169.934 575.035 167.11C579.145 168.686 581.248 169.724 584.862 172.075L585.649 171.603C594.452 172.71 604.768 177.164 614.535 178.441C650.434 183.136 671.312 177.531 676.777 138.893C675.998 140.324 675.15 141.837 674.314 143.23C659.736 167.525 611.487 164.047 591.378 151.633C596.402 152.78 599.515 153.784 606.245 154.948C630.081 159.072 670.234 159.367 676.223 128.864C676.618 126.855 673.331 115.877 673.416 111.794L674.026 111.915C675.952 114.975 678.175 121.968 679.424 125.635C692.508 125.037 696.106 117.99 702.522 108.365Z"/>
<path fill="#4A2219" d="M651.358 399.891L652.207 400.778C654.12 415.166 631.419 407.459 623.406 407.747C613.049 408.12 601.704 413.305 592.615 407.117C591.565 405.878 591.312 405.798 591.009 404.193L591.485 403.624C595.726 404.368 599.951 406.044 604.004 405.752L605.022 405.67C610.668 405.26 621.113 401.95 625.552 402.558C638.107 404.278 639.814 408.982 651.358 399.891Z"/>
<path fill="#4A2219" d="M650.98 86.538L651.288 86.9449L651.024 88.0097C635.699 104.929 618.554 98.8405 597.749 101.149C590.543 101.949 584.595 103.895 577.691 105.947C577.368 105.54 577.571 105.841 577.296 104.929C594.559 90.5095 627.457 102.674 650.98 86.538Z"/>
<path fill="#4A2219" d="M393.973 349.27C396.248 350.699 400.545 360.24 402.604 363.503C408.603 373.013 415.669 382.534 425.73 388.08C430.09 390.483 438.077 392.981 442.892 391.478C448.175 389.828 448.37 382.788 450.31 378.712L451.067 378.728C452.435 380.529 452.435 380.612 452.687 382.919C451.503 400.906 435.74 398.531 424.357 391.351C412.87 384.107 396.864 362.407 393.973 349.27Z"/>
<path fill="#4A2219" d="M446.127 90.8321C446.543 91.2261 446.289 90.9382 446.698 91.8327C445.238 98.0267 443.181 103.19 442.652 109.687C441.105 128.681 441.522 167.349 417.667 173.557L417.099 172.93C417.652 171.667 421.326 169.616 422.784 168.308C444.813 148.546 432.63 113.358 446.127 90.8321Z"/>
<path fill="#4A2219" d="M540.245 94.7043C546.013 94.1456 551.105 95.3267 556.583 96.911C525.631 96.7217 518.037 104.438 493.546 120.902C488.83 123.921 487.032 124.757 481.632 126.184C483.169 124.509 490.113 119.565 492.561 117.614C508.909 104.577 518.746 96.6726 540.245 94.7043Z"/>
<path fill="#4A2219" d="M496.963 72.1533L497.181 72.7239C478.855 80.3555 481.11 93.0823 477.498 109.433C474.178 124.459 466.361 141.734 449.003 143.413L448.478 142.467C449.879 140.949 451.751 141.272 454.018 140.076C457.691 138.168 460.959 135.567 463.642 132.416C481.456 111.247 468.978 78.9111 496.963 72.1533Z"/>
<path fill="#4A2219" d="M410.524 114.63C411.467 115.269 411.849 115.412 411.967 116.942C413.164 132.543 410.785 161.488 401.533 173.715L400.717 173.375C400.722 173.429 405.688 157.147 406.179 155.335C409.791 141.988 408.574 128.429 410.437 115.203L410.524 114.63Z"/>
<path fill="#4A2219" d="M621.29 69.5723C622.455 69.4376 622.148 69.47 623.334 69.6461C621.788 73.8456 592.773 78.0454 586.709 80.4555C580.539 82.9083 579.53 82.7436 573.136 86.5441L571.812 87.2642L571.447 86.6467C578.801 75.7663 608.765 72.5166 621.29 69.5723Z"/>
<path fill="#4A2219" d="M361.142 160.69L362.13 161.113C363.39 163.688 363.817 169.333 364.04 172.206C365.288 188.289 364.692 203.843 359.894 219.383L359.581 219.77L358.917 219.767C358.641 218.824 361.599 194.699 361.838 189.885C362.284 180.931 360.464 168.952 361.142 160.69Z"/>
<path fill="#4A2219" d="M398.803 188.871C399.992 195.419 377.989 224.528 372.354 230.647C371.523 223.815 387.25 206.152 391.377 199.87C393.341 196.881 396.755 191.584 398.803 188.871Z"/>
<path fill="#4A2219" d="M621.055 425.633C628.482 424.971 641.527 425.037 646.057 431.978L645.742 432.71C643.355 433.152 639.068 430.148 635.738 428.86C629.515 427.278 623.212 427.218 617.117 429.424C615.107 430.152 611.224 432.278 609.613 430.681L610.129 429.692C614.114 427.152 616.594 426.61 621.055 425.633Z"/>
<path fill="#4A2219" d="M770.662 238.94L892.404 132.014C896.049 145.738 902.861 164.055 907.462 177.893L940.672 276.662C944.506 288.151 951.503 307.546 954.423 318.862C947.82 325.231 936.783 333.071 929.275 339.486C930.49 342.808 931.559 345.65 932.468 349.074C927.924 349.168 922.741 348.948 918.425 349.123C912.603 352.636 904 360.157 898.747 364.673L874.259 385.694C856.424 400.796 837.647 415.164 820.08 430.505C813.489 404.591 805.469 376.547 799.444 350.792C792.789 350.894 786.042 351.077 779.396 350.89L771.873 350.906C767.953 338.257 763.452 315.241 760.43 301.664C766.374 293.045 774.272 283.188 779.631 274.573C777.155 262.635 773.807 250.735 770.662 238.94Z"/>
<path fill="#4A2219" d="M146.435 794.574C128.812 802.125 108.331 797.485 95.6833 783.075C83.0358 768.665 81.0915 747.755 90.8652 731.26C100.639 714.765 119.913 706.427 138.627 710.599C157.34 714.772 171.248 730.507 173.089 749.591C174.941 768.788 164.163 786.979 146.435 794.574Z"/>
<path fill="#4A2219" d="M726.305 54.1504C759.615 54.7332 735.052 93.5589 763.651 93.1762C784.826 92.8929 791.347 65.9136 810.601 62.4101C825.528 59.6939 830.99 72.9351 840.515 80.7291C845.331 84.3788 853.144 85.465 858.985 84.5527C874.911 82.1433 872.815 61.8402 888.315 58.0017C896.222 55.479 903.485 59.4858 909.77 64.1846C920.633 72.3066 933.032 74.2558 946.209 71.5722C949.162 70.9709 957.516 68.111 959.814 69.9812C959.193 71.56 959.538 70.8374 957.822 72.066C942.33 77.1323 926.097 78.4097 911.788 69.4476C907.302 67.124 902.187 62.0794 897.2 61.0127C878.532 57.0197 878.509 78.5994 866.209 85.4784C861.488 88.1186 858.413 87.8399 853.864 88.1116C835.82 89.1893 832.239 70.8043 817.744 65.9023C800.586 61.0403 791.273 85.5613 777.369 92.3004C770.307 95.7234 764.065 98.1813 755.863 95.7523C741.495 91.2909 746.483 75.3671 740.615 64.329C735.828 55.3232 725.473 59.3103 723.368 55.6907C724.628 54.3523 724.299 54.7583 726.305 54.1504Z"/>
<path fill="#4A2219" d="M323.331 77.96C324.57 77.8173 325.091 77.8379 325.859 78.6714C325.365 81.6862 314.723 85.6877 312.189 86.9865C298.706 93.8974 285.729 94.1512 272.011 87.8064C268.803 86.3224 263.603 85.0443 260.072 85.3692C244.968 86.4191 245.933 103.101 237.502 111.998C227.497 122.558 212.874 120.482 201.342 113.936C195.387 110.84 187.464 104.943 180.418 105.962C156.025 109.489 155.175 144.064 128.108 144.584C112.602 144.881 111.9 131.471 103.47 122.463C99.3632 118.074 92.3041 119.293 86.8759 119.56C84.9311 119.443 85.6622 119.828 84.4234 118.795C85.3531 116.421 92.9693 115.811 95.2705 115.893C114.981 116.597 109.667 146.411 132.78 140.587C152.834 135.534 154.277 113.275 171.773 105.095C187 97.3379 196.346 109.011 209.23 114.109C216.776 117.095 228.34 116.707 234.365 110.586C242.718 102.098 241.641 87.804 253.934 83.2643C268.463 77.899 280.896 91.7234 295.591 88.8891C305.608 87.0806 314.215 82.2821 323.331 77.96Z"/>
<path fill="#4A2219" d="M190.435 172.452C190.819 172.686 191.225 173.171 191.566 173.52L191.418 174.654C189.63 176.716 177.363 183.377 174.518 184.957C138.079 205.183 93.9859 225.324 53.6215 236.013C52.3979 235.248 52.8836 235.731 52.2984 234.405C53.6003 232.309 60.2712 230.998 63.0005 230.152C67.8323 228.608 72.6378 226.983 77.4151 225.279C103.454 216.326 128.77 205.394 153.14 192.576C165.168 186.365 179.011 177.948 190.435 172.452Z"/>
<path fill="#4A2219" d="M913.719 618.768C931.024 593.153 946.042 564.151 959.21 536.193C961.086 532.21 968.28 513.842 970.453 512.463L971.304 512.425C975.771 519.297 923.33 610.616 915.43 622.268C912.828 625.745 901.701 644.548 897.912 644.173L897.622 643.078C897.936 640.932 911.319 622.136 913.719 618.768Z"/>
</svg>