<?xml version="1.0" encoding="utf-8" ?><svg xmlns="http://www.w3.org/2000/svg" viewBox="0 0 1024 1024">
<!-- BACKGROUND: Clouds (#D18C82), Ground structures (#965846) -->

<path fill="#D18C82" d="M772.878 523.815C772.65 508.634 775.734 496.337 786.596 485.032C796.426 474.969 809.869 469.25 823.937 469.146C837.588 468.877 850.787 474.046 860.625 483.514C870.245 492.839 875.724 505.632 875.835 519.029C875.992 532.677 870.227 546.843 860.67 556.571C859.806 557.444 858.922 558.296 858.019 559.128L858.007 559.308C879.812 574.252 899.478 596.628 913.719 618.768C911.319 622.136 897.936 640.932 897.622 643.078L897.912 644.173C901.701 644.548 912.828 625.745 915.43 622.268C941.875 667.839 951.446 718.101 945.856 770.231C955.277 769.711 962.43 767.732 970.648 762.769C973.113 761.28 975.792 758.795 978.439 759.232L979.01 760.277C978.223 762.817 973.443 765.303 971.118 766.573C962.574 771.24 954.897 773.401 945.2 773.961C939.886 830.561 909.228 885.516 865.657 921.692C821.219 958.845 763.797 976.738 706.121 971.405C617.989 963.172 547.048 901.146 521.863 817.213C520.568 812.9 519.649 808.271 518.216 804.045C557.114 804.045 596.028 804.068 634.945 803.97C644.017 803.947 660.758 802.385 669.87 800.186C699.214 793.105 733.589 779.463 755.435 758.066C759.902 753.369 764.37 747.682 766.301 741.438C767.845 736.444 767.537 731.74 767.599 726.663C767.66 721.618 767.617 716.635 767.62 711.62C767.686 698.625 767.621 685.63 767.426 672.636C767.83 670.143 767.804 669.163 767.793 666.599C767.427 664.399 767.482 649.935 767.449 646.836L767.363 642.954C767.033 638.677 766.839 633.29 765.147 629.368C761.672 621.316 753.677 613.817 747.041 608.333C733.74 597.341 719.528 588.473 704.69 579.817C681.622 566.36 659.564 559.022 643.433 536.51C671.698 523.888 710.604 518.707 741.297 520.191C751.436 520.682 762.794 522.308 772.878 523.815Z"/>

<path fill="#965846" d="M98.9857 398.744C98.2133 397.798 97.782 396.887 97.2584 395.784C91.0749 382.76 89.0911 367.345 93.9431 353.62C98.2506 341.158 107.38 330.947 119.284 325.278C138.899 316.038 150.626 320.34 168.97 326.991C168.046 342.03 166.911 354.448 167.202 369.776L120.598 389.347C114.459 391.952 104.813 396.568 98.9857 398.744Z"/>
<path fill="#965846" d="M178.411 333.633C187.17 342.565 189.177 346.263 193.654 358.147L193.61 358.393C189.254 360.155 181.006 363.775 176.898 364.948C176.426 355.805 177.373 342.753 178.411 333.633Z"/>
<path fill="#965846" d="M229.139 663.64C271.478 729.746 313.337 796.158 354.715 862.87C369.114 886.203 385.568 910.37 399.343 933.979L57.1985 933.967C66.3185 920.751 75.9934 905.08 84.6798 891.43L117.478 840.234C127.199 824.899 136.428 809.742 146.435 794.574C164.163 786.979 174.941 768.788 173.089 749.591C190.646 723.671 207.189 696.997 224.376 670.824C225.868 668.553 227.429 665.679 229.139 663.64Z"/>
<path fill="#965846" d="M770.662 238.94L892.404 132.014C896.049 145.738 902.861 164.055 907.462 177.893L940.672 276.662C944.506 288.151 951.503 307.546 954.423 318.862C947.82 325.231 936.783 333.071 929.275 339.486C926.588 333.632 923.096 322.611 920.739 316.036C915.861 302.537 910.908 289.065 905.882 275.62L882.855 212.786C876.506 195.634 869.973 179.306 864.522 161.805C860.072 166.45 851.312 178.366 846.9 184.032C824.091 213.327 801.17 244.318 779.631 274.573C777.155 262.635 773.807 250.735 770.662 238.94Z"/>
<path fill="#965846" d="M779.396 350.89C786.402 350.332 796.529 350.546 803.747 350.477L846.34 349.981L889.352 349.458C898.477 349.292 909.407 348.723 918.425 349.123C912.603 352.636 904 360.157 898.747 364.673L874.259 385.694C856.424 400.796 837.647 415.164 820.08 430.505C813.489 404.591 805.469 376.547 799.444 350.792C792.789 350.894 786.042 351.077 779.396 350.89Z"/>
<path fill="#965846" d="M863.094 168.405C864.461 173.634 867.086 180.045 869.015 185.257L878.626 211.441L913.161 304.935C917.211 316.007 923.39 330.996 926.791 341.72L928.787 346.237L920.793 345.909L798.454 347.486C790.221 347.66 781.987 347.775 773.753 347.832C771.36 333.647 766.855 317.223 763.73 302.809C768.557 295.153 775.372 286.209 780.817 278.957C784.599 272.452 793.568 261.243 798.165 254.909C811.71 236.129 825.463 217.501 839.422 199.027C845.536 191.025 857.982 176.127 863.094 168.405Z"/>
<path fill="#965846" d="M151.192 788.256C152.097 786.56 156.185 780.676 157.511 778.617C162.17 771.385 165.896 765.137 169.799 757.49C168.649 770.059 161.789 781.402 151.192 788.256Z"/>
</svg>