<?xml version="1.0" encoding="utf-8" ?><svg xmlns="http://www.w3.org/2000/svg" viewBox="0 0 1024 1024">
<!-- ACCENT: Neon energy paths (#CCFF00) -->

<path fill="#CCFF00" d="M98.9857 398.744C98.2133 397.798 97.782 396.887 97.2584 395.784C91.0749 382.76 89.0911 367.345 93.9431 353.62C98.2506 341.158 107.38 330.947 119.284 325.278C138.899 316.038 150.626 320.34 168.97 326.991C168.046 342.03 166.911 354.448 167.202 369.776C166.722 386.172 168.925 402.607 171.316 418.783C181.588 467.43 201.716 509.255 236.314 545.445C242.063 551.343 248.068 556.986 254.311 562.358C256.418 564.193 262.416 569.042 264.033 570.817C242.506 579.254 218.036 590.61 196.624 599.893L151.165 619.899C142.157 623.865 132.915 627.615 124.101 631.957C105.81 592.051 89.0993 549.976 71.6843 509.528C60.0562 482.521 46.8284 453.726 36.1351 426.588C44.7031 422.39 54.498 418.502 63.3254 414.68L98.9276 399.045L98.9857 398.744Z"/>
<path fill="#CCFF00" d="M193.654 358.147C213.224 351.23 234.815 339.532 254.429 332.412C273.286 375.901 291.914 419.49 310.312 463.176C318.431 481.764 326.378 500.428 334.151 519.165C336.352 524.453 339.754 531.293 341.586 536.344L296.278 556.388C292.271 558.139 278.19 563.871 275.394 565.569C274.115 565.044 270.635 562.282 269.428 561.348C226.395 528.078 196.375 479.617 183.989 426.809C183.231 423.577 180.897 414.074 181.26 411.002C195.109 398.001 198.963 376.167 193.61 358.393L193.654 358.147Z"/>
<path fill="#CCFF00" d="M772.878 523.815C772.65 508.634 775.734 496.337 786.596 485.032C796.426 474.969 809.869 469.25 823.937 469.146C837.588 468.877 850.787 474.046 860.625 483.514C870.245 492.839 875.724 505.632 875.835 519.029C875.992 532.677 870.227 546.843 860.67 556.571C859.806 557.444 858.922 558.296 858.019 559.128C831.387 541.415 804.513 529.835 772.878 523.815Z"/>
<path fill="#CCFF00" d="M767.793 666.599C767.804 669.163 767.83 670.143 767.426 672.636C763.211 686.332 751.164 694.54 739.206 700.69C702.008 719.823 661.589 731.075 619.614 730.866C612.26 730.83 604.696 730.664 597.251 730.633L549.546 730.582C528.545 730.573 506.354 730.455 485.45 730.536C446.26 730.689 354.655 726.631 332.569 688.544L332.504 685.845C335.214 687.49 338.533 693.01 341.008 695.599C345.348 700.138 351.968 704.616 357.599 707.264C400.881 727.618 452.172 728.517 498.713 728.783L555.02 728.893C587.579 728.897 620.746 730.392 653.133 726.281C682.478 722.557 712.584 712.056 738.88 698.523C746.545 694.579 754.38 689.673 759.891 683.002C764.155 677.839 764.879 671.977 767.793 666.599Z"/>
<path fill="#CCFF00" d="M332.535 661.256C334.308 662.347 334.343 662.603 334.886 664.548C337.955 676.615 350.496 684.284 361.454 688.984C399.512 705.305 444.352 705.99 484.857 706.06L546.757 706.034L593.893 706.217C601.923 706.301 616.845 706.895 624.275 706.193C648.832 703.875 682.279 700.935 705.177 691.862C720.255 685.888 751.214 672.415 760.424 659.134C764.398 653.403 764.811 648.32 767.04 643.618L767.363 642.954L767.449 646.836C763.996 666.117 745.867 674.894 730.223 682.91C713.783 691.335 697.66 698.052 679.373 701.3C661.549 704.703 642.207 707.135 624.086 708.21C615.185 708.738 603.237 708.146 594.008 708.098L541.321 708.081C493.963 708.233 445.365 710.297 398.599 702.244C379.975 699.037 335.993 687.075 332.583 665.239L332.535 661.256Z"/>
<path fill="#CCFF00" d="M629.03 490.346L629.782 492.068L629.189 492.61C626.049 493.248 603.834 493.222 599.354 493.274L565.907 493.538C562.017 493.579 546.098 494.317 543.789 492.826L544.036 492.125C546.689 491.264 557.473 491.546 560.878 491.524L601.833 491.087C607.863 491.067 623.733 491.657 629.03 490.346Z"/>
<path fill="#CCFF00" d="M461.845 520.607C463.22 521.246 463.407 521.617 463.531 523.139C466.21 556.035 484.964 581.85 495.893 611.925C502.317 629.601 500.197 644.862 491.664 661.58C491.431 661.462 490.847 660.905 490.621 660.705C490.635 658.983 492.387 654.851 493.164 653.215C503.11 632.277 494.031 609.933 484.553 590.697C475.731 572.79 466.688 554.364 462.977 534.585C462.239 530.65 461.092 524.515 461.845 520.607Z"/>
<path fill="#CCFF00" d="M614.979 542.661C616.196 543.255 615.714 542.82 616.43 543.959C609.568 581.505 586.521 593.99 565.635 622.579C555.621 636.287 551.982 646.135 545.546 661.04L544.306 660.134C543.961 657.279 547.046 652.141 548.145 649.444C554.801 633.255 565.608 617.494 577.379 604.622C591.913 588.727 606.446 574.331 611.949 552.754C612.727 549.707 613.762 545.555 614.979 542.661Z"/>
<path fill="#CCFF00" d="M474.648 876.721C498.238 872.87 520.467 888.92 524.234 912.524C528 936.128 511.869 958.299 488.252 961.98C464.755 965.643 442.721 949.612 438.974 926.128C435.227 902.644 451.178 880.553 474.648 876.721Z"/>
<path fill="#CCFF00" d="M935.17 394.816C958.493 393.426 978.565 411.127 980.101 434.441C981.637 457.756 964.062 477.937 940.757 479.619C917.246 481.316 896.846 463.551 895.296 440.029C893.747 416.508 911.639 396.219 935.17 394.816Z"/>
</svg>