<?xml version="1.0" encoding="utf-8" ?><svg xmlns="http://www.w3.org/2000/svg" viewBox="0 0 1024 1024">
<!-- FOREGROUND: White highlights (#FEFEFE) -->

<path fill="#FEFEFE" d="M428.91 88.8654L429.031 89.4858C424.904 91.76 413.946 98.7977 410.644 99.8785C398.385 109.353 391.21 118.214 382.556 130.626C380.669 133.331 372.025 136.364 369.154 138.618C355.961 148.495 348.033 164.494 345.945 180.633C345.357 185.184 345.126 191.044 344.353 195.14C340.986 199.108 336.612 203.781 333.715 207.894C325.309 220.076 321.339 234.773 322.466 249.531C323.144 258.342 326.538 265.33 327.588 273.487C328.116 277.584 321.894 287.358 321.293 291.898C316.609 309.083 317.011 328.595 327.339 343.742C328.87 345.988 333.116 352.023 335.628 352.822C336.556 354.011 337.518 355.068 338.174 356.395C339.713 361.619 345.137 376.245 349.253 379.722C351.354 383.33 352.617 384.818 355.962 387.344C358.01 391.405 363.953 396.167 367.493 399.19C368.904 400.486 370.306 401.791 371.699 403.105C369.581 430.939 377.653 447.164 405.894 453.757C410.336 499.911 413.172 537.395 426.157 582.8C414.826 590.352 398.091 601.772 387.396 610.159C384.717 612.244 377.006 618.758 374.156 619.135C330.268 610.845 299.957 596.829 264.033 570.817C242.506 579.254 218.036 590.61 196.624 599.893L151.165 619.899C142.157 623.865 132.915 627.615 124.101 631.957C105.81 592.051 89.0993 549.976 71.6843 509.528C60.0562 482.521 46.8284 453.726 36.1351 426.588C44.7031 422.39 54.498 418.502 63.3254 414.68L98.9276 399.045L98.9857 398.744C98.2133 397.798 97.782 396.887 97.2584 395.784C91.0749 382.76 89.0911 367.345 93.9431 353.62C98.2506 341.158 107.38 330.947 119.284 325.278C138.899 316.038 150.626 320.34 168.97 326.991C175.648 270.792 199.749 218.093 237.893 176.284C288.443 120.705 354.499 92.4528 428.91 88.8654Z"/>
<path fill="#FEFEFE" d="M151.192 788.256C135.115 798.656 113.988 796.577 100.246 783.245C86.5038 769.912 83.7878 748.857 93.6966 732.473C103.605 716.09 123.514 708.718 141.703 714.697C159.893 720.677 171.544 738.423 169.799 757.49C168.649 770.059 161.789 781.402 151.192 788.256Z"/>
<path fill="#FEFEFE" d="M780.817 278.957C782.325 283.536 783.672 290.044 784.996 294.897C789.738 312.36 794.225 329.892 798.454 347.486C790.221 347.66 781.987 347.775 773.753 347.832C771.36 333.647 766.855 317.223 763.73 302.809C768.557 295.153 775.372 286.209 780.817 278.957Z"/>
<path fill="#FEFEFE" d="M920.793 345.909C922.068 344.7 925.202 342.767 926.791 341.72L928.787 346.237L920.793 345.909Z"/>
<path fill="#FEFEFE" d="M476.208 879.179C498.227 876.196 518.524 891.544 521.653 913.542C524.782 935.54 509.569 955.939 487.592 959.215C465.408 962.521 444.774 947.132 441.615 924.927C438.457 902.721 453.982 882.189 476.208 879.179Z"/>
<path fill="#FEFEFE" d="M931.289 397.944C953.069 394.381 973.594 409.209 977.051 431.007C980.509 452.804 965.58 473.256 943.767 476.608C922.102 479.936 901.821 465.133 898.387 443.485C894.953 421.837 909.658 401.484 931.289 397.944Z"/>
</svg>