<?xml version="1.0" encoding="utf-8" ?><svg xmlns="http://www.w3.org/2000/svg" xmlns:xlink="http://www.w3.org/1999/xlink" width="1024" height="1024" viewBox="0 0 1024 1024"><path fill="#B4913E" d="M785.627 246.491L839.911 454.544C847.45 484.411 855.487 514.15 864.018 543.75C867.232 555.252 872.446 576.642 876.643 587.23L877.309 589.639C878.441 595.759 881.241 603.512 883.089 609.586L892.5 641.355C894.638 648.524 897.918 657.869 899.489 664.912C903.955 684.944 899.384 717.532 884.976 733.151L883.396 735.172C882.193 736.921 879.219 740.889 878.912 742.797C888.766 742.877 897.166 742.899 904.868 750.534C913.764 759.352 913.476 775.62 904.37 784.154C899.091 789.102 892.21 791.132 885.244 792.157C869.929 794.532 854.384 796.043 838.999 797.985L765.2 807.81L539.828 837.785L406.503 855.757L373.182 860.501C365.906 861.538 356.992 863.332 350.05 862.838C328.093 861.277 319.854 833.299 336.868 819.429C340.204 816.709 342.752 816.292 346.029 814.475C324.32 804.799 315.003 766.498 333.381 749.657C338.154 745.284 343.087 743.061 349.008 740.712C353.076 738.647 378.657 736.138 385.348 735.08C414.779 730.428 432.759 716.598 456.039 699.714C460.94 696.159 473.238 688.142 476.987 684.23C472.272 683.091 465.17 684.361 460.197 684.922C462.313 680.808 464.416 676.494 466.904 672.61C470.012 668.055 474.743 654.915 478.032 648.8C483.792 638.093 491.205 631.884 502.576 627.277C505.535 626.079 511.619 624.86 515.04 623.793C524.098 622.74 532.124 625.756 540.462 628.96C552.546 620.225 605.609 563.307 613.867 549.521C610.878 545.151 609.281 542.697 607.817 537.621C606.53 533.883 605.753 530.501 604.939 526.65C599.922 502.927 623.299 473.247 646.882 470.002L654.043 470.596C651.882 457.82 644.532 438.467 640.429 425.536C630.787 395.169 621.336 364.741 612.076 334.254C609.08 324.391 602.693 306.45 600.592 297.293C603.007 297.224 607.211 295.208 609.62 294.213C631.144 285.323 653.319 278.353 675.577 271.51C699.41 264.272 723.575 258.177 747.99 253.245C754.38 251.925 760.807 250.79 767.263 249.843C771.254 249.238 782.339 247.902 785.627 246.491Z"/><path fill="#CCFF00" d="M607.817 537.621C612.286 539.741 615.507 541.295 619.593 544.117C640.558 561.006 656.026 575.814 675.288 594.378C718.952 637.071 760.356 682.014 799.331 729.025C802.987 733.46 818.736 752.122 820.323 756.354C825.702 762.682 862.788 754.328 869.455 750.468C872.435 748.743 875.874 744.766 878.912 742.797C888.766 742.877 897.166 742.899 904.868 750.534C913.764 759.352 913.476 775.62 904.37 784.154C899.091 789.102 892.21 791.132 885.244 792.157C869.929 794.532 854.384 796.043 838.999 797.985L765.2 807.81L539.828 837.785L406.503 855.757L373.182 860.501C365.906 861.538 356.992 863.332 350.05 862.838C328.093 861.277 319.854 833.299 336.868 819.429C340.204 816.709 342.752 816.292 346.029 814.475C324.32 804.799 315.003 766.498 333.381 749.657C338.154 745.284 343.087 743.061 349.008 740.712C353.076 738.647 378.657 736.138 385.348 735.08C414.779 730.428 432.759 716.598 456.039 699.714C460.94 696.159 473.238 688.142 476.987 684.23C472.272 683.091 465.17 684.361 460.197 684.922C462.313 680.808 464.416 676.494 466.904 672.61C470.012 668.055 474.743 654.915 478.032 648.8C483.792 638.093 491.205 631.884 502.576 627.277C505.535 626.079 511.619 624.86 515.04 623.793C524.098 622.74 532.124 625.756 540.462 628.96C552.546 620.225 605.609 563.307 613.867 549.521C610.878 545.151 609.281 542.697 607.817 537.621Z"/><path fill="#B4913E" d="M607.817 537.621C612.286 539.741 615.507 541.295 619.593 544.117C640.558 561.006 656.026 575.814 675.288 594.378C718.952 637.071 760.356 682.014 799.331 729.025C802.987 733.46 818.736 752.122 820.323 756.354C818.224 756.849 818.05 756.617 816.581 755.309L706.989 770.432C698.029 771.633 689.078 772.909 680.139 774.259C676.657 774.769 669.118 775.997 665.784 776.126C663.65 776.781 657.5 777.981 655.373 777.459C649.17 777.82 641.129 779.103 634.836 779.959L600.968 784.595C598.115 784.987 585.198 786.957 583.334 786.915C564.501 751.522 515.25 703.72 482.206 680.988C476.247 676.522 473.992 674.886 466.904 672.61C470.012 668.055 474.743 654.915 478.032 648.8C483.792 638.093 491.205 631.884 502.576 627.277C505.535 626.079 511.619 624.86 515.04 623.793C524.098 622.74 532.124 625.756 540.462 628.96C552.546 620.225 605.609 563.307 613.867 549.521C610.878 545.151 609.281 542.697 607.817 537.621Z"/><path fill="#B4913E" d="M466.904 672.61C470.012 668.055 474.743 654.915 478.032 648.8C483.792 638.093 491.205 631.884 502.576 627.277C505.535 626.079 511.619 624.86 515.04 623.793C522.069 627.742 530.302 631.167 538.269 635.679C584.182 663.894 631.905 729.323 655.373 777.459C649.17 777.82 641.129 779.103 634.836 779.959L600.968 784.595C598.115 784.987 585.198 786.957 583.334 786.915C564.501 751.522 515.25 703.72 482.206 680.988C476.247 676.522 473.992 674.886 466.904 672.61Z"/><path fill="#B4913E" d="M466.904 672.61C470.012 668.055 474.743 654.915 478.032 648.8C483.792 638.093 491.205 631.884 502.576 627.277C505.535 626.079 511.619 624.86 515.04 623.793C522.069 627.742 530.302 631.167 538.269 635.679C534.341 641.449 500.652 668.994 493.713 674.198C491.263 676.037 485.321 679.777 482.206 680.988C476.247 676.522 473.992 674.886 466.904 672.61Z"/><path fill="#4A2219" d="M515.04 623.793C524.098 622.74 532.124 625.756 540.462 628.96C546.555 632.015 555.495 636.553 560.57 640.774C598.159 672.039 644.212 732.641 665.784 776.126C663.65 776.781 657.5 777.981 655.373 777.459C631.905 729.323 584.182 663.894 538.269 635.679C530.302 631.167 522.069 627.742 515.04 623.793Z"/><path fill="#4A2219" d="M607.817 537.621C612.286 539.741 615.507 541.295 619.593 544.117C640.558 561.006 656.026 575.814 675.288 594.378C718.952 637.071 760.356 682.014 799.331 729.025C802.987 733.46 818.736 752.122 820.323 756.354C818.224 756.849 818.05 756.617 816.581 755.309C809.626 745.872 801.975 736.991 794.516 727.97C785.788 717.414 776.928 706.799 767.32 697.016C761.985 714.665 761.121 728.214 763.196 746.201C763.317 747.253 762.601 747.869 761.933 748.507C760.167 747.946 759.77 740.982 759.609 739.183C758.182 723.242 760.699 709.149 764.989 693.861C761.591 690.863 757.035 685.304 753.946 681.767C748.002 674.91 741.991 668.111 735.916 661.371C716.895 640.42 697.124 620.163 676.64 600.639C663.603 588.176 649.882 576.45 635.541 565.512C630.813 561.893 617.151 553.095 613.867 549.521C610.878 545.151 609.281 542.697 607.817 537.621Z"/><path fill="#B4913E" d="M466.904 672.61C473.992 674.886 476.247 676.522 482.206 680.988C515.25 703.72 564.501 751.522 583.334 786.915C581.65 787.169 576.911 788.004 575.463 787.894C571.848 788.523 560.932 790.23 557.542 789.933C554.69 790.93 548.419 791.414 545.17 791.72C539.469 792.711 486.475 800.455 484.518 799.517L484.221 799.144C483.036 800.815 477.962 800.491 475.819 800.523C462.569 801.329 446.53 804.496 434.436 804.978C431.783 805.375 429.085 805.755 426.44 806.182C416.462 807.313 403.288 809.053 393.362 809.653L385.52 810.347C374.159 811.097 362.331 812.554 350.993 813.816C348.666 814.543 348.509 814.518 346.029 814.475C324.32 804.799 315.003 766.498 333.381 749.657C338.154 745.284 343.087 743.061 349.008 740.712C353.076 738.647 378.657 736.138 385.348 735.08C414.779 730.428 432.759 716.598 456.039 699.714C460.94 696.159 473.238 688.142 476.987 684.23C472.272 683.091 465.17 684.361 460.197 684.922C462.313 680.808 464.416 676.494 466.904 672.61Z"/><path fill="#4A2219" d="M466.904 672.61C473.992 674.886 476.247 676.522 482.206 680.988C515.25 703.72 564.501 751.522 583.334 786.915C581.65 787.169 576.911 788.004 575.463 787.894C571.848 788.523 560.932 790.23 557.542 789.933C554.69 790.93 548.419 791.414 545.17 791.72C553.236 782.704 557.215 777.157 563.824 767.204C559.733 761.776 551.072 750.22 546.735 745.311C534.296 731.23 494.518 689.082 476.987 684.23C472.272 683.091 465.17 684.361 460.197 684.922C462.313 680.808 464.416 676.494 466.904 672.61Z"/><path fill="#B4913E" d="M557.542 789.933C561.38 785.605 564.793 781.326 568.405 776.818C571.034 780.614 573.089 783.926 575.463 787.894C571.848 788.523 560.932 790.23 557.542 789.933Z"/><path fill="#4A2219" d="M349.008 740.712C348.339 743.011 347.759 744.31 346.781 746.509C356.249 746.366 365.618 746.574 375.077 746.534C383.192 746.499 392.463 745.456 400.452 746.287C382.854 752.631 360.079 752.094 341.903 748.749C328.367 764.542 332.656 802.255 350.993 813.816C348.666 814.543 348.509 814.518 346.029 814.475C324.32 804.799 315.003 766.498 333.381 749.657C338.154 745.284 343.087 743.061 349.008 740.712Z"/><path fill="#4A2219" d="M426.44 806.182C426.424 805.492 426.427 804.802 426.448 804.112C427.364 768.75 450.877 752.015 484.588 753.037C470.26 756.486 457.202 756.324 445.69 768.412C435.681 778.922 434.109 791.227 434.436 804.978C431.783 805.375 429.085 805.755 426.44 806.182Z"/><path fill="#4A2219" d="M385.52 810.347C385.51 808.969 385.534 807.59 385.59 806.212C386.205 789.834 389.274 781.055 401.469 769.019C407.64 762.929 425.752 754.334 434.011 754.678L434.241 755.139C424.529 761.024 413.635 761.685 403.979 772.533C392.797 785.095 392.831 793.875 393.362 809.653L385.52 810.347Z"/><path fill="#4A2219" d="M475.819 800.523C476.644 785.265 483.745 768.351 497.182 760.043C505.184 755.095 514.375 754.457 523.528 754.124C514.983 757.152 504.47 759.101 497.574 765.345C487.439 774.523 485.048 786.277 484.221 799.144C483.036 800.815 477.962 800.491 475.819 800.523Z"/><path fill="#B4913E" d="M607.817 537.621C606.53 533.883 605.753 530.501 604.939 526.65C599.922 502.927 623.299 473.247 646.882 470.002L654.043 470.596C666.898 475.2 678.571 489.705 687.762 499.797C696.531 509.374 705.206 519.037 713.786 528.784C743.101 562.327 772.125 596.121 800.856 630.165C816.708 611.355 832.642 600.179 856.205 592.215C862.532 590.076 869.948 587.669 876.643 587.23L877.309 589.639C878.441 595.759 881.241 603.512 883.089 609.586L892.5 641.355C894.638 648.524 897.918 657.869 899.489 664.912C903.955 684.944 899.384 717.532 884.976 733.151L883.396 735.172C882.193 736.921 879.219 740.889 878.912 742.797C875.874 744.766 872.435 748.743 869.455 750.468C862.788 754.328 825.702 762.682 820.323 756.354C818.736 752.122 802.987 733.46 799.331 729.025C760.356 682.014 718.952 637.071 675.288 594.378C656.026 575.814 640.558 561.006 619.593 544.117C615.507 541.295 612.286 539.741 607.817 537.621Z"/><path fill="#B4913E" d="M877.309 589.639C878.441 595.759 881.241 603.512 883.089 609.586L892.5 641.355C894.638 648.524 897.918 657.869 899.489 664.912C903.955 684.944 899.384 717.532 884.976 733.151C880.527 727.241 876.436 721.006 871.819 715.212C849.402 687.084 825.947 659.586 802.564 632.264C804.033 630.774 805.572 629.043 806.957 627.478C821.564 610.979 840.807 600.244 861.656 593.712C866.739 592.119 872.171 591.225 877.309 589.639Z"/><path fill="#B4913E" d="M607.817 537.621C606.53 533.883 605.753 530.501 604.939 526.65C599.922 502.927 623.299 473.247 646.882 470.002L646.669 470.806C648.963 472.568 650.805 473.32 652.985 474.842C649.04 495.846 641.798 514.093 630.063 531.881C627.731 535.416 623.35 542.114 619.593 544.117C615.507 541.295 612.286 539.741 607.817 537.621Z"/><path fill="#4A2219" d="M646.882 470.002L654.043 470.596C666.898 475.2 678.571 489.705 687.762 499.797C696.531 509.374 705.206 519.037 713.786 528.784C743.101 562.327 772.125 596.121 800.856 630.165C816.708 611.355 832.642 600.179 856.205 592.215C862.532 590.076 869.948 587.669 876.643 587.23L877.309 589.639C872.171 591.225 866.739 592.119 861.656 593.712C840.807 600.244 821.564 610.979 806.957 627.478C805.572 629.043 804.033 630.774 802.564 632.264C825.947 659.586 849.402 687.084 871.819 715.212C876.436 721.006 880.527 727.241 884.976 733.151L883.396 735.172C880.393 732.396 872.691 721.514 869.533 717.52C859.67 705.072 849.661 692.74 839.51 680.526C813.552 649.48 787.3 618.681 760.759 588.133C738.199 562.206 716.377 536.319 691.932 512.065C680.06 500.287 666.467 484.752 652.985 474.842C650.805 473.32 648.963 472.568 646.669 470.806L646.882 470.002Z"/><path fill="#D18C82" d="M265.105 139.549C285.762 140.505 310.581 139.974 331.55 139.876C330.327 151.368 327.343 161.051 314.026 162.863L313.952 165.334C348.007 166.492 362.472 211.738 337.431 233.78C322.648 246.792 305.851 245.325 290.484 234.443L290.518 600.922C290.55 670.379 289.882 741.025 290.826 810.376L156.089 810.457C155.364 797.621 156.028 777.425 156.026 764.135L156 669.937L156.01 370.646L155.932 272.567C155.909 265.535 156.568 239.416 155.701 234.104L154.834 233.891C149.334 237.009 144.882 242.031 138.351 243.287C104.53 249.791 81.5267 210.901 99.3693 182.904C107.042 170.865 115.205 166.781 128.623 163.615C116.507 158.858 111.89 153.467 110.929 140.258C126.378 139.486 146.486 140.008 162.36 139.986L261.255 139.869C263.068 139.901 263.377 139.829 265.105 139.549Z"/><path fill="#4A2219" d="M154.834 233.891C160.947 224.275 164.225 217.681 161.796 205.912C158.865 191.714 145.321 179.944 130.348 183.937C119.453 186.842 111.19 198.685 114.814 209.895C116.324 214.437 119.635 218.158 123.971 220.185C133.501 224.669 145.283 218.119 141.06 207.065C140.061 204.45 135.15 203.454 134.199 201.365C137.788 198.898 140.859 202.381 142.422 205.389C149.422 218.854 135.636 227.356 123.844 222.667C118.876 220.721 114.937 216.804 112.963 211.847C110.682 206.192 111.309 200.752 113.761 195.279C116.361 189.39 121.23 184.8 127.263 182.553C133.943 180.108 141.33 180.491 147.721 183.613C155.054 187.216 160.628 193.618 163.188 201.377C163.838 203.336 164.318 205.399 164.785 207.41C202.269 207.554 240.977 207.079 278.351 207.678C282.031 191.599 294.67 177.872 312.636 181.905C318.885 183.311 324.322 187.136 327.758 192.542C330.997 197.702 332.124 202.872 330.549 208.852C329.138 214.007 325.7 218.371 321.018 220.95C303.78 230.526 289.879 210.627 307.289 201.182C308.745 200.392 309.946 200.437 311.461 200.955L311.87 201.723C309.944 203.407 308.055 203.589 306.231 204.92C291.645 215.594 314.026 227.949 323.484 216.214C326.556 212.402 329.102 208.509 328.561 203.345C326.226 181.07 300.45 178.101 287.432 193.269C282.198 199.434 279.672 207.45 280.428 215.502C281.272 223.717 284.714 228.54 290.338 234.05L155.701 234.104L154.834 233.891Z"/><path fill="#4A2219" d="M127.803 163.908C135.66 162.581 144.698 162.871 152.734 162.874L183.188 162.833L314.026 162.863L313.952 165.334L197.065 165.16L160.179 165.163C148.545 165.147 139.375 165.385 127.803 163.908Z"/><path fill="#965846" d="M244.498 274.563L246.495 275.072C247.505 277.198 247.017 335.328 247.015 342.956L247.034 614.289L247.015 702.063C247.007 713.95 247.649 735.426 246.754 746.756L245.19 748.017C243.731 746.419 244.036 745.193 244.016 743.133L244.046 447.058L244.308 336.12C244.324 316.405 243.599 293.933 244.498 274.563Z"/><defs><linearGradient id="gradient_0" gradientUnits="userSpaceOnUse" x1="197.23308" y1="483.47513" x2="191.76698" y2="483.52988"><stop offset="0" stop-color="#1F3439"/><stop offset="1" stop-color="#193A51"/></linearGradient></defs><path fill="url(#gradient_0)" d="M193.88 257.6C195.144 258.05 194.714 257.831 195.763 258.688C196.226 260.98 196.082 268.039 196.096 270.879L196.186 295.168L196.37 386.371L196.484 594.636L196.488 667.764C196.481 681.426 196.728 696.232 196.286 709.793C195.024 709.569 194.947 709.542 193.764 709.045C193.284 707.667 192.695 263.545 193.88 257.6Z"/><path fill="#965846" d="M290.826 810.376L306.197 810.517C306.43 832.329 306.538 854.142 306.519 875.955L870.522 876.048L870.642 980.943L98.1541 980.502C97.5976 969.897 98.0246 955.122 98.0428 944.356L98.11 875.811C112.016 875.928 125.923 875.968 139.829 875.931L139.953 810.465L156.089 810.457L290.826 810.376Z"/><path fill="#CCFF00" d="M290.826 810.376L306.197 810.517C306.43 832.329 306.538 854.142 306.519 875.955L139.829 875.931L139.953 810.465L156.089 810.457L290.826 810.376Z"/><path fill="#FEFEFE" d="M202.34 907.18C218.604 906.179 234.156 919.873 247.416 927.758C259.119 934.841 271.579 941.539 285.506 942.392C287.974 942.543 293.592 942.484 295.134 943.893L294.73 944.515C290.853 945.382 287.116 944.382 283.302 943.968C258.279 941.254 241.855 924.285 220.665 913.287C219.216 912.605 217.741 911.98 216.245 911.412C190.354 901.634 184.443 922.362 165.2 931.176C153.591 936.493 137.098 936.047 125.367 931.375L125.447 930.819C126.965 930.614 131.329 931.457 133.144 931.805C142.759 933.648 149.252 934.049 158.705 931.75C178.292 926.988 182.164 909.736 202.34 907.18Z"/><path fill="#FEFEFE" d="M563.793 912.628C575.227 912.058 586.151 918.68 595.845 923.955C607.995 930.566 619.872 937.17 633.491 940.328C637.597 941.28 643.048 941.745 646.798 943.465L646.053 943.151L645.573 943.912C620.002 943.878 597.496 924.172 575.395 916.068C548.383 907.034 542.988 935.811 518.659 931.927C509.127 930.405 499.405 922.169 494.058 914.269C498.353 917.061 502.4 921.74 506.703 924.661C533.031 942.536 539.574 916.317 563.793 912.628Z"/><path fill="#FEFEFE" d="M777.545 919.151C800.09 915.804 807.645 937.526 828.47 939.009C830.245 939.136 834.388 939.342 835.534 940.706C832.626 942.979 821.439 939.504 818.032 938.108C805.221 932.858 797.008 920.441 782.06 920.538C773.092 920.597 767.404 923.161 760.926 929.317C760.596 929.66 760.265 930.001 759.93 930.34C752.241 938.111 748.898 939.72 737.412 941.168C730.463 942.044 704.67 932.034 704.69 926.746C706.172 926.944 713.404 931.563 715.249 932.656C725.916 938.978 742.833 943.033 753.282 934.084C762.477 926.209 764.446 921.408 777.545 919.151Z"/><path fill="#FEFEFE" d="M316.818 900.171C332.912 898.7 350.745 914.936 363.739 923.273C369.549 927.017 375.757 930.102 382.249 932.471C390.996 935.605 400.171 937.381 409.456 937.735C413.366 937.89 418.529 937.589 422.177 938.362L421.811 938.797C417.913 939.746 415.374 939.555 411.341 939.514C383.337 938.521 369.841 930.144 347.714 914.224C340.827 909.269 333.839 905.421 325.838 902.872C316.5 899.896 310.747 904.136 306.352 903.462L306.494 903.07C310.301 901.166 312.702 900.717 316.818 900.171Z"/><path fill="#B4913E" d="M541.083 121.317C546.244 120.441 554.136 118.142 559.392 116.73C570.928 113.75 582.359 110.378 593.666 106.621C655.026 85.9092 692.029 65.8828 743.321 28.0987C744.553 39.2313 749.807 59.4138 752.498 71.262L763.287 119.523C766.776 134.496 770.818 150.24 773.909 165.198C776.845 166.427 779.546 167.88 781.916 170.037L792.142 216.426C792.787 219.464 795.513 231.499 795.367 234.133C792.925 238.718 787.709 242.5 785.627 246.491C782.339 247.902 771.254 249.238 767.263 249.843C760.807 250.79 754.38 251.925 747.99 253.245C723.575 258.177 699.41 264.272 675.577 271.51C653.319 278.353 631.144 285.323 609.62 294.213C607.211 295.208 603.007 297.224 600.592 297.293C596.443 294.661 589.671 299.097 583.171 292.058C580.528 286.225 578.08 276.185 575.922 269.744C572.186 258.593 568.332 247.2 564.981 235.933C564.032 232.745 563.455 230.257 565.133 227.354C567.15 222.736 568.884 221.177 573.205 218.75C567.391 206.989 562.018 185.304 557.969 172.483C552.561 155.362 547.015 138.266 541.083 121.317Z"/><path fill="#B4913E" d="M573.205 218.75C579.623 216.709 592.87 214.991 600.383 213.309C622.66 208.343 644.842 202.962 666.918 197.17C689.526 191.132 711.916 184.305 734.047 176.702C745.722 172.754 757.561 168.42 769.313 164.665C770.538 164.274 772.618 164.876 773.909 165.198C776.845 166.427 779.546 167.88 781.916 170.037L792.142 216.426C792.787 219.464 795.513 231.499 795.367 234.133C792.925 238.718 787.709 242.5 785.627 246.491C782.339 247.902 771.254 249.238 767.263 249.843C760.807 250.79 754.38 251.925 747.99 253.245C723.575 258.177 699.41 264.272 675.577 271.51C653.319 278.353 631.144 285.323 609.62 294.213C607.211 295.208 603.007 297.224 600.592 297.293C596.443 294.661 589.671 299.097 583.171 292.058C580.528 286.225 578.08 276.185 575.922 269.744C572.186 258.593 568.332 247.2 564.981 235.933C564.032 232.745 563.455 230.257 565.133 227.354C567.15 222.736 568.884 221.177 573.205 218.75Z"/><path fill="#4A2219" d="M583.171 292.058C653.454 272.648 725.653 254.408 795.367 234.133C792.925 238.718 787.709 242.5 785.627 246.491C782.339 247.902 771.254 249.238 767.263 249.843C760.807 250.79 754.38 251.925 747.99 253.245C723.575 258.177 699.41 264.272 675.577 271.51C653.319 278.353 631.144 285.323 609.62 294.213C607.211 295.208 603.007 297.224 600.592 297.293C596.443 294.661 589.671 299.097 583.171 292.058Z"/><path fill="#4A2219" d="M573.205 218.75C579.623 216.709 592.87 214.991 600.383 213.309C622.66 208.343 644.842 202.962 666.918 197.17C689.526 191.132 711.916 184.305 734.047 176.702C745.722 172.754 757.561 168.42 769.313 164.665C770.538 164.274 772.618 164.876 773.909 165.198C776.845 166.427 779.546 167.88 781.916 170.037C767.679 175.301 747.51 180.234 732.58 184.239C698.341 193.425 663.587 201.075 629.255 210.071C608.189 215.591 585.729 220.357 565.133 227.354C567.15 222.736 568.884 221.177 573.205 218.75Z"/><path fill="#CCFF00" d="M897.374 82.71C897.577 82.6886 897.78 82.6673 897.983 82.6459C971.412 80.7261 991.928 171.679 949.35 220.359C934.005 237.902 922.059 243.248 900.528 244.929C861.738 245.782 830.388 215.526 825.671 178.007C819.623 129.893 847.721 86.7402 897.374 82.71Z"/><path fill="#4A2219" d="M886.795 407.375C894.273 407.77 914.637 426.068 919.835 431.649C924.141 436.294 928.051 441.29 931.524 446.586C952.138 477.643 955.56 508.969 948.373 544.696C960.856 560.267 972.359 575.942 977.593 596.363C984.936 625.014 976.251 655.705 967.963 683.279C967.714 684.108 966.705 684.259 966.03 684.395C965.466 683.29 965.502 682.959 965.914 681.499C970.828 664.09 975.353 647.673 977.422 629.624C977.57 627.655 977.686 625.684 977.77 623.711C978.822 595.533 966.247 568.208 947.248 547.943C943.843 557.058 938.98 567.772 927.58 558.725C921.239 554.063 910.183 538.117 910.182 530.017C910.179 506.611 942.214 538.402 945.654 541.858C959.368 490.596 934.399 436.447 889.01 410.393C887.174 409.339 887.134 409.243 886.795 407.375Z"/><path fill="#FEFEFE" d="M914.801 524.082C925.682 525.474 938.004 537.268 944.893 545.171C943.67 550.004 943.119 552.773 940.207 556.952C937.992 558.606 937.166 558.766 934.57 559.689C931.185 557.957 928.465 556.116 925.822 553.34C920.994 548.27 908.18 530.407 914.801 524.082Z"/><path fill="#4A2219" d="M111.988 508.287L113.235 509.014L113.372 509.934C111.792 512.908 110.089 513.715 108.177 516.194C88.0726 542.244 79.8099 576.695 82.6572 608.712C88.3968 607.273 93.0867 606.941 98.7443 609.204C109.279 613.416 110.937 627.92 101.392 634.164C98.667 635.946 94.8768 636.182 92.0354 634.51C84.6919 630.189 82.3599 620.954 80.2332 613.305C56.5948 632.56 57.6229 678.411 64.6522 705.231C66.466 712.152 69.7118 719.616 72.7536 726.13C75.5972 731.884 78.588 737.035 82.762 741.95C85.4776 745.147 90.5827 749.648 92.5108 753L92.1278 753.561L90.851 753.483C86.7032 751.056 80.0406 743.179 77.2096 739.11C61.1161 715.98 55.6865 686.014 57.9222 658.393C59.345 640.815 65.6567 620.399 80.3892 610.053C74.6296 578.706 88.7517 530.402 111.988 508.287Z"/><path fill="#FEFEFE" d="M86.6196 610.589C92.5397 610.204 96.7783 610.085 101.508 614.28C107.533 619.623 105.924 625.753 101.224 630.978C90.1018 637.552 83.519 620.769 83.4514 612.297C84.3285 610.901 84.5376 611.251 86.6196 610.589Z"/><path fill="#4A2219" d="M442.6 311.714C444.289 312.138 448.246 320.945 449.546 323.235C451.279 326.234 453.162 329.144 455.187 331.954C472.139 355.001 507.823 365.02 534.834 369.37C537.537 369.805 541.891 370.016 544.173 371.294L544.333 372.139C540.521 373.972 518.45 369.029 513.192 367.617C485.584 360.208 462.085 349.824 447.024 324.268L442.66 316.107C422.457 345.092 385.902 359.686 351.304 358.94C348.549 358.881 342.731 358.855 340.585 357.009L340.671 356.163L341.741 355.634C371.722 360.752 410.418 347.454 431.393 325.667C435.429 321.476 439.059 316.362 442.6 311.714Z"/><path fill="#4A2219" d="M261.255 139.869C278.479 114.393 307.594 92.8448 337.167 84.1333C364.075 75.986 393.132 79.0281 417.769 92.572C421.973 94.891 440.665 106.989 441.832 111.069L441.391 111.822C438.758 111.672 435.508 107.82 433.399 106.196C428.768 102.629 424.1 99.086 419.073 96.0843C395.738 82.3991 367.9 78.6104 341.756 85.5616C315.207 92.4915 278.982 115.74 265.105 139.549C263.377 139.829 263.068 139.901 261.255 139.869Z"/><path fill="#D18C82" d="M487.132 500.197C486.643 501.232 486.134 502.258 485.606 503.274C470.562 532.021 434.537 529.672 412.532 511.012C405.804 505.307 395.599 493.003 393.068 484.419C393.421 482.872 392.99 483.429 394.113 482.53C395.77 483.155 400.131 492.617 402.206 495.716C408.55 505.211 417.439 512.728 427.855 517.408C450.182 527.687 474.394 521.599 485.055 498.521C486.043 496.426 485.664 496.284 487.273 495.483C488.601 496.163 489.213 497.826 489.822 499.25C499.762 514.366 510.975 522.911 529.429 525.698C532.095 526.101 537.417 525.847 539.178 527.043L539.299 527.959C536.911 530.124 523.993 527.657 520.818 526.793C506.864 522.999 494.43 512.512 487.132 500.197Z"/><path fill="#D18C82" d="M511.841 94.987C524.462 96.1632 541.271 107.302 542.946 120.81C541.94 119.416 540.763 117.165 539.843 115.746C533.429 105.847 524.146 100.559 513.158 97.1026C512.087 96.7656 512.085 95.944 511.841 94.987Z"/></svg>