<?xml version="1.0" encoding="utf-8" ?><svg xmlns="http://www.w3.org/2000/svg" xmlns:xlink="http://www.w3.org/1999/xlink" viewBox="0 0 1024 1024">
<!-- ACCENT LAYER: Neon green energy paths (will pulse/glow) -->

<!-- Footpath energy - top right sun/circle -->
<path fill="#CCFF00" d="M897.374 82.71C897.577 82.6886 897.78 82.6673 897.983 82.6459C971.412 80.7261 991.928 171.679 949.35 220.359C934.005 237.902 922.059 243.248 900.528 244.929C861.738 245.782 830.388 215.526 825.671 178.007C819.623 129.893 847.721 86.7402 897.374 82.71Z"/>

<!-- Footpath energy - main path trail -->
<path fill="#CCFF00" d="M607.817 537.621C612.286 539.741 615.507 541.295 619.593 544.117C640.558 561.006 656.026 575.814 675.288 594.378C718.952 637.071 760.356 682.014 799.331 729.025C802.987 733.46 818.736 752.122 820.323 756.354C825.702 762.682 862.788 754.328 869.455 750.468C872.435 748.743 875.874 744.766 878.912 742.797C888.766 742.877 897.166 742.899 904.868 750.534C913.764 759.352 913.476 775.62 904.37 784.154C899.091 789.102 892.21 791.132 885.244 792.157C869.929 794.532 854.384 796.043 838.999 797.985L765.2 807.81L539.828 837.785L406.503 855.757L373.182 860.501C365.906 861.538 356.992 863.332 350.05 862.838C328.093 861.277 319.854 833.299 336.868 819.429C340.204 816.709 342.752 816.292 346.029 814.475C324.32 804.799 315.003 766.498 333.381 749.657C338.154 745.284 343.087 743.061 349.008 740.712C353.076 738.647 378.657 736.138 385.348 735.08C414.779 730.428 432.759 716.598 456.039 699.714C460.94 696.159 473.238 688.142 476.987 684.23C472.272 683.091 465.17 684.361 460.197 684.922C462.313 680.808 464.416 676.494 466.904 672.61C470.012 668.055 474.743 654.915 478.032 648.8C483.792 638.093 491.205 631.884 502.576 627.277C505.535 626.079 511.619 624.86 515.04 623.793C524.098 622.74 532.124 625.756 540.462 628.96C552.546 620.225 605.609 563.307 613.867 549.521C610.878 545.151 609.281 542.697 607.817 537.621Z"/>

<!-- Footpath energy - bottom platform glow -->
<path fill="#CCFF00" d="M290.826 810.376L306.197 810.517C306.43 832.329 306.538 854.142 306.519 875.955L139.829 875.931L139.953 810.465L156.089 810.457L290.826 810.376Z"/>
</svg>