<?xml version="1.0" encoding="utf-8" ?><svg xmlns="http://www.w3.org/2000/svg" xmlns:xlink="http://www.w3.org/1999/xlink" viewBox="0 0 1024 1024">
<!-- BACKGROUND LAYER: Clouds, pole, ground base -->

<!-- Pink cloud shapes (D18C82) -->
<path fill="#D18C82" d="M265.105 139.549C285.762 140.505 310.581 139.974 331.55 139.876C330.327 151.368 327.343 161.051 314.026 162.863L313.952 165.334C348.007 166.492 362.472 211.738 337.431 233.78C322.648 246.792 305.851 245.325 290.484 234.443L290.518 600.922C290.55 670.379 289.882 741.025 290.826 810.376L156.089 810.457C155.364 797.621 156.028 777.425 156.026 764.135L156 669.937L156.01 370.646L155.932 272.567C155.909 265.535 156.568 239.416 155.701 234.104L154.834 233.891C149.334 237.009 144.882 242.031 138.351 243.287C104.53 249.791 81.5267 210.901 99.3693 182.904C107.042 170.865 115.205 166.781 128.623 163.615C116.507 158.858 111.89 153.467 110.929 140.258C126.378 139.486 146.486 140.008 162.36 139.986L261.255 139.869C263.068 139.901 263.377 139.829 265.105 139.549Z"/>
<path fill="#D18C82" d="M487.132 500.197C486.643 501.232 486.134 502.258 485.606 503.274C470.562 532.021 434.537 529.672 412.532 511.012C405.804 505.307 395.599 493.003 393.068 484.419C393.421 482.872 392.99 483.429 394.113 482.53C395.77 483.155 400.131 492.617 402.206 495.716C408.55 505.211 417.439 512.728 427.855 517.408C450.182 527.687 474.394 521.599 485.055 498.521C486.043 496.426 485.664 496.284 487.273 495.483C488.601 496.163 489.213 497.826 489.822 499.25C499.762 514.366 510.975 522.911 529.429 525.698C532.095 526.101 537.417 525.847 539.178 527.043L539.299 527.959C536.911 530.124 523.993 527.657 520.818 526.793C506.864 522.999 494.43 512.512 487.132 500.197Z"/>
<path fill="#D18C82" d="M511.841 94.987C524.462 96.1632 541.271 107.302 542.946 120.81C541.94 119.416 540.763 117.165 539.843 115.746C533.429 105.847 524.146 100.559 513.158 97.1026C512.087 96.7656 512.085 95.944 511.841 94.987Z"/>

<!-- Earth tone elements - vertical pole (965846) -->
<path fill="#965846" d="M244.498 274.563L246.495 275.072C247.505 277.198 247.017 335.328 247.015 342.956L247.034 614.289L247.015 702.063C247.007 713.95 247.649 735.426 246.754 746.756L245.19 748.017C243.731 746.419 244.036 745.193 244.016 743.133L244.046 447.058L244.308 336.12C244.324 316.405 243.599 293.933 244.498 274.563Z"/>
<path fill="#965846" d="M290.826 810.376L306.197 810.517C306.43 832.329 306.538 854.142 306.519 875.955L870.522 876.048L870.642 980.943L98.1541 980.502C97.5976 969.897 98.0246 955.122 98.0428 944.356L98.11 875.811C112.016 875.928 125.923 875.968 139.829 875.931L139.953 810.465L156.089 810.457L290.826 810.376Z"/>

<!-- Gradient bar -->
<defs><linearGradient id="gradient_0" gradientUnits="userSpaceOnUse" x1="197.23308" y1="483.47513" x2="191.76698" y2="483.52988"><stop offset="0" stop-color="#1F3439"/><stop offset="1" stop-color="#193A51"/></linearGradient></defs>
<path fill="url(#gradient_0)" d="M193.88 257.6C195.144 258.05 194.714 257.831 195.763 258.688C196.226 260.98 196.082 268.039 196.096 270.879L196.186 295.168L196.37 386.371L196.484 594.636L196.488 667.764C196.481 681.426 196.728 696.232 196.286 709.793C195.024 709.569 194.947 709.542 193.764 709.045C193.284 707.667 192.695 263.545 193.88 257.6Z"/>
</svg>