<?xml version="1.0" encoding="utf-8" ?><svg xmlns="http://www.w3.org/2000/svg" xmlns:xlink="http://www.w3.org/1999/xlink" viewBox="0 0 1024 1024">
<!-- FOREGROUND LAYER: White highlights and small details -->

<!-- White highlight elements (FEFEFE) -->
<path fill="#FEFEFE" d="M202.34 907.18C218.604 906.179 234.156 919.873 247.416 927.758C259.119 934.841 271.579 941.539 285.506 942.392C287.974 942.543 293.592 942.484 295.134 943.893L294.73 944.515C290.853 945.382 287.116 944.382 283.302 943.968C258.279 941.254 241.855 924.285 220.665 913.287C219.216 912.605 217.741 911.98 216.245 911.412C190.354 901.634 184.443 922.362 165.2 931.176C153.591 936.493 137.098 936.047 125.367 931.375L125.447 930.819C126.965 930.614 131.329 931.457 133.144 931.805C142.759 933.648 149.252 934.049 158.705 931.75C178.292 926.988 182.164 909.736 202.34 907.18Z"/>
<path fill="#FEFEFE" d="M563.793 912.628C575.227 912.058 586.151 918.68 595.845 923.955C607.995 930.566 619.872 937.17 633.491 940.328C637.597 941.28 643.048 941.745 646.798 943.465L646.053 943.151L645.573 943.912C620.002 943.878 597.496 924.172 575.395 916.068C548.383 907.034 542.988 935.811 518.659 931.927C509.127 930.405 499.405 922.169 494.058 914.269C498.353 917.061 502.4 921.74 506.703 924.661C533.031 942.536 539.574 916.317 563.793 912.628Z"/>
<path fill="#FEFEFE" d="M777.545 919.151C800.09 915.804 807.645 937.526 828.47 939.009C830.245 939.136 834.388 939.342 835.534 940.706C832.626 942.979 821.439 939.504 818.032 938.108C805.221 932.858 797.008 920.441 782.06 920.538C773.092 920.597 767.404 923.161 760.926 929.317C760.596 929.66 760.265 930.001 759.93 930.34C752.241 938.111 748.898 939.72 737.412 941.168C730.463 942.044 704.67 932.034 704.69 926.746C706.172 926.944 713.404 931.563 715.249 932.656C725.916 938.978 742.833 943.033 753.282 934.084C762.477 926.209 764.446 921.408 777.545 919.151Z"/>
<path fill="#FEFEFE" d="M316.818 900.171C332.912 898.7 350.745 914.936 363.739 923.273C369.549 927.017 375.757 930.102 382.249 932.471C390.996 935.605 400.171 937.381 409.456 937.735C413.366 937.89 418.529 937.589 422.177 938.362L421.811 938.797C417.913 939.746 415.374 939.555 411.341 939.514C383.337 938.521 369.841 930.144 347.714 914.224C340.827 909.269 333.839 905.421 325.838 902.872C316.5 899.896 310.747 904.136 306.352 903.462L306.494 903.07C310.301 901.166 312.702 900.717 316.818 900.171Z"/>
<path fill="#FEFEFE" d="M914.801 524.082C925.682 525.474 938.004 537.268 944.893 545.171C943.67 550.004 943.119 552.773 940.207 556.952C937.992 558.606 937.166 558.766 934.57 559.689C931.185 557.957 928.465 556.116 925.822 553.34C920.994 548.27 908.18 530.407 914.801 524.082Z"/>
<path fill="#FEFEFE" d="M86.6196 610.589C92.5397 610.204 96.7783 610.085 101.508 614.28C107.533 619.623 105.924 625.753 101.224 630.978C90.1018 637.552 83.519 620.769 83.4514 612.297C84.3285 610.901 84.5376 611.251 86.6196 610.589Z"/>
</svg>