<?xml version="1.0" encoding="UTF-8"?>
<svg version="1.1" xmlns="http://www.w3.org/2000/svg" viewBox="0 0 1536 2048">
<!-- FIGURE: Main brass/gold body and face details - ANIMATE: subtle breathing scale -->
<path fill="#B4913E" d="M 631.841 992.357 C 608.881 972.673 602.11 939.293 599.905 910.358 C 596.302 863.068 607.037 810.487 638.666 773.816 C 658.465 750.861 684.451 741.003 714.167 739.018 C 732.074 737.822 750.239 738.6 768.19 738.773 C 794.275 739.024 822.361 736.612 847.633 744.115 C 861.763 748.311 874.446 756.117 885.422 765.864 C 916.109 793.117 933.407 831.9 935.612 872.618 C 937.199 901.898 934.023 940.389 921.323 967.057 C 916.734 976.692 910.402 984.881 903.901 993.259 C 906.021 1000.95 911.658 1015.6 907.71 1023.04 C 901.817 1034.16 871.816 1049.7 860.048 1055.61 C 859.693 1074.85 857.466 1096.42 860.601 1115.43 C 862.141 1124.76 867.669 1133.7 868.15 1143 C 868.208 1144.12 868.294 1145.24 868.341 1146.37 C 914.2 1152.89 998.53 1161.63 1038.57 1182.97 C 1046.61 1187.25 1053.72 1192.89 1059.28 1200.15 C 1069.21 1213.14 1073.02 1229.31 1070.83 1245.45 C 1066.71 1275.69 1037.89 1296.93 1018.28 1317.92 C 1007.51 1329.44 997.321 1341.93 987.454 1354.25 C 1008.55 1390.73 1027.44 1428.25 1047.39 1465.32 C 1058.28 1485.55 1070.33 1505.17 1080.67 1525.69 C 1047.8 1526.67 1014.76 1526.05 981.866 1526.08 C 977.648 1513.38 944.229 1415.99 941.214 1413.64 C 939.843 1414.62 938.996 1415.07 938.312 1416.67 C 937.076 1419.58 971.735 1514.22 975.748 1526.12 L 771.382 1525.95 L 771.005 1492.09 C 769.396 1492.38 766.943 1492.31 765.988 1493.67 C 761.994 1499.36 765.304 1518.35 764.518 1525.83 L 559.061 1525.86 C 564.351 1512.64 600.462 1419.16 598.018 1411.64 C 597.643 1410.48 597.55 1410.48 596.922 1409.64 L 595.3 1409.44 C 590.058 1418 587.461 1430.39 583.966 1439.97 L 553.022 1526.13 L 456.47 1526.08 C 466.341 1505.67 477.492 1486 488.124 1465.99 C 499.689 1444.23 510.668 1422.14 522.153 1400.33 C 531.848 1381.91 542.591 1363.29 550.782 1344.19 C 522.178 1321.7 470.445 1283.01 465.702 1244.61 C 463.781 1229.05 467.755 1213.05 477.506 1200.7 C 506.698 1163.73 587.485 1155.57 632.764 1150.61 A 849.124 849.124 0 0 1 666.887 1147.7 C 666.947 1147.31 667.003 1146.91 667.067 1146.51 C 668.607 1136.98 673.964 1128.68 675.652 1119.27 C 679.447 1098.13 677.495 1074.4 677.456 1052.96 C 661.432 1048.26 636.511 1036.26 628.62 1020.61 C 624.127 1011.7 628.648 1000.95 631.841 992.357 z"/>
<path fill="#B4913E" d="M 768.247 1026.45 C 775.147 1025.78 783.106 1027.49 789.819 1028.97 C 793.56 1029.8 799.319 1030.8 801.471 1034.21 L 800.727 1035.96 C 792.756 1040.87 779.014 1040.23 769.889 1040.86 C 760.666 1040.46 742.948 1040.75 735.633 1035.25 L 735.55 1033.5 C 742.595 1027.25 758.969 1026.92 768.247 1026.45 z"/>
<path fill="#B4913E" d="M 799.95 919.111 C 812.912 917.86 827.128 919.515 840.128 920.622 C 845.248 921.058 851.036 921.345 854.507 925.472 L 853.912 927.692 C 850.956 931.118 846.273 932.674 842.225 934.479 A 56.4233 56.4233 0 0 1 832.057 936.956 C 821.25 938.6 801.04 938.435 791.959 931.772 C 791.165 930.218 790.497 929.745 790.873 927.957 C 791.728 923.884 796.728 921.247 799.95 919.111 z"/>
<path fill="#B4913E" d="M 725.058 918.419 C 730.338 918.374 737.133 919.297 741.611 922.338 C 743.762 923.798 744.165 924.981 744.713 927.417 C 744.032 929.673 743.32 930.889 741.377 932.299 C 731.031 939.81 711.075 938.679 699.222 936.765 C 690.529 934.716 681.531 929.862 675.224 923.537 C 691.207 920.385 708.791 919.03 725.058 918.419 z"/>
<!-- Figure outline details in acid green -->
<path fill="#CCFF00" d="M 712.984 851.284 C 727.136 850.412 746.816 851.164 757.085 839.52 C 761.966 833.985 763.469 826.621 762.898 819.431 C 762.451 813.804 760.594 808.011 759.193 802.544 L 759.962 802.585 C 764.369 809.885 767.866 819.222 765.859 827.835 C 763.948 836.036 758.163 843.767 750.918 847.991 C 741.939 853.226 731.253 854.073 721.077 854.104 C 707.735 856.575 691.661 855.124 678.012 855.205 C 677.114 887.03 667.152 891.628 653.262 917.889 L 652.694 918.976 C 655.138 938.336 663.079 955.951 667.809 974.746 C 676.209 1008.13 674.736 1041.08 697.848 1069.65 C 713.053 1088.45 735.354 1101.68 759.584 1104.03 C 784.574 1106.45 807.449 1098.25 826.524 1082.15 C 861.909 1052.29 857.818 1011.63 868.706 971.381 C 873.451 953.839 882.134 937.198 883.579 918.943 C 867.126 892.435 860.958 888.056 858.749 855.39 C 835.454 853.998 800.712 859.977 780.843 845.523 C 774.82 841.142 771.173 834.947 770.069 827.594 C 768.784 819.028 770.976 808.528 776.268 801.648 L 777.532 801.863 C 777.976 806.556 773.205 813.614 772.706 819.276 C 772.096 826.194 773.354 833.479 778.05 838.852 C 793.064 856.031 837.234 850.79 858.864 852.658 C 867.509 846.004 876.476 834.581 886.115 830.14 C 879.064 839.453 870.591 847.15 861.709 854.652 C 864.091 887.229 870.803 892.582 886.875 918.728 C 885.225 936.816 876.966 953.255 872.35 970.693 C 863.341 1004.73 864.915 1040.54 842.287 1069.83 C 826.904 1089.74 803.978 1104.31 778.802 1107.27 A 90.7027 90.7027 0 0 1 711.742 1087.52 C 689.165 1069.41 676.524 1043.13 671.74 1015 C 669.537 1002.05 668.28 988.661 664.989 975.939 C 660.008 956.684 652.172 938.735 650.063 918.795 C 662.822 889.043 673.252 892.815 675.158 853.77 C 668.418 847.453 654.87 837.493 652.525 828.785 C 656.091 829.381 673.808 848.2 677.86 852.144 A 924.236 924.236 0 0 0 712.984 851.284 z"/>
<path fill="#CCFF00" d="M 667.539 1482.01 C 664.496 1458.13 655.253 1433.11 645.508 1411.21 C 610.787 1333.2 572.273 1297.1 511.987 1239.86 C 503.826 1232.11 484.265 1217.68 480.847 1207.86 C 481.688 1208.19 481.907 1208.23 482.759 1208.81 C 487.387 1211.98 491.904 1217.15 496.007 1221.01 L 527.328 1250.51 C 543.322 1265.54 559.979 1280.26 574.916 1296.34 A 393.535 393.535 0 0 1 671.66 1480.7 C 698.372 1479.47 725.329 1480.14 752.069 1480.1 A 6900.07 6900.07 0 0 1 863.442 1480.39 C 867.466 1454.19 879.015 1427.55 890.38 1403.81 C 920.896 1340.04 968.473 1285.23 1019.04 1236.39 C 1026.09 1229.57 1037.86 1215.7 1047.12 1212.44 C 1042.58 1222.28 1016.04 1244.38 1007.17 1253.51 C 942.841 1319.77 889.13 1389.63 866.906 1481.1 C 871.617 1481.07 876.335 1480.91 881.022 1481.45 L 882.333 1483.11 C 882.405 1485.6 882.585 1487.63 881.501 1489.96 C 879.144 1491.44 877.045 1491.93 874.281 1492.13 C 862.935 1492.96 850.795 1491.83 839.338 1491.94 C 816.673 1492.16 793.646 1493.2 771.005 1492.09 C 769.396 1492.38 766.943 1492.31 765.988 1493.67 C 761.994 1499.36 765.304 1518.35 764.518 1525.83 C 763.495 1515.03 764.271 1503.58 764.308 1492.7 C 742.376 1493.25 720.301 1492.3 698.354 1492.15 C 686.526 1492.07 665.606 1494.1 655.144 1491.3 C 654.134 1488.57 654.388 1486.82 654.856 1483.98 C 658.14 1482.01 663.729 1482.3 667.539 1482.01 z"/>
<path fill="#CCFF00" d="M 752.899 976.511 C 752.69 964.323 754.961 916.27 747.204 908.186 C 740.617 901.32 727.179 899.88 718.199 899.92 C 705.376 899.977 688.729 903.774 679.723 913.71 C 677.935 915.682 676.649 916.766 676.799 919.434 C 691.161 919.562 722.028 911.894 734.505 916.549 C 739.313 918.342 746.755 921.85 748.441 927.025 C 749.14 929.172 748.553 931.174 747.238 932.942 C 744.322 936.862 737.394 938.313 732.825 939.188 C 716.888 942.241 694.178 942.571 680.342 932.556 C 676.774 929.974 673.147 926.688 672.688 922.032 C 672.284 917.941 674.568 914.241 677.292 911.4 C 686.845 901.44 703.875 897.046 717.244 896.749 C 727.278 896.525 741.76 897.892 749.187 905.486 C 752.161 908.528 753.334 912.11 754.143 916.196 C 756.818 929.697 755.734 965.009 756.063 980.554 C 753.181 981.606 749.911 982.83 747.543 984.816 C 743.297 988.378 742.915 993.389 742.326 998.503 C 744.361 1001.09 745.436 1002.43 748.652 1003.36 C 751.231 1003.05 752.778 1002.15 754.43 1000.09 C 755.566 998.67 756.512 997.056 757.456 995.507 C 761.872 997.258 764.818 998.597 769.625 997.748 C 772.594 997.223 775.496 996.478 778.206 997.81 L 780.416 1001.97 C 784.38 1002.93 786.665 1003.13 790.413 1001.44 C 791.418 997.674 792.138 994.157 790.881 990.34 C 789.723 986.825 785.705 983.81 782.525 982.217 L 778.138 980.033 A 708.058 708.058 0 0 1 779.459 923.203 C 779.709 916.232 778.903 910.358 784.543 905.353 C 793.606 897.311 810.032 896.134 821.535 897.13 C 833.676 898.181 848.531 903.134 856.479 912.909 C 858.916 915.906 861.218 919.88 860.824 923.889 C 860.487 927.326 858.21 929.852 855.511 931.795 C 840.769 942.403 819.102 942.361 802.081 939.096 C 796.311 937.99 790.269 936.614 786.706 931.581 C 786.396 928.191 786.663 926.8 788.932 923.992 C 793.791 917.979 799.894 916.131 807.318 915.566 C 824.069 914.291 843.06 917.532 859.491 920.766 C 849.684 908.839 837.507 901.911 822.005 900.32 C 811.933 899.286 796.152 899.64 787.999 906.47 C 781.708 911.739 782.7 919.872 781.984 927.329 C 781.682 943.99 780.781 960.615 781.06 977.284 C 786.921 980.039 792.715 983.843 794.845 990.383 C 795.819 993.373 795.497 997.981 794.288 1000.89 C 794.208 1001.09 794.056 1001.24 793.94 1001.42 C 791.478 1004.02 789.069 1006.64 785.205 1006.57 C 782.153 1006.52 779.351 1004.45 777.085 1002.6 L 776.035 1001.47 C 774.54 1002.25 772.764 1003.06 771.475 1004.15 C 768.093 1007.01 769.473 1018.5 769.463 1022.74 A 109.007 109.007 0 0 1 778.192 1023.44 C 784.682 1024.24 799.136 1026.53 803.246 1032.32 C 804.626 1034.26 804.273 1034.8 803.907 1037.02 C 801.647 1039.49 799.587 1040.53 796.349 1041.42 C 784.469 1044.7 745.2 1045.59 734.922 1038.83 C 732.663 1037.35 732.224 1036.34 731.811 1033.77 C 732.281 1032.84 732.7 1031.97 733.434 1031.21 C 739.107 1025.38 756.84 1023.17 764.77 1022.99 L 766.187 1022.96 C 766.307 1016.34 767.537 1007.52 764.108 1001.71 C 756.741 997.83 755.905 1006.34 749.358 1006.88 C 745.641 1007.19 743.136 1004.42 740.655 1002.08 C 739.631 998.557 739.051 995.108 739.812 991.456 C 741.355 984.053 746.947 980.253 752.899 976.511 z"/>
<!-- Legs in acid green -->
<path fill="#CCFF00" d="M 152.942 1349.29 C 153.514 1335.35 156.666 1323.07 167.203 1313.26 C 175.975 1305.09 187.618 1301.26 199.521 1301.78 C 211.512 1302.31 222.278 1307.26 230.298 1316.22 C 237.768 1324.56 242.634 1336.97 241.947 1348.26 C 241.92 1348.71 241.873 1349.17 241.835 1349.62 C 238.045 1364.96 234.993 1376.24 222.945 1387.26 C 223.026 1418.75 226.379 1450.36 228.208 1481.79 L 238.248 1653.95 L 242.229 1716.44 C 242.882 1726.74 244.548 1738.29 243.883 1748.53 C 237.713 1749.94 218.422 1743.69 210.638 1742.86 A 132.72 132.72 0 0 0 181.428 1743.05 C 175.773 1743.68 151.312 1750.28 148.92 1749.56 C 147.974 1747.35 167.504 1409.31 169.871 1385.68 C 160.066 1374.08 155.382 1364.29 152.942 1349.29 z"/>
<path fill="#CCFF00" d="M 1292.01 1353.86 C 1290.89 1341.17 1293.07 1329.31 1301.53 1319.38 C 1309.67 1309.84 1321.63 1304.51 1334.03 1303.67 C 1345.52 1302.89 1356.79 1305.42 1365.59 1313.16 C 1376.47 1322.74 1379.32 1335.34 1380.3 1349.2 C 1378.28 1362.71 1374.88 1371.14 1367.37 1382.5 C 1369.85 1399.44 1369.72 1417.06 1370.61 1434.16 A 9499.31 9499.31 0 0 1 1375.78 1536.5 L 1383.96 1683.06 C 1385.07 1705.42 1387.24 1728.17 1386.89 1750.52 C 1380.66 1752.51 1365.18 1745.03 1358.35 1743.83 C 1347.7 1741.95 1334.28 1742.39 1323.53 1743.42 C 1316.91 1744.05 1299.23 1749.28 1294.02 1747.59 C 1293.7 1736.89 1295.28 1725.52 1295.86 1714.79 L 1299.04 1648.72 L 1305.5 1510.02 C 1307.69 1466.63 1310.32 1423.01 1311.12 1379.57 C 1301.91 1372.07 1296.35 1364.99 1292.01 1353.86 z"/>
</svg>

