<?xml version="1.0" encoding="UTF-8"?>
<svg version="1.1" xmlns="http://www.w3.org/2000/svg" viewBox="0 0 1536 2048">
<!-- PALMS: Clay colored palm trees & decorative elements - ANIMATE: gentle sway -->
<!-- Feet -->
<path fill="#965846" d="M 148.92 1749.56 C 151.312 1750.28 175.773 1743.68 181.428 1743.05 A 132.72 132.72 0 0 1 210.638 1742.86 C 218.422 1743.69 237.713 1749.94 243.883 1748.53 C 249.787 1754.63 268.748 1759.92 277.036 1764.56 C 289.997 1771.8 298.839 1782.68 310.15 1791.81 C 309.629 1793.59 309.304 1795.16 308.226 1796.71 C 304.949 1805.07 230.74 1938.37 228.465 1940.49 C 227.973 1940.95 227.29 1941.15 226.702 1941.48 C 226.48 1941.58 226.265 1941.69 226.036 1941.78 C 223.871 1942.55 75.6994 1943.85 63.9979 1942.75 C 62.5771 1942.62 61.4885 1942.17 60.1726 1941.66 C 51.7445 1927.47 50.122 1902.77 50.6381 1886.19 A 149.448 149.448 0 0 1 118.952 1766.26 C 126.468 1761.39 142.181 1756.4 147.897 1750.64 C 148.247 1750.29 148.579 1749.92 148.92 1749.56 z"/>
<path fill="#965846" d="M 1294.02 1747.59 C 1299.23 1749.28 1316.91 1744.05 1323.53 1743.42 C 1334.28 1742.39 1347.7 1741.95 1358.35 1743.83 C 1365.18 1745.03 1380.66 1752.51 1386.89 1750.52 C 1387.27 1750.85 1387.64 1751.2 1388.02 1751.53 C 1395.57 1758 1410.7 1761.79 1419.69 1767.69 C 1458.04 1792.86 1481.21 1836.04 1485.97 1881.06 C 1487.41 1894.74 1485.83 1929.67 1477.88 1940.9 C 1477.78 1941.04 1477.66 1941.17 1477.55 1941.3 C 1476.15 1942.03 1475.17 1942.46 1473.56 1942.53 C 1455.03 1943.31 1436.05 1942.25 1417.46 1942.34 L 1346.85 1942.73 C 1335.78 1942.79 1319.49 1944.91 1308.97 1941.98 L 1307.81 1941.72 C 1305.64 1939.84 1232.52 1808.16 1227.8 1796.73 L 1225.76 1791.72 L 1225.89 1791.06 C 1237.09 1781.87 1246.79 1771.53 1259.26 1763.9 C 1267.52 1758.85 1288.86 1753.6 1294.02 1747.59 z"/>
<!-- Decorative palm/organic shapes -->
<path fill="#965846" d="M 160.477 1211.28 C 165.479 1188.84 173.115 1167.55 193.371 1154.46 C 200.906 1149.59 212.746 1143.99 221.944 1145.35 L 223.512 1146.83 C 223.185 1158.74 199.854 1164.92 201.215 1191.68 L 202.077 1192.28 C 206.038 1186.45 210.618 1171.46 218.303 1170.06 C 219.8 1169.79 221.217 1170.22 222.503 1171.03 C 224.215 1172.1 225.383 1174.27 225.676 1176.23 C 226.476 1181.58 223.804 1187.13 228.207 1191.36 C 231.281 1190.56 232.658 1187.45 234.223 1184.78 C 237.273 1179.6 240.078 1173.79 243.759 1169.04 C 256.183 1153 275.888 1140.1 295.425 1135.02 C 335.981 1124.47 384.059 1133.41 419.844 1154.77 C 423.026 1156.66 426.496 1158.69 428.112 1162.15 L 427.403 1164.23 C 426.55 1164.6 425.036 1165.54 424.173 1165.65 C 419.967 1166.19 412.339 1162.7 407.951 1161.57 C 397.71 1158.94 386.554 1157.38 376 1156.57 C 336.484 1153.54 277.859 1167.48 261.874 1208.07 A 69.5797 69.5797 0 0 0 261.041 1210.27 C 267.149 1205.48 273.305 1200.19 280.078 1196.37 C 297.706 1186.43 322.036 1182.56 342.005 1185.01 C 371.666 1188.64 399.681 1206.09 418.049 1229.44 C 420.129 1232.09 422.993 1235.89 422.616 1239.41 C 422.423 1241.21 421.617 1241.48 420.398 1242.7 C 408.944 1246.65 392.848 1238.72 381.19 1236.62 C 353.587 1231.65 323.305 1238.37 309.879 1265.45 C 308.883 1267.46 308.042 1269.55 307.221 1271.64 C 333.595 1275.32 362.962 1280.36 379.989 1303.19 C 395.05 1323.39 388.762 1339.22 396.449 1358.87 C 398.569 1364.29 406.979 1372.5 407.078 1377.54 C 405.038 1378.87 403.808 1379.22 401.298 1378.88 C 384.914 1376.61 375.983 1354.86 364.309 1345 C 356.673 1338.56 348.139 1334.96 338.775 1331.75 C 354.224 1357.83 360.15 1392.5 352.643 1422.19 C 351.513 1426.66 350.236 1432.51 346.817 1435.8 L 344.696 1435.81 C 340.847 1431.65 339.369 1406.22 336.875 1398 C 332.924 1384.98 326.064 1372.25 317.687 1361.52 C 326.762 1391.5 319.591 1422.54 308.594 1450.91 C 306.537 1456.22 304.934 1461.93 302.253 1466.94 C 301.138 1469.03 300.154 1470.48 298.207 1471.82 L 296.243 1471.55 C 285.346 1456.93 321.131 1384.13 241.835 1349.62 C 241.873 1349.17 241.92 1348.71 241.947 1348.26 C 242.634 1336.97 237.768 1324.56 230.298 1316.22 C 222.278 1307.26 211.512 1302.31 199.521 1301.78 C 187.618 1301.26 175.975 1305.09 167.203 1313.26 C 156.666 1323.07 153.514 1335.35 152.942 1349.29 C 131.082 1372.07 122.834 1403.28 119.506 1433.93 C 119.047 1438.16 119.454 1444.3 115.524 1446.75 C 113.126 1445.7 112.387 1444.65 111.476 1442.15 C 106.465 1428.4 104.27 1411.97 104.511 1397.34 C 104.674 1387.49 108.523 1376.83 108.145 1367.38 C 108.071 1365.53 107.556 1365.17 106.391 1363.85 C 100.912 1361.92 93.5713 1365 88.5418 1367.39 C 80.1512 1371.37 71.585 1378.72 68.2684 1387.64 C 64.8442 1396.85 65.3502 1422.65 64.0064 1424.96 C 60.7229 1423.9 58.7334 1420.37 57.1792 1417.36 C 49.4844 1402.47 50.0758 1383.64 55.2312 1367.92 C 61.4564 1348.93 74.4996 1337.22 90.6837 1326.63 L 89.8943 1325.83 C 82.3654 1318.31 71.4129 1315.7 61.0082 1315.8 C 49.3911 1315.91 37.6723 1320.08 29.4792 1328.51 C 21.5655 1336.65 21.0247 1351.17 18.0974 1354.4 C 17.6443 1354.9 16.7562 1354.56 16.0856 1354.64 L 16.8545 1353.22 L 15.0504 1353.67 C 10.9933 1344.22 12.2641 1329.24 15.9817 1319.8 C 23.0816 1301.76 38.9152 1286.39 56.7132 1278.95 C 63.0259 1276.31 82.6381 1273.1 84.3362 1272.02 C 84.4021 1267.45 82.7906 1264.78 79.6699 1261.5 C 72.2415 1253.67 57.2401 1249.78 52.7353 1244.31 C 53.3258 1242.59 53.67 1242.37 55.4299 1241.59 C 58.7466 1240.13 62.7996 1239.54 66.3399 1238.79 C 84.7241 1234.87 95.9653 1241.79 112.997 1246.81 C 108.449 1233.39 102.003 1222.98 88.9212 1216.54 C 82.3811 1213.32 73.6906 1212.27 66.6297 1210.29 C 66.6999 1207.9 67.1573 1206.93 68.9895 1205.3 C 77.732 1197.52 107.406 1193.16 119.305 1194.59 C 135.31 1196.5 147.113 1202.97 160.477 1211.28 z"/>
<path fill="#965846" d="M 1292.01 1353.86 C 1247.97 1366.65 1242.89 1411.89 1244.07 1451.48 C 1244.28 1458.45 1246.59 1472.64 1242.87 1478.64 L 1241.08 1478.68 C 1229.45 1470.64 1219.01 1415.38 1217.68 1399.51 C 1217.09 1392.5 1218.2 1371.95 1215.92 1367.34 C 1200.06 1370.49 1198.04 1432.32 1190.37 1439.46 L 1188.53 1438.24 C 1180.46 1423.15 1178.48 1388.35 1181.28 1371.3 C 1183.03 1360.64 1187.77 1346.25 1186.65 1335.64 L 1184.26 1334.14 C 1164.13 1334.31 1151.81 1375.91 1135.22 1379.12 C 1132.95 1379.56 1132.04 1378.63 1130.31 1377.32 C 1134.33 1370.9 1138.92 1364.27 1141.21 1357 C 1146.31 1340.83 1143.64 1323.89 1152.81 1308.55 C 1167.35 1284.23 1190.94 1283.53 1215.4 1277 C 1219.03 1276.02 1224.56 1274.07 1226.27 1270.48 C 1227.42 1268.07 1227.05 1265.49 1226.09 1263.09 C 1223.37 1256.3 1217.04 1250.38 1211.18 1246.26 C 1173.47 1219.78 1129.21 1248.88 1116.26 1242.35 C 1114.49 1241.46 1114.54 1240.89 1114 1239.12 C 1118.53 1229.06 1131.72 1216.91 1140.12 1210.14 C 1170.28 1185.82 1215.27 1173.57 1250.46 1195 C 1256.25 1198.53 1266.35 1208.72 1272.31 1209.37 C 1272.77 1208.42 1273.06 1208.09 1273.02 1207.02 C 1272.72 1198.98 1268.17 1192.61 1262.37 1187.44 C 1235.8 1163.71 1187.54 1152.63 1152.41 1156.41 C 1140.84 1157.65 1126.2 1163.42 1115.5 1163.51 C 1112.85 1163.54 1110.85 1163.16 1108.93 1161.33 L 1109.11 1159.42 C 1111.93 1155.59 1116.04 1153.06 1120.13 1150.73 C 1155.07 1130.87 1202.41 1123.35 1241.35 1134.25 C 1269.07 1142.01 1286.95 1159.07 1300.63 1183.64 C 1302.31 1180.11 1304.01 1176.53 1306.84 1173.75 C 1309.41 1171.23 1312.99 1169.28 1316.69 1169.65 C 1328.53 1170.81 1327.3 1184.19 1332.84 1190.8 L 1334.08 1190.29 C 1335.54 1185.82 1336.35 1181.53 1335.65 1176.82 C 1333.07 1159.46 1318.41 1153.08 1306.02 1143.75 L 1305.33 1143.23 C 1310.75 1143.38 1316.24 1143.46 1321.57 1144.58 C 1348.69 1150.23 1367.51 1173.23 1372.12 1200.02 C 1373.16 1206.08 1372.53 1216.22 1375.86 1221.32 C 1378.14 1221.81 1378.66 1222.14 1380.75 1220.82 C 1384.18 1218.66 1387.12 1214.62 1389.9 1211.66 C 1397.65 1203.4 1408.87 1197.62 1420 1195.68 C 1438.89 1192.39 1458.02 1199.71 1473.2 1210.57 C 1465.27 1211.67 1457.44 1212.49 1449.96 1215.54 C 1432.51 1222.64 1422.98 1238.76 1415.81 1255.32 C 1429.45 1244.95 1443.63 1239.69 1460.94 1239.64 C 1470 1239.61 1484.19 1241.86 1490.89 1248.47 L 1490.15 1249.95 C 1486.2 1251.79 1481.8 1249.06 1477.65 1248.87 C 1468.81 1248.47 1457.99 1254.72 1451.78 1260.6 C 1448.89 1263.33 1446.28 1265.89 1446.15 1270.03 C 1450.78 1274.88 1468.52 1273.12 1475.65 1274.81 C 1488.92 1277.97 1502.36 1285.61 1511.97 1295.26 C 1519.86 1303.18 1525.65 1313.51 1525.46 1324.94 C 1525.25 1337.7 1517.73 1348.75 1508.78 1357.22 C 1509.09 1351.71 1510 1346.02 1508.87 1340.55 C 1507.04 1331.73 1502.38 1324.46 1494.7 1319.64 C 1483.54 1312.63 1468.35 1311.53 1455.75 1314.58 C 1450.31 1315.9 1444.5 1318.06 1441.49 1323.05 C 1441.42 1329.3 1449.52 1330.79 1454.31 1333.45 C 1466.67 1340.31 1474.96 1352.02 1479.81 1365.08 C 1486.52 1383.16 1487.58 1403.45 1479.1 1421.1 C 1477.8 1423.81 1476.76 1425.6 1473.91 1426.64 C 1469.59 1423.33 1473.14 1410.43 1471.88 1405.09 C 1469.75 1395.99 1465.89 1386.94 1459.97 1379.67 C 1455.34 1373.98 1449.42 1368.54 1441.74 1367.99 C 1437.08 1367.65 1434.71 1370.09 1431.33 1372.86 C 1432.33 1383.37 1433.4 1393.93 1432.9 1404.5 C 1432.45 1414.02 1428.53 1440.98 1420.38 1447.25 C 1418.52 1448.68 1417.34 1448.75 1415.13 1448.44 C 1410.22 1439.25 1412.64 1415.11 1411.34 1403.71 C 1408.46 1378.38 1399.74 1364.79 1380.3 1349.2 C 1379.32 1335.34 1376.47 1322.74 1365.59 1313.16 C 1356.79 1305.42 1345.52 1302.89 1334.03 1303.67 C 1321.63 1304.51 1309.67 1309.84 1301.53 1319.38 C 1293.07 1329.31 1290.89 1341.17 1292.01 1353.86 z"/>
<!-- Body overlay area -->
<path fill="#965846" d="M 490.548 861.809 C 493.352 850.594 494.846 838.96 497.449 827.66 A 264.595 264.595 0 0 1 531.115 745.457 A 279.224 279.224 0 0 1 704.844 620.868 C 778.668 603.499 853.614 618.133 917.607 657.819 C 969.372 689.922 1010.65 744.84 1030.31 802.162 C 1036.8 821.06 1040.33 840.717 1044.87 860.132 C 1037.07 866.971 1025.46 856.672 1013.99 876.041 A 246.773 246.773 0 0 0 939.415 713.817 C 892.436 668.142 831.262 642.891 765.592 643.868 C 701.195 644.826 636.744 671.397 591.758 717.877 C 559.141 751.577 537.774 790.154 527.81 836.021 C 525.124 848.385 522.748 861.576 522.976 874.259 C 522.378 874.78 521.765 874.968 521.037 875.264 C 512.412 866.673 502.341 863.604 490.548 861.809 z"/>
</svg>


