<?xml version="1.0" encoding="UTF-8"?>
<svg version="1.1" xmlns="http://www.w3.org/2000/svg" viewBox="0 0 1536 2048">
<!-- PATTERNS: Dark swirl decorative patterns - ANIMATE: gentle fade/glow -->
<path fill="#4A2219" d="M 128.977 524.73 C 150.485 506.226 180.24 486.454 208.18 479.691 L 210.877 480.969 L 211.68 479.59 L 210.015 479.354 L 210.782 481.194 C 202.252 488.906 191.831 491.624 181.838 496.683 C 166.017 504.692 149.329 514.743 136.144 526.676 L 133.089 526.67 L 128.977 524.73 z"/>
<path fill="#4A2219" d="M 1400.29 527.573 C 1379.88 509.097 1356.35 498.277 1331.73 486.872 C 1328.91 485.567 1327.28 484.519 1326.24 481.572 C 1327.2 480.445 1327.44 479.553 1328.98 479.375 C 1331.73 479.058 1337.2 482.105 1339.87 483.28 C 1365.26 494.452 1387.21 509.391 1408.74 526.722 C 1406.62 527.921 1404.08 528.901 1401.59 528.128 C 1401.14 527.988 1400.73 527.758 1400.29 527.573 z"/>
<path fill="#4A2219" d="M 123.168 529.361 C 125.529 529.825 128.034 530.15 130.273 531.024 C 108.944 552.907 76.1564 575.142 70.3909 607.37 C 65.934 632.284 76.715 652.956 90.468 672.752 A 279.124 279.124 0 0 1 208.015 585.512 L 210.236 586.983 L 210.838 585.237 L 209.437 585.161 L 210.495 586.744 C 208.997 589.499 205.37 592.105 202.701 593.772 C 197.722 596.88 191.818 598.49 186.601 601.255 A 328.541 328.541 0 0 0 147.432 625.676 C 118.438 647.047 75.8363 688.664 70.6302 725.383 C 67.7756 745.518 75.2724 762.741 87.0395 778.626 C 93.6123 769.235 101.436 760.577 109.484 752.433 C 127.215 734.492 185.465 688.073 209.779 688.283 C 210.984 688.293 210.416 688.167 211.513 689.289 C 204.87 696.264 189.506 701.2 180.813 706.026 A 312.221 312.221 0 0 0 153.916 722.767 C 122.282 744.73 77.1257 786.768 70.3075 826.223 C 66.5581 847.92 73.7266 864.883 86.1187 882.182 C 114.621 847.117 147.869 816.104 188.926 796.397 C 194.339 793.798 200.135 790.598 205.806 788.732 C 208.343 787.897 209.393 787.431 211.733 788.646 C 211.146 791.729 210.535 791.899 207.961 793.569 C 201.317 797.88 193.31 800.959 186.248 804.641 C 169.542 813.352 152.645 823.545 138.451 836.023 C 112.145 859.148 72.058 896.829 69.925 933.868 C 68.8909 951.825 75.7941 969.716 87.6231 983.098 C 96.1976 973.242 104.301 962.97 113.396 953.579 C 136.439 929.785 162.86 911.713 191.964 896.172 C 196.12 893.953 202.628 889.223 207.28 889.368 C 209.222 889.429 208.89 889.551 210.133 890.766 C 209.27 893.195 209.044 893.638 207.021 895.191 C 200.965 899.84 191.954 903.18 185.121 906.747 A 240.54 240.54 0 0 0 158.259 923.259 C 130.761 942.445 105.466 966.862 86.9134 994.884 C 72.9418 1015.99 63.5625 1038.89 71.756 1064.15 C 74.17 1071.6 78.6544 1078.52 80.1009 1086.22 C 80.1532 1086.5 80.1933 1086.78 80.2395 1087.06 L 80.3614 1086.69 L 79.1132 1089.52 C 78.4596 1089.43 78.754 1089.51 77.8599 1088.93 C 70.8756 1084.36 66.4711 1067.99 64.8699 1060.4 C 59.1296 1033.2 69.3067 1010.99 84.0028 988.771 A 80.2714 80.2714 0 0 1 65.0939 949.473 C 61.0975 926.379 69.2548 906.239 82.4325 887.632 C 74.0873 877.73 67.7772 864.712 65.0249 852.081 C 59.454 826.514 69.1908 805.18 82.8487 784.221 C 75.5341 772.433 68.5013 761.503 65.7229 747.664 C 60.4072 721.185 72.0338 698.96 86.1962 677.557 C 72.6839 658.9 62.3003 637.889 63.7364 614.241 C 65.8228 579.884 98.8847 550.668 123.168 529.361 z"/>
<path fill="#4A2219" d="M 1407.15 532.297 C 1409.03 531.388 1411.31 530.795 1413.3 530.102 C 1437.5 552.754 1469.75 580.561 1471.01 616.107 C 1471.87 640.101 1462.7 658.722 1449.31 677.85 C 1463.12 697.215 1474 719.617 1470.11 744.042 C 1467.78 758.748 1460.63 772.44 1452.78 784.913 C 1466.7 807.523 1475.02 827.075 1468.47 854.101 C 1465.42 866.661 1459.53 877.048 1451.85 887.313 C 1465.3 906.751 1474.07 927.533 1469.67 951.586 C 1467.25 964.845 1460.68 979.197 1451.73 989.332 C 1465.51 1014.09 1477.84 1036.88 1469.69 1066.13 C 1467.82 1072.85 1464.34 1085.98 1458.15 1089.97 C 1456.58 1089.65 1456.46 1089.8 1455.21 1088.66 C 1456.81 1081.55 1461.02 1074.98 1463.18 1067.9 C 1471.61 1040.15 1462.09 1017.19 1447.25 993.825 C 1431.21 968.572 1409.69 947.044 1385.73 929.285 C 1376.03 922.096 1366.06 914.934 1355.53 908.993 C 1347.92 904.693 1339.56 901.168 1332.26 896.398 C 1329.86 894.824 1328.22 893.251 1326.66 890.831 L 1327.04 889.571 C 1347.92 889.792 1405.13 935.853 1420.77 951.865 A 366.609 366.609 0 0 1 1448.46 984.085 C 1460.77 965.51 1468.34 947.074 1463.65 924.535 C 1455.36 884.674 1398.2 832.04 1364.99 810.557 C 1356.62 805.144 1330.18 794.255 1326.3 786.986 L 1326.7 784.896 C 1332.53 784.934 1339.03 789.077 1344.14 791.755 A 293.364 293.364 0 0 1 1417.59 845.89 C 1428.85 857.302 1438.78 869.055 1448.44 881.843 C 1460.36 865.053 1467.72 844.938 1464.06 824.166 C 1457.31 785.827 1407.91 739.721 1376.73 718.34 C 1367.32 711.882 1357.5 705.789 1347.32 700.614 C 1341.56 697.686 1334.95 695.381 1329.56 691.911 C 1327.2 690.386 1326.4 689.727 1325.4 687.145 C 1326.48 685.984 1326.49 685.409 1328.19 685.335 C 1332.46 685.146 1339.5 689.745 1343.33 691.696 C 1375.36 707.99 1402.69 728.408 1427.34 754.54 C 1434.66 762.294 1441.93 770.25 1448.57 778.59 C 1460.17 761.138 1468.09 742.664 1463.85 721.329 C 1455.53 679.488 1401.37 632.978 1366.82 610.37 C 1354.7 602.436 1335.74 594.893 1325.84 586.467 L 1326.27 585.286 C 1342.3 583.874 1386.46 615.405 1400 626.778 C 1416.56 640.688 1431.3 656.415 1445.02 673.093 C 1458.96 654.208 1468.14 633.975 1464.7 609.906 C 1460.42 580.042 1428.51 551.716 1407.15 532.297 z"/>
<path fill="#4A2219" d="M 775.018 263.39 L 779.485 263.211 C 846.053 264.936 909.362 278.049 969.986 305.936 L 974.555 307.792 C 1027.88 336.955 1064.06 363.137 1107.72 405.648 L 1111.21 409.154 C 1151.57 454.76 1187.22 509.165 1208.43 566.432 L 1210.39 570.65 C 1246.21 662.299 1255.17 767.164 1231.43 863.052 C 1231.04 863.353 1230.47 863.273 1229.98 863.343 C 1222.86 858.132 1214.68 853.637 1207.99 847.963 C 1227.07 759.323 1221.28 659.163 1184.52 575.6 L 1182.13 570.321 C 1157.78 512.557 1130.38 470.866 1088.54 424.42 L 1085.5 421.096 C 1050.91 383.032 1005.82 354.409 960.566 330.853 L 957.073 329.177 C 905.094 306.472 854.195 293.954 797.391 291.745 C 790.117 290.83 782.406 291.144 775.065 290.973 C 713.656 290.794 655.068 304.585 598.544 327.983 L 594.756 329.658 C 545.83 352.156 502.95 381.266 464.202 418.779 L 460.077 422.884 C 418.142 465.239 383.141 514.692 360.468 570.066 L 358.453 574.132 C 319.966 668.802 314.364 747.021 333.934 846.774 C 330.421 849.313 313.011 861.387 310.302 861.139 C 285.195 763.045 295.967 664.116 331.615 570.364 C 332.343 568.839 332.821 567.08 333.39 565.481 C 355.056 517.819 380.17 474.551 414.023 434.444 C 421.328 425.79 428.722 416.661 437.011 408.946 L 441.434 409.92 L 442.299 409.169 L 440.664 405.886 C 486.187 358.789 524.114 335.946 580.961 306.257 L 585.306 304.194 C 641.916 277.505 712.419 262.147 775.018 263.39 z"/>
</svg>

