<?xml version="1.0" encoding="UTF-8"?>
<svg version="1.1" xmlns="http://www.w3.org/2000/svg" viewBox="0 0 1536 2048">
<!-- GROUND: Floor tiles and base - STATIC (no animation) -->
<path fill="#4A2219" d="M 553.022 1526.13 L 583.966 1439.97 C 587.461 1430.39 590.058 1418 595.3 1409.44 L 596.922 1409.64 C 597.55 1410.48 597.643 1410.48 598.018 1411.64 C 600.462 1419.16 564.351 1512.64 559.061 1525.86 L 764.518 1525.83 C 765.304 1518.35 761.994 1499.36 765.988 1493.67 C 766.943 1492.31 769.396 1492.38 771.005 1492.09 L 771.382 1525.95 L 975.748 1526.12 C 971.735 1514.22 937.076 1419.58 938.312 1416.67 C 938.996 1415.07 939.843 1414.62 941.214 1413.64 C 944.229 1415.99 977.648 1513.38 981.866 1526.08 C 1014.76 1526.05 1047.8 1526.67 1080.67 1525.69 L 1083.98 1531.69 C 1089.38 1539.02 1093.3 1547.94 1097.54 1555.99 A 4199.31 4199.31 0 0 0 1119.37 1597.13 L 1202.5 1749.94 C 1207.26 1758.67 1220.25 1785.91 1225.89 1791.06 L 1225.76 1791.72 L 1227.8 1796.73 C 1232.52 1808.16 1305.64 1939.84 1307.81 1941.72 L 1308.97 1941.98 C 1311.22 1948.43 1361.45 2040.42 1366.93 2046.65 C 1366.23 2046.99 1365.77 2047.25 1365.04 2047.46 C 1358.95 2049.24 1189.43 2048.6 1172.62 2047.91 C 1170.42 2047.82 1169.04 2047.46 1167.07 2046.46 C 1163.65 2047.65 1163.47 2047.69 1160.06 2046.52 C 1159.21 2046.92 1158.66 2047.23 1157.78 2047.48 C 1150.3 2049.59 1078.59 2048.03 1066.26 2048.03 C 971.007 2048.05 875.568 2049.26 780.34 2047.98 C 776.848 2047.93 774.254 2048.09 771.137 2046.32 C 768.218 2047.09 767.824 2047.4 764.883 2046.31 C 764.154 2046.72 763.525 2047.13 762.734 2047.4 C 757.572 2049.13 412.068 2048.67 382.947 2047.94 C 380.165 2047.87 378.395 2047.65 375.881 2046.37 C 372.529 2047.69 372.391 2047.67 368.956 2046.58 C 367.494 2047.19 366.082 2047.72 364.492 2047.88 C 356.268 2048.67 347.462 2048.05 339.171 2048.05 L 288.753 2048.07 C 250.835 2048.07 212.26 2049.57 174.404 2047.93 C 172.376 2047.84 171.016 2047.46 169.15 2046.72 C 169.325 2046.62 169.514 2046.54 169.675 2046.42 C 172.995 2043.96 224.784 1948.88 226.702 1941.48 C 227.29 1941.15 227.973 1940.95 228.465 1940.49 C 230.74 1938.37 304.949 1805.07 308.226 1796.71 C 309.304 1795.16 309.629 1793.59 310.15 1791.81 L 310.953 1791.52 C 324.303 1765.73 339.021 1740.51 353.013 1715.05 L 423.641 1585.38 C 433.235 1567.77 443.429 1550.55 452.591 1532.7 L 456.47 1526.08 L 553.022 1526.13 z"/>
<path fill="#B4913E" d="M 452.591 1532.7 C 484.837 1530.36 518.411 1531.77 550.788 1532.08 L 484.027 1719.55 C 480.322 1730.18 462.78 1785.01 459.147 1790.69 C 452.457 1793.36 326.106 1792.79 310.953 1791.52 C 324.303 1765.73 339.021 1740.51 353.013 1715.05 L 423.641 1585.38 C 433.235 1567.77 443.429 1550.55 452.591 1532.7 z"/>
<path fill="#B4913E" d="M 1083.98 1531.69 C 1089.38 1539.02 1093.3 1547.94 1097.54 1555.99 A 4199.31 4199.31 0 0 0 1119.37 1597.13 L 1202.5 1749.94 C 1207.26 1758.67 1220.25 1785.91 1225.89 1791.06 L 1225.76 1791.72 C 1211.88 1793.17 1082.31 1792.67 1077.21 1790.64 C 1073.7 1786.15 1059.24 1741.57 1056.41 1733.63 C 1032.5 1666.47 1009.56 1598.79 984.474 1532.07 C 1017.5 1532.06 1051.01 1533.11 1083.98 1531.69 z"/>
<path fill="#B4913E" d="M 308.226 1796.71 C 314.544 1798.88 450.753 1798.69 457.291 1796.37 C 449.189 1825.06 434.913 1859.27 424.727 1888.13 C 406.111 1940.88 388.483 1994.19 368.956 2046.58 C 367.494 2047.19 366.082 2047.72 364.492 2047.88 C 356.268 2048.67 347.462 2048.05 339.171 2048.05 L 288.753 2048.07 C 250.835 2048.07 212.26 2049.57 174.404 2047.93 C 172.376 2047.84 171.016 2047.46 169.15 2046.72 C 169.325 2046.62 169.514 2046.54 169.675 2046.42 C 172.995 2043.96 224.784 1948.88 226.702 1941.48 C 227.29 1941.15 227.973 1940.95 228.465 1940.49 C 230.74 1938.37 304.949 1805.07 308.226 1796.71 z"/>
<path fill="#B4913E" d="M 1079.5 1796.26 C 1084.29 1798.52 1221.22 1799.02 1227.8 1796.73 C 1232.52 1808.16 1305.64 1939.84 1307.81 1941.72 L 1308.97 1941.98 C 1311.22 1948.43 1361.45 2040.42 1366.93 2046.65 C 1366.23 2046.99 1365.77 2047.25 1365.04 2047.46 C 1358.95 2049.24 1189.43 2048.6 1172.62 2047.91 C 1170.42 2047.82 1169.04 2047.46 1167.07 2046.46 C 1163 2035.63 1159.66 2024.47 1155.73 2013.58 L 1111.84 1890.76 C 1100.85 1859.52 1087.69 1828.36 1079.5 1796.26 z"/>
<path fill="#B4913E" d="M 771.4 1532.02 L 978.202 1532.02 C 983.872 1549.46 990.743 1566.61 996.858 1583.91 L 1046.14 1722.25 C 1053.39 1742.68 1065.3 1770.86 1070.33 1790.74 C 1062.11 1793.69 894.482 1791.73 872.547 1791.73 C 840.84 1791.74 808.466 1793.33 776.838 1791.82 C 774.802 1791.72 773.28 1791.33 771.428 1790.46 L 771.4 1532.02 z"/>
<path fill="#B4913E" d="M 556.711 1532.09 L 764.519 1531.97 L 764.526 1790.3 C 763.92 1790.63 763.283 1791.04 762.612 1791.26 C 757.316 1793.02 691.235 1791.9 681.949 1791.1 C 680.154 1790.95 679.028 1790.38 677.49 1789.52 C 676.655 1789.99 675.856 1790.47 674.929 1790.75 C 668.668 1792.64 589.154 1791.17 575.449 1791.18 C 541.154 1791.2 506.626 1792.59 472.355 1791.69 C 469.683 1791.62 467.654 1791.39 465.303 1790 C 468.028 1786.92 548.737 1554.18 556.711 1532.09 z"/>
<path fill="#B4913E" d="M 463.385 1796.06 C 466.219 1797.39 468.631 1797.47 471.706 1797.54 C 543.364 1799.1 615.308 1797.85 687.001 1797.84 C 700.77 1797.84 755.561 1799.44 762.644 1797.21 C 763.323 1796.99 763.962 1796.61 764.585 1796.29 L 764.477 1970.22 L 764.486 2018.55 C 764.473 2027.57 763.802 2037.37 764.883 2046.31 C 764.154 2046.72 763.525 2047.13 762.734 2047.4 C 757.572 2049.13 412.068 2048.67 382.947 2047.94 C 380.165 2047.87 378.395 2047.65 375.881 2046.37 C 394.626 1988.7 415.564 1931.42 435.973 1874.31 L 452.762 1827.64 C 456.509 1817.36 461.032 1806.75 463.385 1796.06 z"/>
<path fill="#B4913E" d="M 771.387 1796.28 C 773.913 1797.47 775.696 1797.64 778.468 1797.69 C 848.32 1799.03 918.439 1797.75 988.318 1797.75 C 1001.45 1797.75 1062.5 1799.56 1070.83 1797.02 C 1071.7 1796.76 1072.49 1796.38 1073.29 1795.94 C 1079.03 1821.94 1090.44 1848.25 1099.34 1873.42 C 1119.71 1931 1141.51 1988.35 1160.06 2046.52 C 1159.21 2046.92 1158.66 2047.23 1157.78 2047.48 C 1150.3 2049.59 1078.59 2048.03 1066.26 2048.03 C 971.007 2048.05 875.568 2049.26 780.34 2047.98 C 776.848 2047.93 774.254 2048.09 771.137 2046.32 C 772.575 2019.74 771.006 1992.5 771.056 1965.85 L 771.387 1796.28 z"/>
</svg>


