<?xml version="1.0" encoding="UTF-8"?>
<svg version="1.1" xmlns="http://www.w3.org/2000/svg" style="display: block;" viewBox="0 0 1536 2048">
<path transform="translate(0,0)" fill="#4A2219" d="M 128.977 524.73 C 150.485 506.226 180.24 486.454 208.18 479.691 L 210.877 480.969 L 211.68 479.59 L 210.015 479.354 L 210.782 481.194 C 202.252 488.906 191.831 491.624 181.838 496.683 C 166.017 504.692 149.329 514.743 136.144 526.676 L 133.089 526.67 L 128.977 524.73 z"/>
<path transform="translate(0,0)" fill="#4A2219" d="M 1400.29 527.573 C 1379.88 509.097 1356.35 498.277 1331.73 486.872 C 1328.91 485.567 1327.28 484.519 1326.24 481.572 C 1327.2 480.445 1327.44 479.553 1328.98 479.375 C 1331.73 479.058 1337.2 482.105 1339.87 483.28 C 1365.26 494.452 1387.21 509.391 1408.74 526.722 C 1406.62 527.921 1404.08 528.901 1401.59 528.128 C 1401.14 527.988 1400.73 527.758 1400.29 527.573 z"/>
<path transform="translate(0,0)" fill="#CCFF00" d="M 1440.97 519.395 C 1445.5 518.111 1449.96 516.364 1454.67 517.588 L 1455.64 518.825 C 1452.8 521.639 1448.79 522.038 1445.01 522.771 C 1437.28 524.523 1428.92 527.113 1421.08 528.008 C 1418.54 528.678 1415.75 529.18 1413.3 530.102 C 1411.31 530.795 1409.03 531.388 1407.15 532.297 C 1402.52 529.717 1383.76 535.12 1377.97 536.592 L 1371.74 537.582 L 1367.6 538.806 C 1362.06 539.521 1356.62 540.558 1351.14 541.637 C 1336.43 544.722 1321.55 547.268 1306.88 550.54 L 1294.08 553.084 L 1290.09 553.779 A 1203.72 1203.72 0 0 1 1250.79 561.679 C 1239.61 564.063 1228.45 566.596 1217.23 568.773 L 1210.39 570.65 L 1208.43 566.432 L 1214.89 564.853 C 1225.98 563.107 1236.81 559.945 1247.96 558.327 C 1260.68 554.892 1274.2 552.932 1287.15 550.332 L 1291.11 549.193 L 1302.2 547.187 C 1316.79 543.343 1332.24 541.049 1347.08 538.221 A 354.221 354.221 0 0 1 1362.93 535.253 C 1364.85 534.602 1366.92 534.435 1368.92 534.159 L 1373.22 533.303 C 1382.16 531.081 1391.34 529.865 1400.29 527.573 C 1400.73 527.758 1401.14 527.988 1401.59 528.128 C 1404.08 528.901 1406.62 527.921 1408.74 526.722 L 1418.1 524.267 C 1425.7 522.367 1433.26 520.761 1440.97 519.395 z"/>
<path transform="translate(0,0)" fill="#CCFF00" d="M 774.824 0 L 779.2 0 C 779.419 28.9694 780.404 58.2439 779.23 87.1828 C 779.948 111.242 779.295 135.443 779.258 159.517 L 779.485 263.211 L 775.018 263.39 L 775.349 78.3753 L 774.824 0 z"/>
<path transform="translate(0,0)" fill="#CCFF00" d="M 92.1465 522.614 C 87.5889 522.034 82.1707 522.019 78.9047 518.386 L 79.7174 517.19 C 83.8613 516.309 87.4578 517.431 91.4858 518.383 L 99.5039 519.852 C 105.03 520.705 119.856 521.853 123.649 525.024 L 128.977 524.73 L 133.089 526.67 L 136.144 526.676 C 151.528 530.839 167.662 531.988 183.065 536.103 A 363.611 363.611 0 0 1 200.946 539.275 L 248.846 548.973 L 254.551 549.962 C 263.006 551.454 271.599 552.696 279.958 554.649 C 284.537 555.518 289.19 556.258 293.728 557.305 A 1347.88 1347.88 0 0 1 324.334 563.982 C 327.344 564.503 330.359 565.102 333.39 565.481 C 332.821 567.08 332.343 568.839 331.615 570.364 C 327.928 569.21 324.042 568.482 320.277 567.601 L 289.687 560.735 C 285.886 560.247 282.012 559.315 278.239 558.598 A 221.604 221.604 0 0 1 260.8 555.41 C 255.116 554.856 249.316 553.404 243.694 552.35 A 3902.68 3902.68 0 0 1 195.911 542.761 C 188.375 541.443 180.538 540.476 173.186 538.357 C 159.205 537.264 144.61 533.376 130.731 530.907 L 130.273 531.024 C 128.034 530.15 125.529 529.825 123.168 529.361 L 121.845 528.863 C 114.178 526.343 105.096 525.253 97.1411 523.811 L 92.1465 522.614 z"/>
<path transform="translate(0,0)" fill="#CCFF00" d="M 542.126 235.71 C 518.099 193.385 494.568 150.601 471.337 107.831 C 465.977 97.9626 460.717 88.0212 455.205 78.2374 C 451.929 72.4227 447.585 66.3789 445.074 60.2455 C 444.145 57.9751 443.516 56.3805 444.515 54.1615 C 447.868 55.8248 450.336 61.321 452.252 64.5252 C 461.151 79.4069 468.661 95.0755 477.209 110.16 C 500.205 150.743 523.452 191.363 545.41 232.514 A 2107.62 2107.62 0 0 1 585.306 304.194 L 580.961 306.257 C 573.126 285.539 553.499 256.316 542.126 235.71 z"/>
<path transform="translate(0,0)" fill="#CCFF00" d="M 1092.15 83.7548 C 1095.28 78.1227 1104.73 58.1183 1109.93 55.6111 L 1110.92 57.2231 C 1110.48 64.2312 1102.61 75.4526 1098.58 81.3694 C 1093.92 90.7782 1087.61 106.53 1080.76 114.16 C 1072.92 130.589 1063.57 148.996 1053.34 164.015 C 1051.29 167.76 1049.29 171.536 1047 175.144 L 1036.73 193.531 A 2596.37 2596.37 0 0 1 1020.72 222.654 L 974.555 307.792 L 969.986 305.936 A 3884.11 3884.11 0 0 1 1018.53 216.697 A 992.254 992.254 0 0 1 1033.28 190.666 C 1035.49 185.172 1039 179.699 1042.15 174.681 C 1044.7 169.644 1047.43 164.816 1050.39 160.007 C 1054.23 147.678 1067.72 128.056 1074.57 116.295 C 1079.93 105.213 1086.17 94.5152 1092.15 83.7548 z"/>
<path transform="translate(0,0)" fill="#CCFF00" d="M 1315.98 250.307 A 8197.18 8197.18 0 0 0 1439.24 158.357 C 1448.63 151.272 1485.26 121.053 1492.8 118.431 L 1494.31 119.174 C 1493.99 122.37 1490.12 124.944 1487.64 126.942 C 1472.7 138.997 1456.87 150.254 1441.62 161.955 A 4841.95 4841.95 0 0 1 1321 251.993 C 1313.47 257.625 1305.86 264.514 1297.82 269.291 A 590.645 590.645 0 0 1 1273.09 287.708 C 1265.84 293.61 1257.9 300.603 1249.84 305.275 C 1219.41 329.017 1187.57 351.329 1156.42 374.162 C 1144.77 382.703 1118.86 399.096 1111.21 409.154 L 1107.72 405.648 C 1125.06 389.925 1145.68 376.925 1164.56 363.077 C 1192.07 342.905 1219.03 321.974 1246.77 302.105 C 1252.12 295.468 1266.91 286.849 1274.41 281.447 A 713.218 713.218 0 0 1 1294.76 266.043 C 1299.55 260.153 1309.6 254.593 1315.98 250.307 z"/>
<path transform="translate(0,0)" fill="#CCFF00" d="M 62.3094 135.728 C 58.817 133.384 55.0968 131.077 51.8346 128.423 C 49.8204 126.784 48.838 125.287 48.5192 122.765 L 50.617 122.425 C 55.853 123.892 60.2411 128.064 64.4473 131.394 L 74.4207 138.733 C 79.6461 142.557 85.2834 146.215 90.1748 150.44 C 92.9996 152.208 95.6991 153.911 98.1982 156.139 C 101.198 158.258 104.764 160.317 107.347 162.913 L 112.957 166.747 L 117.246 170.112 C 134.549 182.551 151.401 195.713 168.985 207.742 L 175.027 212.222 C 178.86 214.925 184.076 217.764 187.286 221.084 C 189.766 222.865 192.322 224.59 194.736 226.458 C 199.498 229.93 204.827 233.271 209.136 237.274 A 423.237 423.237 0 0 1 227.069 250.221 A 1610.42 1610.42 0 0 0 263.595 276.795 L 279.864 288.675 C 288.405 295.006 302.116 303.086 309.092 310.281 C 312.046 312.301 315.131 314.235 317.927 316.465 C 330.331 324.036 341.445 333.643 353.54 341.672 C 364.392 349.703 375.99 357.295 386.27 366.016 C 404.402 378.654 424.262 391.093 440.664 405.886 L 442.299 409.169 L 441.434 409.92 L 437.011 408.946 C 425.957 396.644 396.244 378.431 382.03 368.514 C 372.435 361.92 362.575 355.297 353.68 347.778 C 339.759 339.506 326.367 327.953 313.037 318.581 C 310.225 316.7 307.541 314.534 304.821 312.516 C 295.435 308.123 285.862 299.299 277.592 293.052 L 260.614 280.663 C 249.529 273.103 237.542 265.598 227.619 256.532 C 219.769 251.632 212.404 245.213 205.088 239.525 C 198.905 235.412 193.051 230.887 187.157 226.378 L 184.034 224.607 L 176.202 218.964 L 166.611 211.981 A 3960.2 3960.2 0 0 0 114.876 174.404 L 106.088 168.006 L 103.032 165.637 L 97.2112 161.253 A 326.33 326.33 0 0 1 87.6929 154.007 C 81.2554 149.997 75.1082 144.904 68.9792 140.404 L 62.3094 135.728 z"/>
<path transform="translate(0,0)" fill="#4A2219" d="M 123.168 529.361 C 125.529 529.825 128.034 530.15 130.273 531.024 C 108.944 552.907 76.1564 575.142 70.3909 607.37 C 65.934 632.284 76.715 652.956 90.468 672.752 A 279.124 279.124 0 0 1 208.015 585.512 L 210.236 586.983 L 210.838 585.237 L 209.437 585.161 L 210.495 586.744 C 208.997 589.499 205.37 592.105 202.701 593.772 C 197.722 596.88 191.818 598.49 186.601 601.255 A 328.541 328.541 0 0 0 147.432 625.676 C 118.438 647.047 75.8363 688.664 70.6302 725.383 C 67.7756 745.518 75.2724 762.741 87.0395 778.626 C 93.6123 769.235 101.436 760.577 109.484 752.433 C 127.215 734.492 185.465 688.073 209.779 688.283 C 210.984 688.293 210.416 688.167 211.513 689.289 C 204.87 696.264 189.506 701.2 180.813 706.026 A 312.221 312.221 0 0 0 153.916 722.767 C 122.282 744.73 77.1257 786.768 70.3075 826.223 C 66.5581 847.92 73.7266 864.883 86.1187 882.182 C 114.621 847.117 147.869 816.104 188.926 796.397 C 194.339 793.798 200.135 790.598 205.806 788.732 C 208.343 787.897 209.393 787.431 211.733 788.646 C 211.146 791.729 210.535 791.899 207.961 793.569 C 201.317 797.88 193.31 800.959 186.248 804.641 C 169.542 813.352 152.645 823.545 138.451 836.023 C 112.145 859.148 72.058 896.829 69.925 933.868 C 68.8909 951.825 75.7941 969.716 87.6231 983.098 C 96.1976 973.242 104.301 962.97 113.396 953.579 C 136.439 929.785 162.86 911.713 191.964 896.172 C 196.12 893.953 202.628 889.223 207.28 889.368 C 209.222 889.429 208.89 889.551 210.133 890.766 C 209.27 893.195 209.044 893.638 207.021 895.191 C 200.965 899.84 191.954 903.18 185.121 906.747 A 240.54 240.54 0 0 0 158.259 923.259 C 130.761 942.445 105.466 966.862 86.9134 994.884 C 72.9418 1015.99 63.5625 1038.89 71.756 1064.15 C 74.17 1071.6 78.6544 1078.52 80.1009 1086.22 C 80.1532 1086.5 80.1933 1086.78 80.2395 1087.06 L 80.3614 1086.69 L 79.1132 1089.52 C 78.4596 1089.43 78.754 1089.51 77.8599 1088.93 C 70.8756 1084.36 66.4711 1067.99 64.8699 1060.4 C 59.1296 1033.2 69.3067 1010.99 84.0028 988.771 A 80.2714 80.2714 0 0 1 65.0939 949.473 C 61.0975 926.379 69.2548 906.239 82.4325 887.632 C 74.0873 877.73 67.7772 864.712 65.0249 852.081 C 59.454 826.514 69.1908 805.18 82.8487 784.221 C 75.5341 772.433 68.5013 761.503 65.7229 747.664 C 60.4072 721.185 72.0338 698.96 86.1962 677.557 C 72.6839 658.9 62.3003 637.889 63.7364 614.241 C 65.8228 579.884 98.8847 550.668 123.168 529.361 z"/>
<path transform="translate(0,0)" fill="#4A2219" d="M 1407.15 532.297 C 1409.03 531.388 1411.31 530.795 1413.3 530.102 C 1437.5 552.754 1469.75 580.561 1471.01 616.107 C 1471.87 640.101 1462.7 658.722 1449.31 677.85 C 1463.12 697.215 1474 719.617 1470.11 744.042 C 1467.78 758.748 1460.63 772.44 1452.78 784.913 C 1466.7 807.523 1475.02 827.075 1468.47 854.101 C 1465.42 866.661 1459.53 877.048 1451.85 887.313 C 1465.3 906.751 1474.07 927.533 1469.67 951.586 C 1467.25 964.845 1460.68 979.197 1451.73 989.332 C 1465.51 1014.09 1477.84 1036.88 1469.69 1066.13 C 1467.82 1072.85 1464.34 1085.98 1458.15 1089.97 C 1456.58 1089.65 1456.46 1089.8 1455.21 1088.66 C 1456.81 1081.55 1461.02 1074.98 1463.18 1067.9 C 1471.61 1040.15 1462.09 1017.19 1447.25 993.825 C 1431.21 968.572 1409.69 947.044 1385.73 929.285 C 1376.03 922.096 1366.06 914.934 1355.53 908.993 C 1347.92 904.693 1339.56 901.168 1332.26 896.398 C 1329.86 894.824 1328.22 893.251 1326.66 890.831 L 1327.04 889.571 C 1347.92 889.792 1405.13 935.853 1420.77 951.865 A 366.609 366.609 0 0 1 1448.46 984.085 C 1460.77 965.51 1468.34 947.074 1463.65 924.535 C 1455.36 884.674 1398.2 832.04 1364.99 810.557 C 1356.62 805.144 1330.18 794.255 1326.3 786.986 L 1326.7 784.896 C 1332.53 784.934 1339.03 789.077 1344.14 791.755 A 293.364 293.364 0 0 1 1417.59 845.89 C 1428.85 857.302 1438.78 869.055 1448.44 881.843 C 1460.36 865.053 1467.72 844.938 1464.06 824.166 C 1457.31 785.827 1407.91 739.721 1376.73 718.34 C 1367.32 711.882 1357.5 705.789 1347.32 700.614 C 1341.56 697.686 1334.95 695.381 1329.56 691.911 C 1327.2 690.386 1326.4 689.727 1325.4 687.145 C 1326.48 685.984 1326.49 685.409 1328.19 685.335 C 1332.46 685.146 1339.5 689.745 1343.33 691.696 C 1375.36 707.99 1402.69 728.408 1427.34 754.54 C 1434.66 762.294 1441.93 770.25 1448.57 778.59 C 1460.17 761.138 1468.09 742.664 1463.85 721.329 C 1455.53 679.488 1401.37 632.978 1366.82 610.37 C 1354.7 602.436 1335.74 594.893 1325.84 586.467 L 1326.27 585.286 C 1342.3 583.874 1386.46 615.405 1400 626.778 C 1416.56 640.688 1431.3 656.415 1445.02 673.093 C 1458.96 654.208 1468.14 633.975 1464.7 609.906 C 1460.42 580.042 1428.51 551.716 1407.15 532.297 z"/>
<path transform="translate(0,0)" fill="#CCFF00" d="M 152.942 1349.29 C 153.514 1335.35 156.666 1323.07 167.203 1313.26 C 175.975 1305.09 187.618 1301.26 199.521 1301.78 C 211.512 1302.31 222.278 1307.26 230.298 1316.22 C 237.768 1324.56 242.634 1336.97 241.947 1348.26 C 241.92 1348.71 241.873 1349.17 241.835 1349.62 C 238.045 1364.96 234.993 1376.24 222.945 1387.26 C 223.026 1418.75 226.379 1450.36 228.208 1481.79 L 238.248 1653.95 L 242.229 1716.44 C 242.882 1726.74 244.548 1738.29 243.883 1748.53 C 237.713 1749.94 218.422 1743.69 210.638 1742.86 A 132.72 132.72 0 0 0 181.428 1743.05 C 175.773 1743.68 151.312 1750.28 148.92 1749.56 C 147.974 1747.35 167.504 1409.31 169.871 1385.68 C 160.066 1374.08 155.382 1364.29 152.942 1349.29 z"/>
<path transform="translate(0,0)" fill="#CCFF00" d="M 1292.01 1353.86 C 1290.89 1341.17 1293.07 1329.31 1301.53 1319.38 C 1309.67 1309.84 1321.63 1304.51 1334.03 1303.67 C 1345.52 1302.89 1356.79 1305.42 1365.59 1313.16 C 1376.47 1322.74 1379.32 1335.34 1380.3 1349.2 C 1378.28 1362.71 1374.88 1371.14 1367.37 1382.5 C 1369.85 1399.44 1369.72 1417.06 1370.61 1434.16 A 9499.31 9499.31 0 0 1 1375.78 1536.5 L 1383.96 1683.06 C 1385.07 1705.42 1387.24 1728.17 1386.89 1750.52 C 1380.66 1752.51 1365.18 1745.03 1358.35 1743.83 C 1347.7 1741.95 1334.28 1742.39 1323.53 1743.42 C 1316.91 1744.05 1299.23 1749.28 1294.02 1747.59 C 1293.7 1736.89 1295.28 1725.52 1295.86 1714.79 L 1299.04 1648.72 L 1305.5 1510.02 C 1307.69 1466.63 1310.32 1423.01 1311.12 1379.57 C 1301.91 1372.07 1296.35 1364.99 1292.01 1353.86 z"/>
<path transform="translate(0,0)" fill="#965846" d="M 148.92 1749.56 C 151.312 1750.28 175.773 1743.68 181.428 1743.05 A 132.72 132.72 0 0 1 210.638 1742.86 C 218.422 1743.69 237.713 1749.94 243.883 1748.53 C 249.787 1754.63 268.748 1759.92 277.036 1764.56 C 289.997 1771.8 298.839 1782.68 310.15 1791.81 C 309.629 1793.59 309.304 1795.16 308.226 1796.71 C 304.949 1805.07 230.74 1938.37 228.465 1940.49 C 227.973 1940.95 227.29 1941.15 226.702 1941.48 C 226.48 1941.58 226.265 1941.69 226.036 1941.78 C 223.871 1942.55 75.6994 1943.85 63.9979 1942.75 C 62.5771 1942.62 61.4885 1942.17 60.1726 1941.66 C 51.7445 1927.47 50.122 1902.77 50.6381 1886.19 A 149.448 149.448 0 0 1 118.952 1766.26 C 126.468 1761.39 142.181 1756.4 147.897 1750.64 C 148.247 1750.29 148.579 1749.92 148.92 1749.56 z"/>
<path transform="translate(0,0)" fill="#965846" d="M 1294.02 1747.59 C 1299.23 1749.28 1316.91 1744.05 1323.53 1743.42 C 1334.28 1742.39 1347.7 1741.95 1358.35 1743.83 C 1365.18 1745.03 1380.66 1752.51 1386.89 1750.52 C 1387.27 1750.85 1387.64 1751.2 1388.02 1751.53 C 1395.57 1758 1410.7 1761.79 1419.69 1767.69 C 1458.04 1792.86 1481.21 1836.04 1485.97 1881.06 C 1487.41 1894.74 1485.83 1929.67 1477.88 1940.9 C 1477.78 1941.04 1477.66 1941.17 1477.55 1941.3 C 1476.15 1942.03 1475.17 1942.46 1473.56 1942.53 C 1455.03 1943.31 1436.05 1942.25 1417.46 1942.34 L 1346.85 1942.73 C 1335.78 1942.79 1319.49 1944.91 1308.97 1941.98 L 1307.81 1941.72 C 1305.64 1939.84 1232.52 1808.16 1227.8 1796.73 L 1225.76 1791.72 L 1225.89 1791.06 C 1237.09 1781.87 1246.79 1771.53 1259.26 1763.9 C 1267.52 1758.85 1288.86 1753.6 1294.02 1747.59 z"/>
<path transform="translate(0,0)" fill="#4A2219" d="M 775.018 263.39 L 779.485 263.211 C 846.053 264.936 909.362 278.049 969.986 305.936 L 974.555 307.792 C 1027.88 336.955 1064.06 363.137 1107.72 405.648 L 1111.21 409.154 C 1151.57 454.76 1187.22 509.165 1208.43 566.432 L 1210.39 570.65 C 1246.21 662.299 1255.17 767.164 1231.43 863.052 C 1231.04 863.353 1230.47 863.273 1229.98 863.343 C 1222.86 858.132 1214.68 853.637 1207.99 847.963 C 1227.07 759.323 1221.28 659.163 1184.52 575.6 L 1182.13 570.321 C 1157.78 512.557 1130.38 470.866 1088.54 424.42 L 1085.5 421.096 C 1050.91 383.032 1005.82 354.409 960.566 330.853 L 957.073 329.177 C 905.094 306.472 854.195 293.954 797.391 291.745 C 790.117 290.83 782.406 291.144 775.065 290.973 C 713.656 290.794 655.068 304.585 598.544 327.983 L 594.756 329.658 C 545.83 352.156 502.95 381.266 464.202 418.779 L 460.077 422.884 C 418.142 465.239 383.141 514.692 360.468 570.066 L 358.453 574.132 C 319.966 668.802 314.364 747.021 333.934 846.774 C 330.421 849.313 313.011 861.387 310.302 861.139 C 285.195 763.045 295.967 664.116 331.615 570.364 C 332.343 568.839 332.821 567.08 333.39 565.481 C 355.056 517.819 380.17 474.551 414.023 434.444 C 421.328 425.79 428.722 416.661 437.011 408.946 L 441.434 409.92 L 442.299 409.169 L 440.664 405.886 C 486.187 358.789 524.114 335.946 580.961 306.257 L 585.306 304.194 C 641.916 277.505 712.419 262.147 775.018 263.39 z"/>
<path transform="translate(0,0)" fill="#965846" d="M 160.477 1211.28 C 165.479 1188.84 173.115 1167.55 193.371 1154.46 C 200.906 1149.59 212.746 1143.99 221.944 1145.35 L 223.512 1146.83 C 223.185 1158.74 199.854 1164.92 201.215 1191.68 L 202.077 1192.28 C 206.038 1186.45 210.618 1171.46 218.303 1170.06 C 219.8 1169.79 221.217 1170.22 222.503 1171.03 C 224.215 1172.1 225.383 1174.27 225.676 1176.23 C 226.476 1181.58 223.804 1187.13 228.207 1191.36 C 231.281 1190.56 232.658 1187.45 234.223 1184.78 C 237.273 1179.6 240.078 1173.79 243.759 1169.04 C 256.183 1153 275.888 1140.1 295.425 1135.02 C 335.981 1124.47 384.059 1133.41 419.844 1154.77 C 423.026 1156.66 426.496 1158.69 428.112 1162.15 L 427.403 1164.23 C 426.55 1164.6 425.036 1165.54 424.173 1165.65 C 419.967 1166.19 412.339 1162.7 407.951 1161.57 C 397.71 1158.94 386.554 1157.38 376 1156.57 C 336.484 1153.54 277.859 1167.48 261.874 1208.07 A 69.5797 69.5797 0 0 0 261.041 1210.27 C 267.149 1205.48 273.305 1200.19 280.078 1196.37 C 297.706 1186.43 322.036 1182.56 342.005 1185.01 C 371.666 1188.64 399.681 1206.09 418.049 1229.44 C 420.129 1232.09 422.993 1235.89 422.616 1239.41 C 422.423 1241.21 421.617 1241.48 420.398 1242.7 C 408.944 1246.65 392.848 1238.72 381.19 1236.62 C 353.587 1231.65 323.305 1238.37 309.879 1265.45 C 308.883 1267.46 308.042 1269.55 307.221 1271.64 C 333.595 1275.32 362.962 1280.36 379.989 1303.19 C 395.05 1323.39 388.762 1339.22 396.449 1358.87 C 398.569 1364.29 406.979 1372.5 407.078 1377.54 C 405.038 1378.87 403.808 1379.22 401.298 1378.88 C 384.914 1376.61 375.983 1354.86 364.309 1345 C 356.673 1338.56 348.139 1334.96 338.775 1331.75 C 354.224 1357.83 360.15 1392.5 352.643 1422.19 C 351.513 1426.66 350.236 1432.51 346.817 1435.8 L 344.696 1435.81 C 340.847 1431.65 339.369 1406.22 336.875 1398 C 332.924 1384.98 326.064 1372.25 317.687 1361.52 C 326.762 1391.5 319.591 1422.54 308.594 1450.91 C 306.537 1456.22 304.934 1461.93 302.253 1466.94 C 301.138 1469.03 300.154 1470.48 298.207 1471.82 L 296.243 1471.55 C 285.346 1456.93 321.131 1384.13 241.835 1349.62 C 241.873 1349.17 241.92 1348.71 241.947 1348.26 C 242.634 1336.97 237.768 1324.56 230.298 1316.22 C 222.278 1307.26 211.512 1302.31 199.521 1301.78 C 187.618 1301.26 175.975 1305.09 167.203 1313.26 C 156.666 1323.07 153.514 1335.35 152.942 1349.29 C 131.082 1372.07 122.834 1403.28 119.506 1433.93 C 119.047 1438.16 119.454 1444.3 115.524 1446.75 C 113.126 1445.7 112.387 1444.65 111.476 1442.15 C 106.465 1428.4 104.27 1411.97 104.511 1397.34 C 104.674 1387.49 108.523 1376.83 108.145 1367.38 C 108.071 1365.53 107.556 1365.17 106.391 1363.85 C 100.912 1361.92 93.5713 1365 88.5418 1367.39 C 80.1512 1371.37 71.585 1378.72 68.2684 1387.64 C 64.8442 1396.85 65.3502 1422.65 64.0064 1424.96 C 60.7229 1423.9 58.7334 1420.37 57.1792 1417.36 C 49.4844 1402.47 50.0758 1383.64 55.2312 1367.92 C 61.4564 1348.93 74.4996 1337.22 90.6837 1326.63 L 89.8943 1325.83 C 82.3654 1318.31 71.4129 1315.7 61.0082 1315.8 C 49.3911 1315.91 37.6723 1320.08 29.4792 1328.51 C 21.5655 1336.65 21.0247 1351.17 18.0974 1354.4 C 17.6443 1354.9 16.7562 1354.56 16.0856 1354.64 L 16.8545 1353.22 L 15.0504 1353.67 C 10.9933 1344.22 12.2641 1329.24 15.9817 1319.8 C 23.0816 1301.76 38.9152 1286.39 56.7132 1278.95 C 63.0259 1276.31 82.6381 1273.1 84.3362 1272.02 C 84.4021 1267.45 82.7906 1264.78 79.6699 1261.5 C 72.2415 1253.67 57.2401 1249.78 52.7353 1244.31 C 53.3258 1242.59 53.67 1242.37 55.4299 1241.59 C 58.7466 1240.13 62.7996 1239.54 66.3399 1238.79 C 84.7241 1234.87 95.9653 1241.79 112.997 1246.81 C 108.449 1233.39 102.003 1222.98 88.9212 1216.54 C 82.3811 1213.32 73.6906 1212.27 66.6297 1210.29 C 66.6999 1207.9 67.1573 1206.93 68.9895 1205.3 C 77.732 1197.52 107.406 1193.16 119.305 1194.59 C 135.31 1196.5 147.113 1202.97 160.477 1211.28 z"/>
<path transform="translate(0,0)" fill="#965846" d="M 1292.01 1353.86 C 1247.97 1366.65 1242.89 1411.89 1244.07 1451.48 C 1244.28 1458.45 1246.59 1472.64 1242.87 1478.64 L 1241.08 1478.68 C 1229.45 1470.64 1219.01 1415.38 1217.68 1399.51 C 1217.09 1392.5 1218.2 1371.95 1215.92 1367.34 C 1200.06 1370.49 1198.04 1432.32 1190.37 1439.46 L 1188.53 1438.24 C 1180.46 1423.15 1178.48 1388.35 1181.28 1371.3 C 1183.03 1360.64 1187.77 1346.25 1186.65 1335.64 L 1184.26 1334.14 C 1164.13 1334.31 1151.81 1375.91 1135.22 1379.12 C 1132.95 1379.56 1132.04 1378.63 1130.31 1377.32 C 1134.33 1370.9 1138.92 1364.27 1141.21 1357 C 1146.31 1340.83 1143.64 1323.89 1152.81 1308.55 C 1167.35 1284.23 1190.94 1283.53 1215.4 1277 C 1219.03 1276.02 1224.56 1274.07 1226.27 1270.48 C 1227.42 1268.07 1227.05 1265.49 1226.09 1263.09 C 1223.37 1256.3 1217.04 1250.38 1211.18 1246.26 C 1173.47 1219.78 1129.21 1248.88 1116.26 1242.35 C 1114.49 1241.46 1114.54 1240.89 1114 1239.12 C 1118.53 1229.06 1131.72 1216.91 1140.12 1210.14 C 1170.28 1185.82 1215.27 1173.57 1250.46 1195 C 1256.25 1198.53 1266.35 1208.72 1272.31 1209.37 C 1272.77 1208.42 1273.06 1208.09 1273.02 1207.02 C 1272.72 1198.98 1268.17 1192.61 1262.37 1187.44 C 1235.8 1163.71 1187.54 1152.63 1152.41 1156.41 C 1140.84 1157.65 1126.2 1163.42 1115.5 1163.51 C 1112.85 1163.54 1110.85 1163.16 1108.93 1161.33 L 1109.11 1159.42 C 1111.93 1155.59 1116.04 1153.06 1120.13 1150.73 C 1155.07 1130.87 1202.41 1123.35 1241.35 1134.25 C 1269.07 1142.01 1286.95 1159.07 1300.63 1183.64 C 1302.31 1180.11 1304.01 1176.53 1306.84 1173.75 C 1309.41 1171.23 1312.99 1169.28 1316.69 1169.65 C 1328.53 1170.81 1327.3 1184.19 1332.84 1190.8 L 1334.08 1190.29 C 1335.54 1185.82 1336.35 1181.53 1335.65 1176.82 C 1333.07 1159.46 1318.41 1153.08 1306.02 1143.75 L 1305.33 1143.23 C 1310.75 1143.38 1316.24 1143.46 1321.57 1144.58 C 1348.69 1150.23 1367.51 1173.23 1372.12 1200.02 C 1373.16 1206.08 1372.53 1216.22 1375.86 1221.32 C 1378.14 1221.81 1378.66 1222.14 1380.75 1220.82 C 1384.18 1218.66 1387.12 1214.62 1389.9 1211.66 C 1397.65 1203.4 1408.87 1197.62 1420 1195.68 C 1438.89 1192.39 1458.02 1199.71 1473.2 1210.57 C 1465.27 1211.67 1457.44 1212.49 1449.96 1215.54 C 1432.51 1222.64 1422.98 1238.76 1415.81 1255.32 C 1429.45 1244.95 1443.63 1239.69 1460.94 1239.64 C 1470 1239.61 1484.19 1241.86 1490.89 1248.47 L 1490.15 1249.95 C 1486.2 1251.79 1481.8 1249.06 1477.65 1248.87 C 1468.81 1248.47 1457.99 1254.72 1451.78 1260.6 C 1448.89 1263.33 1446.28 1265.89 1446.15 1270.03 C 1450.78 1274.88 1468.52 1273.12 1475.65 1274.81 C 1488.92 1277.97 1502.36 1285.61 1511.97 1295.26 C 1519.86 1303.18 1525.65 1313.51 1525.46 1324.94 C 1525.25 1337.7 1517.73 1348.75 1508.78 1357.22 C 1509.09 1351.71 1510 1346.02 1508.87 1340.55 C 1507.04 1331.73 1502.38 1324.46 1494.7 1319.64 C 1483.54 1312.63 1468.35 1311.53 1455.75 1314.58 C 1450.31 1315.9 1444.5 1318.06 1441.49 1323.05 C 1441.42 1329.3 1449.52 1330.79 1454.31 1333.45 C 1466.67 1340.31 1474.96 1352.02 1479.81 1365.08 C 1486.52 1383.16 1487.58 1403.45 1479.1 1421.1 C 1477.8 1423.81 1476.76 1425.6 1473.91 1426.64 C 1469.59 1423.33 1473.14 1410.43 1471.88 1405.09 C 1469.75 1395.99 1465.89 1386.94 1459.97 1379.67 C 1455.34 1373.98 1449.42 1368.54 1441.74 1367.99 C 1437.08 1367.65 1434.71 1370.09 1431.33 1372.86 C 1432.33 1383.37 1433.4 1393.93 1432.9 1404.5 C 1432.45 1414.02 1428.53 1440.98 1420.38 1447.25 C 1418.52 1448.68 1417.34 1448.75 1415.13 1448.44 C 1410.22 1439.25 1412.64 1415.11 1411.34 1403.71 C 1408.46 1378.38 1399.74 1364.79 1380.3 1349.2 C 1379.32 1335.34 1376.47 1322.74 1365.59 1313.16 C 1356.79 1305.42 1345.52 1302.89 1334.03 1303.67 C 1321.63 1304.51 1309.67 1309.84 1301.53 1319.38 C 1293.07 1329.31 1290.89 1341.17 1292.01 1353.86 z"/>
<path transform="translate(0,0)" fill="#D18C82" d="M 333.934 846.774 C 352.748 834.711 385.322 832.991 406.506 837.666 C 426.999 842.188 442.615 851.712 457.321 866.326 C 464.731 863.773 472.421 860.764 480.394 861.414 L 485.13 861.132 L 490.548 861.809 C 502.341 863.604 512.412 866.673 521.037 875.264 C 521.765 874.968 522.378 874.78 522.976 874.259 C 522.251 892.423 523.339 910.286 526.9 928.121 C 540.136 994.394 581.038 1051.64 637.014 1088.99 L 98.7745 1088.26 C 98.6546 1080.9 98.8009 1073.6 99.0954 1066.24 C 100.907 1063.18 102.859 1060.18 105.55 1057.8 C 113.97 1050.36 127.8 1052.48 138.135 1052.88 C 131.313 1045.65 125.169 1038.83 125.175 1028.25 C 125.18 1018.4 129.329 1009.24 136.152 1002.27 C 141.588 996.717 149.175 991.874 156.82 990.15 C 168.274 987.566 181.503 989.007 193.252 988.885 A 7526.08 7526.08 0 0 1 278.879 988.587 C 276.511 982.219 274.096 975.838 272.447 969.239 C 264.666 938.105 273.534 905.406 293.013 880.343 C 297.779 874.211 306.003 868.808 309.698 862.258 C 309.907 861.889 310.101 861.512 310.302 861.139 C 313.011 861.387 330.421 849.313 333.934 846.774 z"/>
<path transform="translate(0,0)" fill="#D18C82" d="M 1069.94 869.371 C 1081.66 857.801 1094.61 848.336 1109.94 842.104 C 1145.21 827.779 1174.52 833.964 1207.99 847.963 C 1214.68 853.637 1222.86 858.132 1229.98 863.343 C 1230.47 863.273 1231.04 863.353 1231.43 863.052 C 1231.54 863.431 1231.63 863.813 1231.75 864.188 C 1233.47 869.634 1244.51 878.948 1248.38 884.42 C 1269.91 914.864 1271.31 954.931 1258.24 988.914 L 1327.26 988.945 C 1343.4 988.921 1362.79 986.943 1378.4 990.938 C 1385.65 992.794 1392.32 996.959 1397.57 1002.24 C 1405.42 1010.14 1411.22 1021.52 1410.92 1032.87 C 1410.68 1041.46 1406.55 1047.73 1401.64 1054.42 C 1413.79 1052.68 1422.23 1052.48 1432.37 1060.27 A 58.734 58.734 0 0 1 1434.02 1061.59 C 1438.32 1070.52 1438.67 1078.39 1438.53 1088.21 C 1383.57 1087.6 1328.55 1088.95 1273.58 1088.98 L 893.737 1088.87 C 906.274 1080.4 918.934 1072.02 930.529 1062.27 C 972.459 1027.02 999.515 980.143 1009.85 926.486 C 1013.07 909.822 1014.03 892.991 1013.99 876.041 C 1025.46 856.672 1037.07 866.971 1044.87 860.132 L 1046.06 862.052 C 1049.68 862.588 1052.95 861.948 1056.48 862.187 C 1058.53 861.961 1060.59 861.859 1062.52 861.077 C 1063.58 861.28 1063.24 861.164 1064.15 861.516 C 1067.59 862.833 1068.48 866.157 1069.94 869.371 z"/>
<path transform="translate(0,0)" fill="#B4913E" d="M 631.841 992.357 C 608.881 972.673 602.11 939.293 599.905 910.358 C 596.302 863.068 607.037 810.487 638.666 773.816 C 658.465 750.861 684.451 741.003 714.167 739.018 C 732.074 737.822 750.239 738.6 768.19 738.773 C 794.275 739.024 822.361 736.612 847.633 744.115 C 861.763 748.311 874.446 756.117 885.422 765.864 C 916.109 793.117 933.407 831.9 935.612 872.618 C 937.199 901.898 934.023 940.389 921.323 967.057 C 916.734 976.692 910.402 984.881 903.901 993.259 C 906.021 1000.95 911.658 1015.6 907.71 1023.04 C 901.817 1034.16 871.816 1049.7 860.048 1055.61 C 859.693 1074.85 857.466 1096.42 860.601 1115.43 C 862.141 1124.76 867.669 1133.7 868.15 1143 C 868.208 1144.12 868.294 1145.24 868.341 1146.37 C 914.2 1152.89 998.53 1161.63 1038.57 1182.97 C 1046.61 1187.25 1053.72 1192.89 1059.28 1200.15 C 1069.21 1213.14 1073.02 1229.31 1070.83 1245.45 C 1066.71 1275.69 1037.89 1296.93 1018.28 1317.92 C 1007.51 1329.44 997.321 1341.93 987.454 1354.25 C 1008.55 1390.73 1027.44 1428.25 1047.39 1465.32 C 1058.28 1485.55 1070.33 1505.17 1080.67 1525.69 C 1047.8 1526.67 1014.76 1526.05 981.866 1526.08 C 977.648 1513.38 944.229 1415.99 941.214 1413.64 C 939.843 1414.62 938.996 1415.07 938.312 1416.67 C 937.076 1419.58 971.735 1514.22 975.748 1526.12 L 771.382 1525.95 L 771.005 1492.09 C 769.396 1492.38 766.943 1492.31 765.988 1493.67 C 761.994 1499.36 765.304 1518.35 764.518 1525.83 L 559.061 1525.86 C 564.351 1512.64 600.462 1419.16 598.018 1411.64 C 597.643 1410.48 597.55 1410.48 596.922 1409.64 L 595.3 1409.44 C 590.058 1418 587.461 1430.39 583.966 1439.97 L 553.022 1526.13 L 456.47 1526.08 C 466.341 1505.67 477.492 1486 488.124 1465.99 C 499.689 1444.23 510.668 1422.14 522.153 1400.33 C 531.848 1381.91 542.591 1363.29 550.782 1344.19 C 522.178 1321.7 470.445 1283.01 465.702 1244.61 C 463.781 1229.05 467.755 1213.05 477.506 1200.7 C 506.698 1163.73 587.485 1155.57 632.764 1150.61 A 849.124 849.124 0 0 1 666.887 1147.7 C 666.947 1147.31 667.003 1146.91 667.067 1146.51 C 668.607 1136.98 673.964 1128.68 675.652 1119.27 C 679.447 1098.13 677.495 1074.4 677.456 1052.96 C 661.432 1048.26 636.511 1036.26 628.62 1020.61 C 624.127 1011.7 628.648 1000.95 631.841 992.357 z"/>
<path transform="translate(0,0)" fill="#CCFF00" d="M 712.984 851.284 C 727.136 850.412 746.816 851.164 757.085 839.52 C 761.966 833.985 763.469 826.621 762.898 819.431 C 762.451 813.804 760.594 808.011 759.193 802.544 L 759.962 802.585 C 764.369 809.885 767.866 819.222 765.859 827.835 C 763.948 836.036 758.163 843.767 750.918 847.991 C 741.939 853.226 731.253 854.073 721.077 854.104 C 707.735 856.575 691.661 855.124 678.012 855.205 C 677.114 887.03 667.152 891.628 653.262 917.889 L 652.694 918.976 C 655.138 938.336 663.079 955.951 667.809 974.746 C 676.209 1008.13 674.736 1041.08 697.848 1069.65 C 713.053 1088.45 735.354 1101.68 759.584 1104.03 C 784.574 1106.45 807.449 1098.25 826.524 1082.15 C 861.909 1052.29 857.818 1011.63 868.706 971.381 C 873.451 953.839 882.134 937.198 883.579 918.943 C 867.126 892.435 860.958 888.056 858.749 855.39 C 835.454 853.998 800.712 859.977 780.843 845.523 C 774.82 841.142 771.173 834.947 770.069 827.594 C 768.784 819.028 770.976 808.528 776.268 801.648 L 777.532 801.863 C 777.976 806.556 773.205 813.614 772.706 819.276 C 772.096 826.194 773.354 833.479 778.05 838.852 C 793.064 856.031 837.234 850.79 858.864 852.658 C 867.509 846.004 876.476 834.581 886.115 830.14 C 879.064 839.453 870.591 847.15 861.709 854.652 C 864.091 887.229 870.803 892.582 886.875 918.728 C 885.225 936.816 876.966 953.255 872.35 970.693 C 863.341 1004.73 864.915 1040.54 842.287 1069.83 C 826.904 1089.74 803.978 1104.31 778.802 1107.27 A 90.7027 90.7027 0 0 1 711.742 1087.52 C 689.165 1069.41 676.524 1043.13 671.74 1015 C 669.537 1002.05 668.28 988.661 664.989 975.939 C 660.008 956.684 652.172 938.735 650.063 918.795 C 662.822 889.043 673.252 892.815 675.158 853.77 C 668.418 847.453 654.87 837.493 652.525 828.785 C 656.091 829.381 673.808 848.2 677.86 852.144 A 924.236 924.236 0 0 0 712.984 851.284 z"/>
<path transform="translate(0,0)" fill="#CCFF00" d="M 667.539 1482.01 C 664.496 1458.13 655.253 1433.11 645.508 1411.21 C 610.787 1333.2 572.273 1297.1 511.987 1239.86 C 503.826 1232.11 484.265 1217.68 480.847 1207.86 C 481.688 1208.19 481.907 1208.23 482.759 1208.81 C 487.387 1211.98 491.904 1217.15 496.007 1221.01 L 527.328 1250.51 C 543.322 1265.54 559.979 1280.26 574.916 1296.34 A 393.535 393.535 0 0 1 671.66 1480.7 C 698.372 1479.47 725.329 1480.14 752.069 1480.1 A 6900.07 6900.07 0 0 1 863.442 1480.39 C 867.466 1454.19 879.015 1427.55 890.38 1403.81 C 920.896 1340.04 968.473 1285.23 1019.04 1236.39 C 1026.09 1229.57 1037.86 1215.7 1047.12 1212.44 C 1042.58 1222.28 1016.04 1244.38 1007.17 1253.51 C 942.841 1319.77 889.13 1389.63 866.906 1481.1 C 871.617 1481.07 876.335 1480.91 881.022 1481.45 L 882.333 1483.11 C 882.405 1485.6 882.585 1487.63 881.501 1489.96 C 879.144 1491.44 877.045 1491.93 874.281 1492.13 C 862.935 1492.96 850.795 1491.83 839.338 1491.94 C 816.673 1492.16 793.646 1493.2 771.005 1492.09 C 769.396 1492.38 766.943 1492.31 765.988 1493.67 C 761.994 1499.36 765.304 1518.35 764.518 1525.83 C 763.495 1515.03 764.271 1503.58 764.308 1492.7 C 742.376 1493.25 720.301 1492.3 698.354 1492.15 C 686.526 1492.07 665.606 1494.1 655.144 1491.3 C 654.134 1488.57 654.388 1486.82 654.856 1483.98 C 658.14 1482.01 663.729 1482.3 667.539 1482.01 z"/>
<path transform="translate(0,0)" fill="#CCFF00" d="M 752.899 976.511 C 752.69 964.323 754.961 916.27 747.204 908.186 C 740.617 901.32 727.179 899.88 718.199 899.92 C 705.376 899.977 688.729 903.774 679.723 913.71 C 677.935 915.682 676.649 916.766 676.799 919.434 C 691.161 919.562 722.028 911.894 734.505 916.549 C 739.313 918.342 746.755 921.85 748.441 927.025 C 749.14 929.172 748.553 931.174 747.238 932.942 C 744.322 936.862 737.394 938.313 732.825 939.188 C 716.888 942.241 694.178 942.571 680.342 932.556 C 676.774 929.974 673.147 926.688 672.688 922.032 C 672.284 917.941 674.568 914.241 677.292 911.4 C 686.845 901.44 703.875 897.046 717.244 896.749 C 727.278 896.525 741.76 897.892 749.187 905.486 C 752.161 908.528 753.334 912.11 754.143 916.196 C 756.818 929.697 755.734 965.009 756.063 980.554 C 753.181 981.606 749.911 982.83 747.543 984.816 C 743.297 988.378 742.915 993.389 742.326 998.503 C 744.361 1001.09 745.436 1002.43 748.652 1003.36 C 751.231 1003.05 752.778 1002.15 754.43 1000.09 C 755.566 998.67 756.512 997.056 757.456 995.507 C 761.872 997.258 764.818 998.597 769.625 997.748 C 772.594 997.223 775.496 996.478 778.206 997.81 L 780.416 1001.97 C 784.38 1002.93 786.665 1003.13 790.413 1001.44 C 791.418 997.674 792.138 994.157 790.881 990.34 C 789.723 986.825 785.705 983.81 782.525 982.217 L 778.138 980.033 A 708.058 708.058 0 0 1 779.459 923.203 C 779.709 916.232 778.903 910.358 784.543 905.353 C 793.606 897.311 810.032 896.134 821.535 897.13 C 833.676 898.181 848.531 903.134 856.479 912.909 C 858.916 915.906 861.218 919.88 860.824 923.889 C 860.487 927.326 858.21 929.852 855.511 931.795 C 840.769 942.403 819.102 942.361 802.081 939.096 C 796.311 937.99 790.269 936.614 786.706 931.581 C 786.396 928.191 786.663 926.8 788.932 923.992 C 793.791 917.979 799.894 916.131 807.318 915.566 C 824.069 914.291 843.06 917.532 859.491 920.766 C 849.684 908.839 837.507 901.911 822.005 900.32 C 811.933 899.286 796.152 899.64 787.999 906.47 C 781.708 911.739 782.7 919.872 781.984 927.329 C 781.682 943.99 780.781 960.615 781.06 977.284 C 786.921 980.039 792.715 983.843 794.845 990.383 C 795.819 993.373 795.497 997.981 794.288 1000.89 C 794.208 1001.09 794.056 1001.24 793.94 1001.42 C 791.478 1004.02 789.069 1006.64 785.205 1006.57 C 782.153 1006.52 779.351 1004.45 777.085 1002.6 L 776.035 1001.47 C 774.54 1002.25 772.764 1003.06 771.475 1004.15 C 768.093 1007.01 769.473 1018.5 769.463 1022.74 A 109.007 109.007 0 0 1 778.192 1023.44 C 784.682 1024.24 799.136 1026.53 803.246 1032.32 C 804.626 1034.26 804.273 1034.8 803.907 1037.02 C 801.647 1039.49 799.587 1040.53 796.349 1041.42 C 784.469 1044.7 745.2 1045.59 734.922 1038.83 C 732.663 1037.35 732.224 1036.34 731.811 1033.77 C 732.281 1032.84 732.7 1031.97 733.434 1031.21 C 739.107 1025.38 756.84 1023.17 764.77 1022.99 L 766.187 1022.96 C 766.307 1016.34 767.537 1007.52 764.108 1001.71 C 756.741 997.83 755.905 1006.34 749.358 1006.88 C 745.641 1007.19 743.136 1004.42 740.655 1002.08 C 739.631 998.557 739.051 995.108 739.812 991.456 C 741.355 984.053 746.947 980.253 752.899 976.511 z"/>
<path transform="translate(0,0)" fill="#B4913E" d="M 768.247 1026.45 C 775.147 1025.78 783.106 1027.49 789.819 1028.97 C 793.56 1029.8 799.319 1030.8 801.471 1034.21 L 800.727 1035.96 C 792.756 1040.87 779.014 1040.23 769.889 1040.86 C 760.666 1040.46 742.948 1040.75 735.633 1035.25 L 735.55 1033.5 C 742.595 1027.25 758.969 1026.92 768.247 1026.45 z"/>
<path transform="translate(0,0)" fill="#B4913E" d="M 799.95 919.111 C 812.912 917.86 827.128 919.515 840.128 920.622 C 845.248 921.058 851.036 921.345 854.507 925.472 L 853.912 927.692 C 850.956 931.118 846.273 932.674 842.225 934.479 A 56.4233 56.4233 0 0 1 832.057 936.956 C 821.25 938.6 801.04 938.435 791.959 931.772 C 791.165 930.218 790.497 929.745 790.873 927.957 C 791.728 923.884 796.728 921.247 799.95 919.111 z"/>
<path transform="translate(0,0)" fill="#B4913E" d="M 725.058 918.419 C 730.338 918.374 737.133 919.297 741.611 922.338 C 743.762 923.798 744.165 924.981 744.713 927.417 C 744.032 929.673 743.32 930.889 741.377 932.299 C 731.031 939.81 711.075 938.679 699.222 936.765 C 690.529 934.716 681.531 929.862 675.224 923.537 C 691.207 920.385 708.791 919.03 725.058 918.419 z"/>
<path transform="translate(0,0)" fill="#D8BF9B" d="M 598.544 327.983 C 655.068 304.585 713.656 290.794 775.065 290.973 C 782.406 291.144 790.117 290.83 797.391 291.745 C 854.195 293.954 905.094 306.472 957.073 329.177 L 960.566 330.853 C 1005.82 354.409 1050.91 383.032 1085.5 421.096 L 1088.54 424.42 C 1130.38 470.866 1157.78 512.557 1182.13 570.321 L 1184.52 575.6 C 1221.28 659.163 1227.07 759.323 1207.99 847.963 C 1174.52 833.964 1145.21 827.779 1109.94 842.104 C 1094.61 848.336 1081.66 857.801 1069.94 869.371 C 1068.48 866.157 1067.59 862.833 1064.15 861.516 C 1063.24 861.164 1063.58 861.28 1062.52 861.077 C 1060.59 861.859 1058.53 861.961 1056.48 862.187 C 1052.95 861.948 1049.68 862.588 1046.06 862.052 L 1044.87 860.132 C 1037.07 866.971 1025.46 856.672 1013.99 876.041 A 246.773 246.773 0 0 0 939.415 713.817 C 892.436 668.142 831.262 642.891 765.592 643.868 C 701.195 644.826 636.744 671.397 591.758 717.877 C 559.141 751.577 537.774 790.154 527.81 836.021 C 525.124 848.385 522.748 861.576 522.976 874.259 C 522.378 874.78 521.765 874.968 521.037 875.264 C 512.412 866.673 502.341 863.604 490.548 861.809 L 485.13 861.132 L 480.394 861.414 C 472.421 860.764 464.731 863.773 457.321 866.326 C 442.615 851.712 426.999 842.188 406.506 837.666 C 385.322 832.991 352.748 834.711 333.934 846.774 C 314.364 747.021 319.966 668.802 358.453 574.132 L 360.468 570.066 C 383.141 514.692 418.142 465.239 460.077 422.884 L 464.202 418.779 C 502.95 381.266 545.83 352.156 594.756 329.658 L 598.544 327.983 z"/>
<path transform="translate(0,0)" fill="#CCFF00" d="M 775.065 290.973 C 782.406 291.144 790.117 290.83 797.391 291.745 L 779.892 291.721 C 779.801 309.735 780.038 327.832 779.335 345.829 C 779.347 357.425 778.601 369.562 779.561 381.089 C 783.79 381.212 788.144 381.125 792.341 381.644 C 811.056 383.144 829.844 385.575 848.087 390.112 L 851.372 390.931 C 871.758 394.878 891.445 402.96 910.544 410.89 L 912.409 409.608 C 913.264 407 914.943 404.435 916.236 402.002 C 920.991 393.34 925.467 383.677 931.269 375.698 C 938.763 359.749 947.709 344.092 957.073 329.177 L 960.566 330.853 A 3667.45 3667.45 0 0 1 936.936 374.094 C 933.634 380.401 925.495 398.904 920.759 403.237 C 919.461 405.722 918.217 408.927 916.267 410.937 L 915.778 412.1 C 922.264 419.286 940.067 425.419 949.023 432.264 C 962.832 440.959 982.674 454.467 993.279 466.916 C 997.622 470.598 1001.63 474.853 1005.73 478.813 C 1031.89 459.314 1058.25 438.996 1085.5 421.096 L 1088.54 424.42 A 2960.95 2960.95 0 0 0 1033.58 463.571 C 1025.76 469.198 1014.29 475.413 1008.25 482.73 C 1025.42 499.923 1044.22 522.122 1054.69 544.206 C 1063.53 557.616 1070.08 571.964 1075.76 586.945 L 1077.47 592.915 L 1084.13 591.361 L 1090.36 590.205 L 1095.21 589.095 C 1101.2 589.01 1108.23 586.69 1114.16 585.456 L 1125.97 583.306 C 1130.26 582.071 1134.8 581.307 1139.17 580.359 L 1142.55 579.908 C 1155.75 576.912 1169.18 574.267 1182.13 570.321 L 1184.52 575.6 C 1174.41 577.287 1162.78 581.794 1152.73 581.917 C 1149.79 582.526 1146.76 583.368 1143.79 583.745 L 1130.17 586.692 L 1114.86 589.649 L 1099.29 592.686 L 1093.45 593.886 C 1090.1 594.565 1086.71 595.414 1083.33 595.877 L 1078.94 597.883 L 1079.25 599.358 C 1086.18 615.333 1089.77 632.591 1093.38 649.563 C 1094.78 658.167 1097.16 667.758 1096.96 676.477 C 1097.27 679.262 1097.8 682.18 1097.73 684.976 C 1099.06 701.037 1099.89 717.873 1097.78 733.9 C 1097.73 737.258 1097.66 740.342 1096.93 743.644 C 1096.42 770.381 1086.62 800.883 1077.81 825.942 C 1073.82 836.177 1064.94 851.429 1062.52 861.077 C 1060.59 861.859 1058.53 861.961 1056.48 862.187 C 1063.64 848.551 1069.61 834.363 1075.39 820.1 C 1084.54 792.548 1090.62 766.807 1093.52 737.874 A 1116.05 1116.05 0 0 1 1094.86 721.622 A 818.52 818.52 0 0 0 1094.62 693.02 L 1093.56 677.804 C 1090.91 670.444 1090.79 659.223 1089.49 651.241 C 1086.58 633.498 1081.17 616.313 1075.2 599.399 L 1073.73 597.897 L 1060.83 600.625 C 1052.5 602.071 1027.05 609.774 1020.32 608.187 L 1019.98 606.446 C 1027.91 600.681 1049.95 598.349 1060.19 596.526 L 1072.95 593.894 L 1072.88 590.026 C 1065.69 576.027 1059.08 561.799 1051.7 547.88 C 1039.18 524.581 1022.64 504.833 1005.24 485.139 C 1001.5 485.48 997.751 489.122 994.766 491.295 C 983.326 499.022 972.528 508.413 960.41 515.043 C 958.455 516.113 955.615 517.92 953.475 517.31 C 958.323 509.323 985.168 492.487 993.98 486.187 L 1001.31 480.938 L 990.216 469.66 C 976.321 456.362 959.891 445.212 944.075 434.368 C 933.935 430.153 923.544 422.562 913.769 417.19 C 909.934 423.434 906.113 429.666 902.55 436.072 C 898.98 442.595 895.514 449.206 891.734 455.609 C 890.579 457.928 889.428 460.27 888.145 462.522 C 886.682 465.09 885.379 466.595 882.518 467.377 L 881.877 465.37 C 882.569 460.594 885.631 456.825 888.265 452.917 A 833.485 833.485 0 0 1 899.642 431.758 C 902.177 425.997 906.316 421.065 908.491 415.064 C 889.78 405.966 870.004 400.664 850.199 394.609 L 844.284 393.649 C 825.023 389.241 804.434 386.283 784.661 386.057 L 779.771 386.191 C 779.728 386.426 779.681 386.662 779.641 386.898 C 778.095 396.175 781.316 443.186 777.487 446.874 L 775.448 446.319 C 773.081 437.288 774.912 398.632 774.944 386.541 L 755.763 387.16 C 741.228 389.789 726.366 390.557 711.777 393.244 C 693.218 398.382 674.711 403.036 656.935 410.623 C 653.54 411.987 649.49 413.019 647.254 416.045 C 647.414 417.54 647.564 418.805 648.116 420.21 C 652.556 422.717 665.764 448.529 667.592 453.882 C 670.001 457.537 675.066 463.54 674.107 468.156 C 674.049 468.438 673.908 468.696 673.809 468.966 C 671.499 468.689 670.501 467.584 669.108 465.669 C 667.521 463.488 666.319 460.694 665.092 458.282 C 658.983 447.154 650.538 434.908 646.514 422.976 C 644.751 420.687 644.329 419.126 641.411 418.637 C 610.578 428.78 577.32 459.456 553.02 480.697 L 553.973 481.582 C 560.159 487.267 599.111 512.517 600.194 516.52 L 598.472 518.43 C 592.672 516.906 557.205 490.368 550.074 485.025 L 546.093 487.892 C 543.727 491.197 541.166 493.981 538.319 496.863 C 533.286 503.03 528.333 509.287 523.151 515.328 C 509.429 534.61 498.056 553.444 487.491 574.606 L 479.081 593.05 C 489.91 596.167 501.314 596.97 512.134 600.034 C 518.401 600.739 528.325 602.039 533.472 605.64 L 533.36 606.748 C 523.694 608.075 509.905 604.181 500.45 601.838 C 493.516 601.696 485.107 599.303 478.408 597.603 L 476.487 600.506 C 472.802 612.166 469.166 623.807 465.988 635.617 C 463.489 648.658 460.475 661.553 458.721 674.731 A 352.062 352.062 0 0 0 471.262 821.954 C 475.09 834.654 479.057 849.324 485.13 861.132 L 480.394 861.414 C 447.387 787.068 444.86 707.547 463.355 629.382 C 466.407 618.794 469.231 608.167 473.174 597.865 C 469.875 594.618 462.227 594.23 457.669 593.42 L 440.915 589.77 C 435.674 588.877 430.454 587.655 425.247 586.575 L 419.78 585.766 C 414.325 584.634 408.824 583.677 403.348 582.646 L 392.148 580.737 L 382.948 578.723 C 378.236 578.185 373.415 576.967 368.743 576.083 L 358.453 574.132 L 360.468 570.066 C 367.023 571.297 373.756 572.277 380.222 573.894 L 388.149 575.361 L 397.057 577.221 C 400.382 577.791 403.79 578.233 407.079 578.97 L 415.7 580.544 C 419.728 581.343 424.199 581.889 428.076 583.18 C 434.135 583.801 440.083 585.178 446.037 586.428 L 457.224 588.629 C 463.143 589.793 469.055 590.996 475.018 591.92 C 478.664 583.654 482.277 575.417 486.461 567.405 C 492.926 549.219 508.436 527.744 519.899 512.145 C 524.585 505.226 530.25 498.763 536.014 492.724 C 539.204 489.046 542.744 485.592 546.11 482.069 L 538.21 476.981 C 525.466 468.795 513.224 459.162 500.83 450.42 C 494.687 446.41 488.486 442.485 482.688 437.979 C 477.572 434.902 472.865 431.065 468.107 427.464 C 465.513 425.727 462.849 424.309 460.077 422.884 L 464.202 418.779 C 466.738 420.693 470.171 422.696 472.28 425.011 C 476.563 428.026 481.305 430.922 485.184 434.425 C 490.82 437.48 497.574 441.819 502.292 446.166 C 514.426 454.341 529.921 463.068 540.189 473.264 L 548.95 478.765 C 576.517 452.031 606.131 430.189 640.708 413.229 C 633.567 402.59 627.947 390.52 621.946 379.207 A 1691.27 1691.27 0 0 0 594.756 329.658 L 598.544 327.983 C 614.683 354.891 629.743 383.082 644.192 410.939 L 652.252 407.828 C 668.133 401.34 684.487 395.243 701.268 391.538 C 719.972 384.971 741.646 384.071 761.297 382.303 L 774.992 381.845 L 775.211 346.709 L 775.065 290.973 z"/>
<path transform="translate(0,0)" fill="#D8BF9B" d="M 960.566 330.853 C 1005.82 354.409 1050.91 383.032 1085.5 421.096 C 1058.25 438.996 1031.89 459.314 1005.73 478.813 C 1001.63 474.853 997.622 470.598 993.279 466.916 C 982.674 454.467 962.832 440.959 949.023 432.264 C 940.067 425.419 922.264 419.286 915.778 412.1 L 916.267 410.937 C 918.217 408.927 919.461 405.722 920.759 403.237 C 925.495 398.904 933.634 380.401 936.936 374.094 A 3667.45 3667.45 0 0 0 960.566 330.853 z"/>
<path transform="translate(0,0)" fill="#D8BF9B" d="M 464.202 418.779 C 502.95 381.266 545.83 352.156 594.756 329.658 A 1691.27 1691.27 0 0 1 621.946 379.207 C 627.947 390.52 633.567 402.59 640.708 413.229 C 606.131 430.189 576.517 452.031 548.95 478.765 L 540.189 473.264 C 529.921 463.068 514.426 454.341 502.292 446.166 C 497.574 441.819 490.82 437.48 485.184 434.425 C 481.305 430.922 476.563 428.026 472.28 425.011 C 470.171 422.696 466.738 420.693 464.202 418.779 z"/>
<path transform="translate(0,0)" fill="#D8BF9B" d="M 598.544 327.983 C 655.068 304.585 713.656 290.794 775.065 290.973 L 775.211 346.709 L 774.992 381.845 L 761.297 382.303 C 741.646 384.071 719.972 384.971 701.268 391.538 C 684.487 395.243 668.133 401.34 652.252 407.828 L 644.192 410.939 C 629.743 383.082 614.683 354.891 598.544 327.983 z"/>
<path transform="translate(0,0)" fill="#D8BF9B" d="M 797.391 291.745 C 854.195 293.954 905.094 306.472 957.073 329.177 C 947.709 344.092 938.763 359.749 931.269 375.698 C 925.467 383.677 920.991 393.34 916.236 402.002 C 914.943 404.435 913.264 407 912.409 409.608 L 910.544 410.89 C 891.445 402.96 871.758 394.878 851.372 390.931 L 848.087 390.112 C 829.844 385.575 811.056 383.144 792.341 381.644 C 788.144 381.125 783.79 381.212 779.561 381.089 C 778.601 369.562 779.347 357.425 779.335 345.829 C 780.038 327.832 779.801 309.735 779.892 291.721 L 797.391 291.745 z"/>
<path transform="translate(0,0)" fill="#D8BF9B" d="M 1088.54 424.42 C 1130.38 470.866 1157.78 512.557 1182.13 570.321 C 1169.18 574.267 1155.75 576.912 1142.55 579.908 L 1139.17 580.359 C 1134.8 581.307 1130.26 582.071 1125.97 583.306 L 1114.16 585.456 C 1108.23 586.69 1101.2 589.01 1095.21 589.095 L 1090.36 590.205 L 1084.13 591.361 L 1077.47 592.915 L 1075.76 586.945 C 1070.08 571.964 1063.53 557.616 1054.69 544.206 C 1044.22 522.122 1025.42 499.923 1008.25 482.73 C 1014.29 475.413 1025.76 469.198 1033.58 463.571 A 2960.95 2960.95 0 0 1 1088.54 424.42 z"/>
<path transform="translate(0,0)" fill="#D8BF9B" d="M 460.077 422.884 C 462.849 424.309 465.513 425.727 468.107 427.464 C 472.865 431.065 477.572 434.902 482.688 437.979 C 488.486 442.485 494.687 446.41 500.83 450.42 C 513.224 459.162 525.466 468.795 538.21 476.981 L 546.11 482.069 C 542.744 485.592 539.204 489.046 536.014 492.724 C 530.25 498.763 524.585 505.226 519.899 512.145 C 508.436 527.744 492.926 549.219 486.461 567.405 C 482.277 575.417 478.664 583.654 475.018 591.92 C 469.055 590.996 463.143 589.793 457.224 588.629 L 446.037 586.428 C 440.083 585.178 434.135 583.801 428.076 583.18 C 424.199 581.889 419.728 581.343 415.7 580.544 L 407.079 578.97 C 403.79 578.233 400.382 577.791 397.057 577.221 L 388.149 575.361 L 380.222 573.894 C 373.756 572.277 367.023 571.297 360.468 570.066 C 383.141 514.692 418.142 465.239 460.077 422.884 z"/>
<path transform="translate(0,0)" fill="#965846" d="M 490.548 861.809 C 493.352 850.594 494.846 838.96 497.449 827.66 A 264.595 264.595 0 0 1 531.115 745.457 A 279.224 279.224 0 0 1 704.844 620.868 C 778.668 603.499 853.614 618.133 917.607 657.819 C 969.372 689.922 1010.65 744.84 1030.31 802.162 C 1036.8 821.06 1040.33 840.717 1044.87 860.132 C 1037.07 866.971 1025.46 856.672 1013.99 876.041 A 246.773 246.773 0 0 0 939.415 713.817 C 892.436 668.142 831.262 642.891 765.592 643.868 C 701.195 644.826 636.744 671.397 591.758 717.877 C 559.141 751.577 537.774 790.154 527.81 836.021 C 525.124 848.385 522.748 861.576 522.976 874.259 C 522.378 874.78 521.765 874.968 521.037 875.264 C 512.412 866.673 502.341 863.604 490.548 861.809 z"/>
<path transform="translate(0,0)" fill="#D8BF9B" d="M 1152.73 581.917 C 1162.78 581.794 1174.41 577.287 1184.52 575.6 C 1221.28 659.163 1227.07 759.323 1207.99 847.963 C 1174.52 833.964 1145.21 827.779 1109.94 842.104 C 1094.61 848.336 1081.66 857.801 1069.94 869.371 C 1068.48 866.157 1067.59 862.833 1064.15 861.516 C 1063.24 861.164 1063.58 861.28 1062.52 861.077 C 1064.94 851.429 1073.82 836.177 1077.81 825.942 C 1086.62 800.883 1096.42 770.381 1096.93 743.644 C 1097.66 740.342 1097.73 737.258 1097.78 733.9 C 1099.89 717.873 1099.06 701.037 1097.73 684.976 C 1097.8 682.18 1097.27 679.262 1096.96 676.477 C 1097.16 667.758 1094.78 658.167 1093.38 649.563 C 1089.77 632.591 1086.18 615.333 1079.25 599.358 L 1078.94 597.883 L 1083.33 595.877 C 1086.71 595.414 1090.1 594.565 1093.45 593.886 L 1099.29 592.686 L 1114.86 589.649 L 1130.17 586.692 L 1143.79 583.745 C 1146.76 583.368 1149.79 582.526 1152.73 581.917 z"/>
<path transform="translate(0,0)" fill="#D8BF9B" d="M 358.453 574.132 L 368.743 576.083 C 373.415 576.967 378.236 578.185 382.948 578.723 L 392.148 580.737 L 403.348 582.646 C 408.824 583.677 414.325 584.634 419.78 585.766 L 425.247 586.575 C 430.454 587.655 435.674 588.877 440.915 589.77 L 457.669 593.42 C 462.227 594.23 469.875 594.618 473.174 597.865 C 469.231 608.167 466.407 618.794 463.355 629.382 C 444.86 707.547 447.387 787.068 480.394 861.414 C 472.421 860.764 464.731 863.773 457.321 866.326 C 442.615 851.712 426.999 842.188 406.506 837.666 C 385.322 832.991 352.748 834.711 333.934 846.774 C 314.364 747.021 319.966 668.802 358.453 574.132 z"/>
<path transform="translate(0,0)" fill="#4A2219" d="M 553.022 1526.13 L 583.966 1439.97 C 587.461 1430.39 590.058 1418 595.3 1409.44 L 596.922 1409.64 C 597.55 1410.48 597.643 1410.48 598.018 1411.64 C 600.462 1419.16 564.351 1512.64 559.061 1525.86 L 764.518 1525.83 C 765.304 1518.35 761.994 1499.36 765.988 1493.67 C 766.943 1492.31 769.396 1492.38 771.005 1492.09 L 771.382 1525.95 L 975.748 1526.12 C 971.735 1514.22 937.076 1419.58 938.312 1416.67 C 938.996 1415.07 939.843 1414.62 941.214 1413.64 C 944.229 1415.99 977.648 1513.38 981.866 1526.08 C 1014.76 1526.05 1047.8 1526.67 1080.67 1525.69 L 1083.98 1531.69 C 1089.38 1539.02 1093.3 1547.94 1097.54 1555.99 A 4199.31 4199.31 0 0 0 1119.37 1597.13 L 1202.5 1749.94 C 1207.26 1758.67 1220.25 1785.91 1225.89 1791.06 L 1225.76 1791.72 L 1227.8 1796.73 C 1232.52 1808.16 1305.64 1939.84 1307.81 1941.72 L 1308.97 1941.98 C 1311.22 1948.43 1361.45 2040.42 1366.93 2046.65 C 1366.23 2046.99 1365.77 2047.25 1365.04 2047.46 C 1358.95 2049.24 1189.43 2048.6 1172.62 2047.91 C 1170.42 2047.82 1169.04 2047.46 1167.07 2046.46 C 1163.65 2047.65 1163.47 2047.69 1160.06 2046.52 C 1159.21 2046.92 1158.66 2047.23 1157.78 2047.48 C 1150.3 2049.59 1078.59 2048.03 1066.26 2048.03 C 971.007 2048.05 875.568 2049.26 780.34 2047.98 C 776.848 2047.93 774.254 2048.09 771.137 2046.32 C 768.218 2047.09 767.824 2047.4 764.883 2046.31 C 764.154 2046.72 763.525 2047.13 762.734 2047.4 C 757.572 2049.13 412.068 2048.67 382.947 2047.94 C 380.165 2047.87 378.395 2047.65 375.881 2046.37 C 372.529 2047.69 372.391 2047.67 368.956 2046.58 C 367.494 2047.19 366.082 2047.72 364.492 2047.88 C 356.268 2048.67 347.462 2048.05 339.171 2048.05 L 288.753 2048.07 C 250.835 2048.07 212.26 2049.57 174.404 2047.93 C 172.376 2047.84 171.016 2047.46 169.15 2046.72 C 169.325 2046.62 169.514 2046.54 169.675 2046.42 C 172.995 2043.96 224.784 1948.88 226.702 1941.48 C 227.29 1941.15 227.973 1940.95 228.465 1940.49 C 230.74 1938.37 304.949 1805.07 308.226 1796.71 C 309.304 1795.16 309.629 1793.59 310.15 1791.81 L 310.953 1791.52 C 324.303 1765.73 339.021 1740.51 353.013 1715.05 L 423.641 1585.38 C 433.235 1567.77 443.429 1550.55 452.591 1532.7 L 456.47 1526.08 L 553.022 1526.13 z"/>
<path transform="translate(0,0)" fill="#B4913E" d="M 452.591 1532.7 C 484.837 1530.36 518.411 1531.77 550.788 1532.08 L 484.027 1719.55 C 480.322 1730.18 462.78 1785.01 459.147 1790.69 C 452.457 1793.36 326.106 1792.79 310.953 1791.52 C 324.303 1765.73 339.021 1740.51 353.013 1715.05 L 423.641 1585.38 C 433.235 1567.77 443.429 1550.55 452.591 1532.7 z"/>
<path transform="translate(0,0)" fill="#B4913E" d="M 1083.98 1531.69 C 1089.38 1539.02 1093.3 1547.94 1097.54 1555.99 A 4199.31 4199.31 0 0 0 1119.37 1597.13 L 1202.5 1749.94 C 1207.26 1758.67 1220.25 1785.91 1225.89 1791.06 L 1225.76 1791.72 C 1211.88 1793.17 1082.31 1792.67 1077.21 1790.64 C 1073.7 1786.15 1059.24 1741.57 1056.41 1733.63 C 1032.5 1666.47 1009.56 1598.79 984.474 1532.07 C 1017.5 1532.06 1051.01 1533.11 1083.98 1531.69 z"/>
<path transform="translate(0,0)" fill="#B4913E" d="M 308.226 1796.71 C 314.544 1798.88 450.753 1798.69 457.291 1796.37 C 449.189 1825.06 434.913 1859.27 424.727 1888.13 C 406.111 1940.88 388.483 1994.19 368.956 2046.58 C 367.494 2047.19 366.082 2047.72 364.492 2047.88 C 356.268 2048.67 347.462 2048.05 339.171 2048.05 L 288.753 2048.07 C 250.835 2048.07 212.26 2049.57 174.404 2047.93 C 172.376 2047.84 171.016 2047.46 169.15 2046.72 C 169.325 2046.62 169.514 2046.54 169.675 2046.42 C 172.995 2043.96 224.784 1948.88 226.702 1941.48 C 227.29 1941.15 227.973 1940.95 228.465 1940.49 C 230.74 1938.37 304.949 1805.07 308.226 1796.71 z"/>
<path transform="translate(0,0)" fill="#B4913E" d="M 1079.5 1796.26 C 1084.29 1798.52 1221.22 1799.02 1227.8 1796.73 C 1232.52 1808.16 1305.64 1939.84 1307.81 1941.72 L 1308.97 1941.98 C 1311.22 1948.43 1361.45 2040.42 1366.93 2046.65 C 1366.23 2046.99 1365.77 2047.25 1365.04 2047.46 C 1358.95 2049.24 1189.43 2048.6 1172.62 2047.91 C 1170.42 2047.82 1169.04 2047.46 1167.07 2046.46 C 1163 2035.63 1159.66 2024.47 1155.73 2013.58 L 1111.84 1890.76 C 1100.85 1859.52 1087.69 1828.36 1079.5 1796.26 z"/>
<path transform="translate(0,0)" fill="#B4913E" d="M 771.4 1532.02 L 978.202 1532.02 C 983.872 1549.46 990.743 1566.61 996.858 1583.91 L 1046.14 1722.25 C 1053.39 1742.68 1065.3 1770.86 1070.33 1790.74 C 1062.11 1793.69 894.482 1791.73 872.547 1791.73 C 840.84 1791.74 808.466 1793.33 776.838 1791.82 C 774.802 1791.72 773.28 1791.33 771.428 1790.46 L 771.4 1532.02 z"/>
<path transform="translate(0,0)" fill="#B4913E" d="M 556.711 1532.09 L 764.519 1531.97 L 764.526 1790.3 C 763.92 1790.63 763.283 1791.04 762.612 1791.26 C 757.316 1793.02 691.235 1791.9 681.949 1791.1 C 680.154 1790.95 679.028 1790.38 677.49 1789.52 C 676.655 1789.99 675.856 1790.47 674.929 1790.75 C 668.668 1792.64 589.154 1791.17 575.449 1791.18 C 541.154 1791.2 506.626 1792.59 472.355 1791.69 C 469.683 1791.62 467.654 1791.39 465.303 1790 C 468.028 1786.92 548.737 1554.18 556.711 1532.09 z"/>
<path transform="translate(0,0)" fill="#B4913E" d="M 463.385 1796.06 C 466.219 1797.39 468.631 1797.47 471.706 1797.54 C 543.364 1799.1 615.308 1797.85 687.001 1797.84 C 700.77 1797.84 755.561 1799.44 762.644 1797.21 C 763.323 1796.99 763.962 1796.61 764.585 1796.29 L 764.477 1970.22 L 764.486 2018.55 C 764.473 2027.57 763.802 2037.37 764.883 2046.31 C 764.154 2046.72 763.525 2047.13 762.734 2047.4 C 757.572 2049.13 412.068 2048.67 382.947 2047.94 C 380.165 2047.87 378.395 2047.65 375.881 2046.37 C 394.626 1988.7 415.564 1931.42 435.973 1874.31 L 452.762 1827.64 C 456.509 1817.36 461.032 1806.75 463.385 1796.06 z"/>
<path transform="translate(0,0)" fill="#B4913E" d="M 771.387 1796.28 C 773.913 1797.47 775.696 1797.64 778.468 1797.69 C 848.32 1799.03 918.439 1797.75 988.318 1797.75 C 1001.45 1797.75 1062.5 1799.56 1070.83 1797.02 C 1071.7 1796.76 1072.49 1796.38 1073.29 1795.94 C 1079.03 1821.94 1090.44 1848.25 1099.34 1873.42 C 1119.71 1931 1141.51 1988.35 1160.06 2046.52 C 1159.21 2046.92 1158.66 2047.23 1157.78 2047.48 C 1150.3 2049.59 1078.59 2048.03 1066.26 2048.03 C 971.007 2048.05 875.568 2049.26 780.34 2047.98 C 776.848 2047.93 774.254 2048.09 771.137 2046.32 C 772.575 2019.74 771.006 1992.5 771.056 1965.85 L 771.387 1796.28 z"/>
</svg>
