<?xml version="1.0" encoding="UTF-8"?>
<svg version="1.1" xmlns="http://www.w3.org/2000/svg" viewBox="0 0 1536 2048">
<!-- RAYS: Neon green radiating lines - ANIMATE: slow rotation or pulse -->
<path fill="#CCFF00" d="M 1440.97 519.395 C 1445.5 518.111 1449.96 516.364 1454.67 517.588 L 1455.64 518.825 C 1452.8 521.639 1448.79 522.038 1445.01 522.771 C 1437.28 524.523 1428.92 527.113 1421.08 528.008 C 1418.54 528.678 1415.75 529.18 1413.3 530.102 C 1411.31 530.795 1409.03 531.388 1407.15 532.297 C 1402.52 529.717 1383.76 535.12 1377.97 536.592 L 1371.74 537.582 L 1367.6 538.806 C 1362.06 539.521 1356.62 540.558 1351.14 541.637 C 1336.43 544.722 1321.55 547.268 1306.88 550.54 L 1294.08 553.084 L 1290.09 553.779 A 1203.72 1203.72 0 0 1 1250.79 561.679 C 1239.61 564.063 1228.45 566.596 1217.23 568.773 L 1210.39 570.65 L 1208.43 566.432 L 1214.89 564.853 C 1225.98 563.107 1236.81 559.945 1247.96 558.327 C 1260.68 554.892 1274.2 552.932 1287.15 550.332 L 1291.11 549.193 L 1302.2 547.187 C 1316.79 543.343 1332.24 541.049 1347.08 538.221 A 354.221 354.221 0 0 1 1362.93 535.253 C 1364.85 534.602 1366.92 534.435 1368.92 534.159 L 1373.22 533.303 C 1382.16 531.081 1391.34 529.865 1400.29 527.573 C 1400.73 527.758 1401.14 527.988 1401.59 528.128 C 1404.08 528.901 1406.62 527.921 1408.74 526.722 L 1418.1 524.267 C 1425.7 522.367 1433.26 520.761 1440.97 519.395 z"/>
<path fill="#CCFF00" d="M 774.824 0 L 779.2 0 C 779.419 28.9694 780.404 58.2439 779.23 87.1828 C 779.948 111.242 779.295 135.443 779.258 159.517 L 779.485 263.211 L 775.018 263.39 L 775.349 78.3753 L 774.824 0 z"/>
<path fill="#CCFF00" d="M 92.1465 522.614 C 87.5889 522.034 82.1707 522.019 78.9047 518.386 L 79.7174 517.19 C 83.8613 516.309 87.4578 517.431 91.4858 518.383 L 99.5039 519.852 C 105.03 520.705 119.856 521.853 123.649 525.024 L 128.977 524.73 L 133.089 526.67 L 136.144 526.676 C 151.528 530.839 167.662 531.988 183.065 536.103 A 363.611 363.611 0 0 1 200.946 539.275 L 248.846 548.973 L 254.551 549.962 C 263.006 551.454 271.599 552.696 279.958 554.649 C 284.537 555.518 289.19 556.258 293.728 557.305 A 1347.88 1347.88 0 0 1 324.334 563.982 C 327.344 564.503 330.359 565.102 333.39 565.481 C 332.821 567.08 332.343 568.839 331.615 570.364 C 327.928 569.21 324.042 568.482 320.277 567.601 L 289.687 560.735 C 285.886 560.247 282.012 559.315 278.239 558.598 A 221.604 221.604 0 0 1 260.8 555.41 C 255.116 554.856 249.316 553.404 243.694 552.35 A 3902.68 3902.68 0 0 1 195.911 542.761 C 188.375 541.443 180.538 540.476 173.186 538.357 C 159.205 537.264 144.61 533.376 130.731 530.907 L 130.273 531.024 C 128.034 530.15 125.529 529.825 123.168 529.361 L 121.845 528.863 C 114.178 526.343 105.096 525.253 97.1411 523.811 L 92.1465 522.614 z"/>
<path fill="#CCFF00" d="M 542.126 235.71 C 518.099 193.385 494.568 150.601 471.337 107.831 C 465.977 97.9626 460.717 88.0212 455.205 78.2374 C 451.929 72.4227 447.585 66.3789 445.074 60.2455 C 444.145 57.9751 443.516 56.3805 444.515 54.1615 C 447.868 55.8248 450.336 61.321 452.252 64.5252 C 461.151 79.4069 468.661 95.0755 477.209 110.16 C 500.205 150.743 523.452 191.363 545.41 232.514 A 2107.62 2107.62 0 0 1 585.306 304.194 L 580.961 306.257 C 573.126 285.539 553.499 256.316 542.126 235.71 z"/>
<path fill="#CCFF00" d="M 1092.15 83.7548 C 1095.28 78.1227 1104.73 58.1183 1109.93 55.6111 L 1110.92 57.2231 C 1110.48 64.2312 1102.61 75.4526 1098.58 81.3694 C 1093.92 90.7782 1087.61 106.53 1080.76 114.16 C 1072.92 130.589 1063.57 148.996 1053.34 164.015 C 1051.29 167.76 1049.29 171.536 1047 175.144 L 1036.73 193.531 A 2596.37 2596.37 0 0 1 1020.72 222.654 L 974.555 307.792 L 969.986 305.936 A 3884.11 3884.11 0 0 1 1018.53 216.697 A 992.254 992.254 0 0 1 1033.28 190.666 C 1035.49 185.172 1039 179.699 1042.15 174.681 C 1044.7 169.644 1047.43 164.816 1050.39 160.007 C 1054.23 147.678 1067.72 128.056 1074.57 116.295 C 1079.93 105.213 1086.17 94.5152 1092.15 83.7548 z"/>
<path fill="#CCFF00" d="M 1315.98 250.307 A 8197.18 8197.18 0 0 0 1439.24 158.357 C 1448.63 151.272 1485.26 121.053 1492.8 118.431 L 1494.31 119.174 C 1493.99 122.37 1490.12 124.944 1487.64 126.942 C 1472.7 138.997 1456.87 150.254 1441.62 161.955 A 4841.95 4841.95 0 0 1 1321 251.993 C 1313.47 257.625 1305.86 264.514 1297.82 269.291 A 590.645 590.645 0 0 1 1273.09 287.708 C 1265.84 293.61 1257.9 300.603 1249.84 305.275 C 1219.41 329.017 1187.57 351.329 1156.42 374.162 C 1144.77 382.703 1118.86 399.096 1111.21 409.154 L 1107.72 405.648 C 1125.06 389.925 1145.68 376.925 1164.56 363.077 C 1192.07 342.905 1219.03 321.974 1246.77 302.105 C 1252.12 295.468 1266.91 286.849 1274.41 281.447 A 713.218 713.218 0 0 1 1294.76 266.043 C 1299.55 260.153 1309.6 254.593 1315.98 250.307 z"/>
<path fill="#CCFF00" d="M 62.3094 135.728 C 58.817 133.384 55.0968 131.077 51.8346 128.423 C 49.8204 126.784 48.838 125.287 48.5192 122.765 L 50.617 122.425 C 55.853 123.892 60.2411 128.064 64.4473 131.394 L 74.4207 138.733 C 79.6461 142.557 85.2834 146.215 90.1748 150.44 C 92.9996 152.208 95.6991 153.911 98.1982 156.139 C 101.198 158.258 104.764 160.317 107.347 162.913 L 112.957 166.747 L 117.246 170.112 C 134.549 182.551 151.401 195.713 168.985 207.742 L 175.027 212.222 C 178.86 214.925 184.076 217.764 187.286 221.084 C 189.766 222.865 192.322 224.59 194.736 226.458 C 199.498 229.93 204.827 233.271 209.136 237.274 A 423.237 423.237 0 0 1 227.069 250.221 A 1610.42 1610.42 0 0 0 263.595 276.795 L 279.864 288.675 C 288.405 295.006 302.116 303.086 309.092 310.281 C 312.046 312.301 315.131 314.235 317.927 316.465 C 330.331 324.036 341.445 333.643 353.54 341.672 C 364.392 349.703 375.99 357.295 386.27 366.016 C 404.402 378.654 424.262 391.093 440.664 405.886 L 442.299 409.169 L 441.434 409.92 L 437.011 408.946 C 425.957 396.644 396.244 378.431 382.03 368.514 C 372.435 361.92 362.575 355.297 353.68 347.778 C 339.759 339.506 326.367 327.953 313.037 318.581 C 310.225 316.7 307.541 314.534 304.821 312.516 C 295.435 308.123 285.862 299.299 277.592 293.052 L 260.614 280.663 C 249.529 273.103 237.542 265.598 227.619 256.532 C 219.769 251.632 212.404 245.213 205.088 239.525 C 198.905 235.412 193.051 230.887 187.157 226.378 L 184.034 224.607 L 176.202 218.964 L 166.611 211.981 A 3960.2 3960.2 0 0 0 114.876 174.404 L 106.088 168.006 L 103.032 165.637 L 97.2112 161.253 A 326.33 326.33 0 0 1 87.6929 154.007 C 81.2554 149.997 75.1082 144.904 68.9792 140.404 L 62.3094 135.728 z"/>
</svg>

