<?xml version="1.0" encoding="UTF-8"?>
<svg version="1.1" xmlns="http://www.w3.org/2000/svg" viewBox="0 0 1536 2048">
<!-- HALO: The sun/circle behind figure - ANIMATE: subtle pulse -->
<path fill="#D8BF9B" d="M 598.544 327.983 C 655.068 304.585 713.656 290.794 775.065 290.973 C 782.406 291.144 790.117 290.83 797.391 291.745 C 854.195 293.954 905.094 306.472 957.073 329.177 L 960.566 330.853 C 1005.82 354.409 1050.91 383.032 1085.5 421.096 L 1088.54 424.42 C 1130.38 470.866 1157.78 512.557 1182.13 570.321 L 1184.52 575.6 C 1221.28 659.163 1227.07 759.323 1207.99 847.963 C 1174.52 833.964 1145.21 827.779 1109.94 842.104 C 1094.61 848.336 1081.66 857.801 1069.94 869.371 C 1068.48 866.157 1067.59 862.833 1064.15 861.516 C 1063.24 861.164 1063.58 861.28 1062.52 861.077 C 1060.59 861.859 1058.53 861.961 1056.48 862.187 C 1052.95 861.948 1049.68 862.588 1046.06 862.052 L 1044.87 860.132 C 1037.07 866.971 1025.46 856.672 1013.99 876.041 A 246.773 246.773 0 0 0 939.415 713.817 C 892.436 668.142 831.262 642.891 765.592 643.868 C 701.195 644.826 636.744 671.397 591.758 717.877 C 559.141 751.577 537.774 790.154 527.81 836.021 C 525.124 848.385 522.748 861.576 522.976 874.259 C 522.378 874.78 521.765 874.968 521.037 875.264 C 512.412 866.673 502.341 863.604 490.548 861.809 L 485.13 861.132 L 480.394 861.414 C 472.421 860.764 464.731 863.773 457.321 866.326 C 442.615 851.712 426.999 842.188 406.506 837.666 C 385.322 832.991 352.748 834.711 333.934 846.774 C 314.364 747.021 319.966 668.802 358.453 574.132 L 360.468 570.066 C 383.141 514.692 418.142 465.239 460.077 422.884 L 464.202 418.779 C 502.95 381.266 545.83 352.156 594.756 329.658 L 598.544 327.983 z"/>
<path fill="#D8BF9B" d="M 960.566 330.853 C 1005.82 354.409 1050.91 383.032 1085.5 421.096 C 1058.25 438.996 1031.89 459.314 1005.73 478.813 C 1001.63 474.853 997.622 470.598 993.279 466.916 C 982.674 454.467 962.832 440.959 949.023 432.264 C 940.067 425.419 922.264 419.286 915.778 412.1 L 916.267 410.937 C 918.217 408.927 919.461 405.722 920.759 403.237 C 925.495 398.904 933.634 380.401 936.936 374.094 A 3667.45 3667.45 0 0 0 960.566 330.853 z"/>
<path fill="#D8BF9B" d="M 464.202 418.779 C 502.95 381.266 545.83 352.156 594.756 329.658 A 1691.27 1691.27 0 0 1 621.946 379.207 C 627.947 390.52 633.567 402.59 640.708 413.229 C 606.131 430.189 576.517 452.031 548.95 478.765 L 540.189 473.264 C 529.921 463.068 514.426 454.341 502.292 446.166 C 497.574 441.819 490.82 437.48 485.184 434.425 C 481.305 430.922 476.563 428.026 472.28 425.011 C 470.171 422.696 466.738 420.693 464.202 418.779 z"/>
<path fill="#D8BF9B" d="M 598.544 327.983 C 655.068 304.585 713.656 290.794 775.065 290.973 L 775.211 346.709 L 774.992 381.845 L 761.297 382.303 C 741.646 384.071 719.972 384.971 701.268 391.538 C 684.487 395.243 668.133 401.34 652.252 407.828 L 644.192 410.939 C 629.743 383.082 614.683 354.891 598.544 327.983 z"/>
<path fill="#D8BF9B" d="M 797.391 291.745 C 854.195 293.954 905.094 306.472 957.073 329.177 C 947.709 344.092 938.763 359.749 931.269 375.698 C 925.467 383.677 920.991 393.34 916.236 402.002 C 914.943 404.435 913.264 407 912.409 409.608 L 910.544 410.89 C 891.445 402.96 871.758 394.878 851.372 390.931 L 848.087 390.112 C 829.844 385.575 811.056 383.144 792.341 381.644 C 788.144 381.125 783.79 381.212 779.561 381.089 C 778.601 369.562 779.347 357.425 779.335 345.829 C 780.038 327.832 779.801 309.735 779.892 291.721 L 797.391 291.745 z"/>
<path fill="#D8BF9B" d="M 1088.54 424.42 C 1130.38 470.866 1157.78 512.557 1182.13 570.321 C 1169.18 574.267 1155.75 576.912 1142.55 579.908 L 1139.17 580.359 C 1134.8 581.307 1130.26 582.071 1125.97 583.306 L 1114.16 585.456 C 1108.23 586.69 1101.2 589.01 1095.21 589.095 L 1090.36 590.205 L 1084.13 591.361 L 1077.47 592.915 L 1075.76 586.945 C 1070.08 571.964 1063.53 557.616 1054.69 544.206 C 1044.22 522.122 1025.42 499.923 1008.25 482.73 C 1014.29 475.413 1025.76 469.198 1033.58 463.571 A 2960.95 2960.95 0 0 1 1088.54 424.42 z"/>
<path fill="#D8BF9B" d="M 460.077 422.884 C 462.849 424.309 465.513 425.727 468.107 427.464 C 472.865 431.065 477.572 434.902 482.688 437.979 C 488.486 442.485 494.687 446.41 500.83 450.42 C 513.224 459.162 525.466 468.795 538.21 476.981 L 546.11 482.069 C 542.744 485.592 539.204 489.046 536.014 492.724 C 530.25 498.763 524.585 505.226 519.899 512.145 C 508.436 527.744 492.926 549.219 486.461 567.405 C 482.277 575.417 478.664 583.654 475.018 591.92 C 469.055 590.996 463.143 589.793 457.224 588.629 L 446.037 586.428 C 440.083 585.178 434.135 583.801 428.076 583.18 C 424.199 581.889 419.728 581.343 415.7 580.544 L 407.079 578.97 C 403.79 578.233 400.382 577.791 397.057 577.221 L 388.149 575.361 L 380.222 573.894 C 373.756 572.277 367.023 571.297 360.468 570.066 C 383.141 514.692 418.142 465.239 460.077 422.884 z"/>
<path fill="#D8BF9B" d="M 1152.73 581.917 C 1162.78 581.794 1174.41 577.287 1184.52 575.6 C 1221.28 659.163 1227.07 759.323 1207.99 847.963 C 1174.52 833.964 1145.21 827.779 1109.94 842.104 C 1094.61 848.336 1081.66 857.801 1069.94 869.371 C 1068.48 866.157 1067.59 862.833 1064.15 861.516 C 1063.24 861.164 1063.58 861.28 1062.52 861.077 C 1064.94 851.429 1073.82 836.177 1077.81 825.942 C 1086.62 800.883 1096.42 770.381 1096.93 743.644 C 1097.66 740.342 1097.73 737.258 1097.78 733.9 C 1099.89 717.873 1099.06 701.037 1097.73 684.976 C 1097.8 682.18 1097.27 679.262 1096.96 676.477 C 1097.16 667.758 1094.78 658.167 1093.38 649.563 C 1089.77 632.591 1086.18 615.333 1079.25 599.358 L 1078.94 597.883 L 1083.33 595.877 C 1086.71 595.414 1090.1 594.565 1093.45 593.886 L 1099.29 592.686 L 1114.86 589.649 L 1130.17 586.692 L 1143.79 583.745 C 1146.76 583.368 1149.79 582.526 1152.73 581.917 z"/>
<path fill="#D8BF9B" d="M 358.453 574.132 L 368.743 576.083 C 373.415 576.967 378.236 578.185 382.948 578.723 L 392.148 580.737 L 403.348 582.646 C 408.824 583.677 414.325 584.634 419.78 585.766 L 425.247 586.575 C 430.454 587.655 435.674 588.877 440.915 589.77 L 457.669 593.42 C 462.227 594.23 469.875 594.618 473.174 597.865 C 469.231 608.167 466.407 618.794 463.355 629.382 C 444.86 707.547 447.387 787.068 480.394 861.414 C 472.421 860.764 464.731 863.773 457.321 866.326 C 442.615 851.712 426.999 842.188 406.506 837.666 C 385.322 832.991 352.748 834.711 333.934 846.774 C 314.364 747.021 319.966 668.802 358.453 574.132 z"/>
</svg>

