<?xml version="1.0" encoding="UTF-8"?>
<svg version="1.1" xmlns="http://www.w3.org/2000/svg" viewBox="0 0 1536 2048">
<!-- CLOUDS: Clay colored cloud shapes - ANIMATE: gentle horizontal drift -->
<path fill="#D18C82" d="M 333.934 846.774 C 352.748 834.711 385.322 832.991 406.506 837.666 C 426.999 842.188 442.615 851.712 457.321 866.326 C 464.731 863.773 472.421 860.764 480.394 861.414 L 485.13 861.132 L 490.548 861.809 C 502.341 863.604 512.412 866.673 521.037 875.264 C 521.765 874.968 522.378 874.78 522.976 874.259 C 522.251 892.423 523.339 910.286 526.9 928.121 C 540.136 994.394 581.038 1051.64 637.014 1088.99 L 98.7745 1088.26 C 98.6546 1080.9 98.8009 1073.6 99.0954 1066.24 C 100.907 1063.18 102.859 1060.18 105.55 1057.8 C 113.97 1050.36 127.8 1052.48 138.135 1052.88 C 131.313 1045.65 125.169 1038.83 125.175 1028.25 C 125.18 1018.4 129.329 1009.24 136.152 1002.27 C 141.588 996.717 149.175 991.874 156.82 990.15 C 168.274 987.566 181.503 989.007 193.252 988.885 A 7526.08 7526.08 0 0 1 278.879 988.587 C 276.511 982.219 274.096 975.838 272.447 969.239 C 264.666 938.105 273.534 905.406 293.013 880.343 C 297.779 874.211 306.003 868.808 309.698 862.258 C 309.907 861.889 310.101 861.512 310.302 861.139 C 313.011 861.387 330.421 849.313 333.934 846.774 z"/>
<path fill="#D18C82" d="M 1069.94 869.371 C 1081.66 857.801 1094.61 848.336 1109.94 842.104 C 1145.21 827.779 1174.52 833.964 1207.99 847.963 C 1214.68 853.637 1222.86 858.132 1229.98 863.343 C 1230.47 863.273 1231.04 863.353 1231.43 863.052 C 1231.54 863.431 1231.63 863.813 1231.75 864.188 C 1233.47 869.634 1244.51 878.948 1248.38 884.42 C 1269.91 914.864 1271.31 954.931 1258.24 988.914 L 1327.26 988.945 C 1343.4 988.921 1362.79 986.943 1378.4 990.938 C 1385.65 992.794 1392.32 996.959 1397.57 1002.24 C 1405.42 1010.14 1411.22 1021.52 1410.92 1032.87 C 1410.68 1041.46 1406.55 1047.73 1401.64 1054.42 C 1413.79 1052.68 1422.23 1052.48 1432.37 1060.27 A 58.734 58.734 0 0 1 1434.02 1061.59 C 1438.32 1070.52 1438.67 1078.39 1438.53 1088.21 C 1383.57 1087.6 1328.55 1088.95 1273.58 1088.98 L 893.737 1088.87 C 906.274 1080.4 918.934 1072.02 930.529 1062.27 C 972.459 1027.02 999.515 980.143 1009.85 926.486 C 1013.07 909.822 1014.03 892.991 1013.99 876.041 C 1025.46 856.672 1037.07 866.971 1044.87 860.132 L 1046.06 862.052 C 1049.68 862.588 1052.95 861.948 1056.48 862.187 C 1058.53 861.961 1060.59 861.859 1062.52 861.077 C 1063.58 861.28 1063.24 861.164 1064.15 861.516 C 1067.59 862.833 1068.48 866.157 1069.94 869.371 z"/>
</svg>

