<?xml version="1.0" encoding="utf-8" ?><svg xmlns="http://www.w3.org/2000/svg" viewBox="0 0 1024 1024">
<!-- ACCENT: Neon energy paths (#CCFF00) -->

<path fill="#CCFF00" d="M841.641 482.796C811.999 455.821 803.681 412.537 821.212 376.496C838.743 340.455 877.929 320.279 917.449 326.944C955.407 333.347 985.136 363.105 991.5 401.07C997.864 439.034 979.465 476.861 945.67 495.291C911.874 513.722 870.111 508.706 841.641 482.796Z"/>
<path fill="#CCFF00" d="M332.402 331.647C326.635 313.855 337.582 293.068 357.141 292.989C358.276 293.005 362.12 293.151 363.035 293.058C368.916 293.277 373.764 293.227 379.64 293.071L532.877 292.931L575.231 292.937C588.189 292.941 599.325 292.333 612.158 294.668L615.405 295.598C633.744 301.727 640.046 314.474 640.079 332.971C639.32 335.339 638.882 336.909 638.361 339.338C635.038 349.364 625.776 361.026 615.004 363.18L613.671 364.015C608.055 365.054 591.701 364.71 585.424 364.701L533.975 364.615L468.496 364.641C459.939 364.647 443.308 365.157 435.558 364.477L433.863 364.594L376.674 364.895C353.981 365.039 346.932 355.965 334.382 338.137C334.182 336.388 333.083 333.295 332.402 331.647Z"/>
</svg>