<?xml version="1.0" encoding="utf-8" ?><svg xmlns="http://www.w3.org/2000/svg" viewBox="0 0 1024 1024">
<!-- BACKGROUND: Clouds (#D18C82), Ground structures (#965846), muted elements -->

<path fill="#D18C82" d="M272.002 8.63084C287.226 28.9385 301.894 54.4015 317.142 74.4751C321.521 72.7773 332.207 70.0693 336.54 69.8833C348.503 69.37 349.781 69.97 360.45 63.8591C376.785 54.5029 393.659 56.9837 411.1 62.2099C407.355 63.7349 401.354 63.6877 397.022 64.9935C386.499 68.1652 376.69 73.4902 365.864 75.4844C355.376 77.1671 345.411 75.524 335.195 79.2137C319.43 84.8481 313.075 101.064 300.529 110.767C286.7 121.463 267.829 123.227 253.813 133.102C238.43 143.939 243.213 167.035 235.529 181.914C229.768 193.07 215.573 199.35 211.338 211.65C207.612 222.903 213.292 233.479 212.414 245.404C211.119 263 192.913 274.335 199.945 292.002C205.176 305.148 216.79 311.603 220.991 325.952C224.934 339.418 216.528 351.572 221.814 363.587C226.569 374.394 240.292 381.879 247.017 391.53C256.535 405.189 252.013 425.929 269.201 433.664C272.857 435.309 276.203 435.926 280.153 436.109C281.965 448.449 290.072 472.325 293.703 485.122C299.86 506.818 306.418 532.823 314.207 553.847L316.879 563.191C289.504 595.443 267.425 614.931 230.842 636.881C205.9 651.846 184.205 658.576 159.03 671.577C112.467 695.622 70.9406 737.277 75.847 793.847C77.2634 810.177 84.0022 832.033 97.1131 842.908C99.4425 844.84 102.448 846.773 105.002 848.441C93.3766 849.294 66.246 851.71 55.9092 849.794C51.3338 848.971 46.9689 847.243 43.0704 844.711C30.8476 836.714 24.1561 820.825 21.4934 807.152C8.19793 738.878 64.9241 682.359 124.915 661.745C137.551 657.402 153.016 650.349 164.783 644.172C200.999 625.159 239.142 599.215 262.045 564.687C257.388 547.475 252.12 530.202 247.753 512.885L236.458 469.224C235.178 464.375 231.583 448.19 229.171 444.709C224.364 437.772 215.376 429.257 209.86 421.892C162.29 421.54 114.717 421.588 67.1482 422.034C56.1814 422.03 9.46791 422.784 3.24449 420.662C0.977972 416.943 3.26617 414.656 5.2914 411.385C10.0946 403.628 15.4422 396.201 20.4246 388.554L73.9199 307.531L167.222 165.296L234.382 64.0373C242.231 52.1965 250.152 40.4031 258.143 28.6578C262.637 22.0153 267.097 14.9113 272.002 8.63084Z"/>
<path fill="#D18C82" d="M416.031 255.205L417.676 255.514C424.972 255.003 438.432 255.463 446.201 255.47L447.383 255.278C463.229 255.929 481.805 255.244 497.933 255.451C507.485 255.574 527.23 256.075 536.266 255.347L537.274 255.738C545.43 255.753 552.671 255.577 560.857 255.292C562.173 255.365 563.805 255.509 565.072 255.478C574.66 255.756 584.343 255.53 593.938 255.453C602.428 255.385 607.974 256.804 612.433 264.582C612.805 265.671 613.315 267.376 613.314 268.503C613.281 292.842 613.653 317.193 613.403 341.533C613.327 348.978 609.857 355.713 602.066 357.375C598.202 358.199 594.232 357.983 590.295 357.965C548.252 357.672 506.208 357.668 464.165 357.954L461.998 357.798C456.562 357.943 451.059 357.854 445.551 358.001L444.055 357.662C431.192 358.256 418.078 357.567 405.197 358.012L403.849 357.933L310.211 357.791C295.853 357.758 275.047 357.022 261.084 357.798L259.822 357.421C250.299 357.731 239.583 357.469 229.973 357.448C229.489 345.527 229.675 332.367 229.635 320.364C229.528 298.607 229.586 276.85 229.81 255.095C258.409 255.139 287.151 255.781 315.743 255.432L317.089 255.251C326.391 255.729 339.26 255.204 348.835 255.173L416.031 255.205Z"/>
<path fill="#D18C82" d="M739.048 194.676C739.23 194.656 739.412 194.635 739.593 194.615C754.3 193.452 768.457 200.463 776.445 212.866C784.665 225.459 787.731 236.576 805.517 238.232C829.185 240.435 833.868 215.384 856.532 214.451C871.148 213.849 883.007 218.975 891.447 231.277C896.235 238.235 898.47 243.152 904.749 248.771C913.261 256.389 931.033 258.771 940.473 252.483C951.233 245.317 955.037 235.845 970.689 234.649C981.241 233.842 990.346 237.001 999.082 244.027C1006.22 249.77 1013.27 262.124 1015.13 271.296C1015.38 272.559 1014.59 273.141 1013.87 273.786C1010 273.239 1008.03 264.535 1006.28 260.681C1005.08 257.994 1003.6 255.441 1001.86 253.065C998.325 248.28 994.171 245.071 989.019 242.218C954.503 226.969 954.856 261.597 923.343 260.091C890.415 258.518 894.687 225.066 866.182 218.748C838.6 212.634 833.106 244.902 806.016 242.134C797.254 242.469 783.505 235.287 779.598 226.183C767.8 198.692 737.776 188.946 714.711 210.376C712.509 212.422 706.925 220.474 703.373 220.272L703.065 219.365C703.59 216.947 704.246 215.759 705.778 213.734C713.851 203.162 725.845 196.291 739.048 194.676Z"/>
<path fill="#D18C82" d="M733.449 227.194C749.082 225.18 763.402 232.974 771.953 245.768C780.509 258.571 783.724 268.493 801.055 270.498C823.2 273.549 829.015 249.111 848.889 246.295C861.535 244.504 875.53 248.856 883.673 259.055C890.39 267.466 892.934 276.151 902.184 282.591C906.673 285.738 911.931 287.609 917.399 288.003C940.99 289.925 941.307 270.701 962.598 267.151C973.167 265.368 984.007 267.963 992.621 274.341C994.863 275.977 999.774 280.201 1001.24 282.409C1003.84 286.353 1013.52 301.778 1010.17 305.817C1008.31 305.999 1007.42 304.878 1006.81 303.121C1002.14 289.835 997.333 282.312 984.989 274.516C976.668 270.399 966.708 268.727 957.989 272.701C950.241 276.232 945.019 283.18 937.637 287.448C922.862 295.865 904.204 292.719 893.008 279.921C883.926 269.678 881.739 255.475 863.82 250.933C854.226 248.435 841.854 250.662 834.774 257.995C822.964 270.228 812.312 277.721 794.538 273.432C784.751 271.275 776.809 263.196 772.501 254.242C759.92 228.092 728.984 223.007 708.419 243.372C706.402 245.368 700.916 253.282 697.833 252.407C697.172 250.205 699.618 246.597 701.017 245.008C710.105 234.689 719.668 228.651 733.449 227.194Z"/>
<path fill="#D18C82" d="M744.883 162.702C747.536 162.627 750.191 162.75 752.826 163.069C765.649 164.543 776.276 171.522 782.774 182.472C785.513 186.307 787.942 191.909 791.022 195.356C807.557 213.864 827.084 205.97 841.827 190.715C848.089 184.236 861.94 181.942 870.485 183.149C881.522 184.707 890.956 190.853 897.195 200.238C905.004 212.606 909.573 221.645 925.998 223.665C940.522 225.883 948.471 217.609 958.473 209.513C973.99 196.954 999.212 202.254 1010.58 218.035C1014.97 224.128 1020.5 234.585 1021.55 242.139C1021.63 242.738 1020.83 242.99 1020.37 243.262C1015.13 242.102 1013.06 228.585 1009.25 223.599C1004.65 217.578 1003.11 215.636 996.823 211.403C993.03 209.362 989.476 207.939 985.217 207.094C957.398 201.571 956.167 230.502 926.914 227.947C894.247 225.094 900.956 194.011 872.148 187.636C863.664 185.781 851.001 187.228 844.627 193.463C832.893 205.02 822.14 212.729 804.865 208.875C780.011 203.331 781.921 171.953 755.718 167.378C741.033 164.814 729.123 167.903 718.098 178.409C715.733 180.662 711.826 187.936 708.602 187.092L708.177 185.806C708.55 183.56 709.278 181.85 710.881 180.177C722.114 168.46 729.113 163.829 744.883 162.702Z"/>
<path fill="#D18C82" d="M152.515 924.694C190.229 925.684 183.344 950.403 203.834 958.274C207.831 959.809 212.352 960.146 216.586 959.592C236.232 957.024 238.795 934.901 255.335 927.748C260.587 925.477 267.067 924.758 272.746 924.978C301.596 926.096 300.611 951.928 319.431 958.844C323.48 960.332 328.008 960.765 332.292 960.301C351.501 958.223 354.013 936.993 370.161 929.366C376.156 926.535 382.817 925.853 389.37 926.35C419.602 928.641 416.032 953.362 435.219 960.095C461.385 969.277 465.906 939.204 485.109 930.281C490.589 927.734 496.467 926.814 502.476 926.875C531.166 927.166 530.769 953.634 551.829 960.894C556.158 962.397 560.806 962.736 565.308 961.876C582.556 958.754 585.126 939.319 599.827 932.142C606.232 929.016 613.739 927.942 620.799 928.653C650.69 931.662 647.604 956.067 668.502 962.664C673.15 964.15 678.125 964.281 682.844 963.042C698.64 958.794 701.526 941.494 715.203 934.482C720.626 931.701 726.979 930.599 733.028 930.466C763.976 929.787 762.608 957.668 783.69 963.796C787.772 964.946 792.073 965.08 796.218 964.186C812.614 960.792 816.059 943.313 829.748 936.111C839.417 931.024 852.542 930.801 862.837 933.986C875.345 937.856 883.118 947.994 888.741 959.353C889.651 961.191 889.866 963.275 889.248 965.217L888.412 965.591C887.727 965.27 887.074 964.975 886.582 964.37C885.314 962.811 884.604 960.351 883.706 958.539C881.747 954.587 879.149 950.668 876.264 947.334C869.294 939.28 860.603 935.93 850.178 935.219C840.177 934.608 827.051 939.569 821.548 947.836C811.219 963.353 797.843 973.319 778.689 966.007C768.35 962.06 765.148 953.605 757.871 944.911C745.064 929.609 719.113 930.293 706.956 946.248C694.833 966.233 675.168 976.34 654.622 958.652C650.352 954.976 646.96 947.996 642.858 943.24C629.708 927.994 603.46 928.254 591.013 944.254C587.349 949.397 584.457 954.01 579.821 958.307C567.319 970.261 546.936 967.45 536.206 954.725C528.782 945.92 524.773 936.85 513.073 932.495C500.109 927.668 483.248 931.288 475.029 942.776C466.044 955.336 458.735 966.469 441.362 964.839C423.978 963.622 420.186 952.194 410.836 940.209C406.007 934.079 396.636 929.999 388.857 929.797C377.631 928.602 365.131 933.751 359.119 943.788C351.353 956.753 342.156 965.328 325.733 964.026C310.261 962.8 303.868 950.808 295.312 939.696C285.384 925.773 258.162 924.311 247.469 937.822C237.03 951.01 229.972 964.967 210.004 963.439C197.338 962.47 190.267 954.105 183.715 944.246C177.528 934.937 168.843 928.818 157.472 928.243C141.998 926.951 131.687 933.658 123.198 946.194C121.278 949.029 117.872 954.403 115.175 956.697C113.386 956.748 114.272 956.901 112.508 955.881L112.282 954.909C114.042 951.829 121.061 942.696 123.525 939.791C131.907 929.908 139.858 925.765 152.515 924.694Z"/>
<path fill="#D18C82" d="M153.58 888.712C187.88 889.418 182.244 910.549 201.385 919.502C205.916 921.622 211.07 922.332 216.031 921.805C237.409 919.535 239.276 897.448 257.147 890.823C263.101 888.616 269.875 888.193 276.125 889.155C302.497 893.212 300.751 913.841 318.67 921.658C322.959 923.491 327.656 924.161 332.287 923.601C352.474 921.304 354.261 898.883 372.404 892.798C385.464 888.417 399.419 889.32 410.328 898.312C419.605 905.957 422.402 917.718 433.957 922.624C437.935 924.271 442.25 924.939 446.54 924.572C467.195 922.961 468.438 899.67 487.299 893.642C500.797 889.327 515.021 890.022 526.023 899.861C534.927 907.824 538.135 918.799 549.797 923.742C554.452 925.694 559.545 926.36 564.545 925.67C585.748 922.66 584.929 902.162 603.165 895.086C617.137 889.664 635.307 892.598 645.404 903.824C652.457 911.666 655.011 920.471 666.3 924.91C670.523 926.571 675.211 927.597 679.86 927.092C699.829 924.92 700.607 902.955 719.097 896.603C726.161 894.177 730.27 893.549 737.518 894.214C763.374 896.587 761.852 917.087 780.87 925.943C784.755 927.752 789.852 928.217 794.195 927.872C814.012 927.078 815.984 905.308 833.112 899.226C860.139 889.627 879.08 902.227 889.66 927.226C890.122 928.318 889.865 929.508 889.441 930.493L888.511 930.57C884.061 927.622 879.646 915.134 874.772 910.283C867.776 903.321 861.572 901.303 852.415 900.036C815.195 899.174 825.408 925.973 795.461 931.29C784.523 933.154 771.385 927.048 765.279 918.143C754.606 902.58 746.905 896.185 727.557 898.316C704.714 900.113 703.727 928.325 680.816 930.343C671.861 931.763 658.153 927.171 652.671 919.475C641.872 904.066 633.006 893.524 612.566 896.086C587.52 899.226 590.671 926.083 565.27 929.18C553.925 930.594 542.655 926.037 535.483 917.134C530.835 911.373 528.009 905.889 521.914 901.216C514.273 895.357 505.393 893.634 496.057 894.917C482.683 896.755 476.234 904.778 468.907 915.1C464.221 921.701 456.233 927.345 448.113 927.938C421.502 929.881 422.238 913.75 407.064 900.177C400.638 894.43 389.816 892.577 381.605 893.713C367.289 895.247 360.98 905.002 353.16 915.643C344.682 927.178 326.921 929.829 314.477 923.469C303.91 918.067 300.204 906.556 291.253 899.334C283.912 893.412 274.895 891.349 265.605 892.33C252.281 893.692 247.06 902.473 239.767 911.921C234.062 919.184 226.141 924.264 216.802 925.073C205.611 926.518 193.707 921.686 187.193 912.183C177.954 898.706 167.999 890.601 150.614 892.274C139.285 893.363 130.485 899.91 123.884 909.173C121.925 911.922 119.978 915.069 117.859 917.738C116.741 919.14 115.829 920.059 114.026 920.269C112.837 919.289 113.145 919.913 112.846 918.501C114.461 915.391 122.263 905.029 124.709 902.299C132.788 893.283 141.804 889.58 153.58 888.712Z"/>

<path fill="#965846" d="M272.002 8.63084C287.226 28.9385 301.894 54.4015 317.142 74.4751C301.891 80.9067 293.65 77.3801 279.924 83.9123C265.174 90.9319 262.298 108.975 252.698 116.713C236.892 129.454 223.283 121.067 207.025 138.663C202.875 143.093 199.564 148.241 197.256 153.855C193.07 164.26 194.014 177.089 189.071 185.671C182.866 196.444 172.139 200.261 166.802 213.417C161.742 225.892 168.054 237.551 166.184 247.319C163.026 263.815 143.422 275.023 151.95 295.954C156.805 307.869 169.897 312.72 173.708 326.981C177.793 341.711 168.711 353.87 175.901 368.538C181.852 380.678 197.679 384.974 203.187 395.853C206.206 401.816 207.52 414.447 209.86 421.892C162.29 421.54 114.717 421.588 67.1482 422.034C56.1814 422.03 9.46791 422.784 3.24449 420.662C0.977972 416.943 3.26617 414.656 5.2914 411.385C10.0946 403.628 15.4422 396.201 20.4246 388.554L73.9199 307.531L167.222 165.296L234.382 64.0373C242.231 52.1965 250.152 40.4031 258.143 28.6578C262.637 22.0153 267.097 14.9113 272.002 8.63084Z"/>

<path fill="#524B4A" d="M546.593 558.778C546.564 550.303 546.495 541.704 546.364 533.249C546.309 529.752 545.236 514.612 545.927 512.055C546.421 521.702 547.759 530.229 547.892 540.053C545.95 542.939 547.721 553.483 546.593 558.778Z"/>
</svg>