<?xml version="1.0" encoding="utf-8" ?><svg xmlns="http://www.w3.org/2000/svg" viewBox="0 0 1024 1024">
<!-- FIGURE: Main body (#B4913E) + outlines (#4A2219) -->

<!-- Body elements (#B4913E) -->
<path fill="#B4913E" d="M272.002 8.63084C287.226 28.9385 301.894 54.4015 317.142 74.4751C321.521 72.7773 332.207 70.0693 336.54 69.8833C348.503 69.37 349.781 69.97 360.45 63.8591C376.785 54.5029 393.659 56.9837 411.1 62.2099C415.722 62.5815 425.855 63.9513 429.757 63.39C441.479 61.0278 449.331 58.381 461.298 58.5376C476.137 58.7317 485.455 72.6002 496.044 75.9712C512.552 81.2268 531.888 72.4223 544.955 90.18C547.871 94.1424 552.406 99.7833 556.593 102.659C569.881 111.218 585.809 104.072 596.564 118.941C604.426 129.81 595.571 145.458 603.39 155.856C610.82 165.738 624.366 170.508 623.511 185.783C623.082 193.459 618.237 200.926 618.776 208.956C618.91 213.781 621.709 219.012 624.399 222.978C631.882 234.01 626.149 246.389 618.837 255.658C617.444 257.424 613.604 263.379 612.433 264.582C612.805 265.671 613.315 267.376 613.314 268.503C613.281 292.842 613.653 317.193 613.403 341.533C613.327 348.978 609.857 355.713 602.066 357.375C598.202 358.199 594.232 357.983 590.295 357.965C587.346 362.522 585.672 368.263 583.691 373.496C578.38 387.524 573.798 405.334 564.199 417.094C561.573 420.311 556.941 423.494 553.636 425.831C551.081 447.885 545.441 458.784 535.596 477.332C541.696 506.918 542.046 540.211 544.285 570.247C544.403 571.827 544.598 573.536 545.475 574.844L545.901 574.965C546.289 569.532 546.428 564.218 546.593 558.778C547.721 553.483 545.95 542.939 547.892 540.053C548.655 555.474 548.952 570.914 548.784 586.353C558.854 599.582 573.024 612.447 588.217 619.437C595.45 606.073 606.634 589.583 615.005 576.664L651.905 519.109L693.34 454.664C699.745 444.805 705.889 434.759 712.6 425.105C714.857 421.858 718.415 420.249 722.068 422.369C724.37 423.704 726.035 426.012 727.458 428.219C733.56 438.484 739.828 448.636 746.127 458.784L808.776 560.197L918.876 737.699L947.079 783.105C949.979 787.855 953.052 792.566 955.871 797.307C957.317 799.74 958.704 802.983 956.568 805.27C955.066 806.877 954.048 807.593 951.723 807.655C945.897 807.872 939.911 807.761 934.079 807.732L902.06 807.632L782.845 807.501C780.695 812.927 778.651 819.481 772.805 821.962C766.488 824.643 730.279 824.708 720.527 825.126C668.134 827.601 615.716 829.53 563.283 830.912L319.062 839.963C262.891 842.201 206.456 845.443 150.26 846.899C136.765 847.248 117.579 848.866 105.002 848.441C93.3766 849.294 66.246 851.71 55.9092 849.794C51.3338 848.971 46.9689 847.243 43.0704 844.711C30.8476 836.714 24.1561 820.825 21.4934 807.152C8.19793 738.878 64.9241 682.359 124.915 661.745C137.551 657.402 153.016 650.349 164.783 644.172C200.999 625.159 239.142 599.215 262.045 564.687C257.388 547.475 252.12 530.202 247.753 512.885L236.458 469.224C235.178 464.375 231.583 448.19 229.171 444.709C224.364 437.772 215.376 429.257 209.86 421.892C162.29 421.54 114.717 421.588 67.1482 422.034C56.1814 422.03 9.46791 422.784 3.24449 420.662C0.977972 416.943 3.26617 414.656 5.2914 411.385C10.0946 403.628 15.4422 396.201 20.4246 388.554L73.9199 307.531L167.222 165.296L234.382 64.0373C242.231 52.1965 250.152 40.4031 258.143 28.6578C262.637 22.0153 267.097 14.9113 272.002 8.63084Z"/>
<path fill="#B4913E" d="M588.217 619.437C595.45 606.073 606.634 589.583 615.005 576.664L651.905 519.109L693.34 454.664C699.745 444.805 705.889 434.759 712.6 425.105C714.857 421.858 718.415 420.249 722.068 422.369C724.37 423.704 726.035 426.012 727.458 428.219C733.56 438.484 739.828 448.636 746.127 458.784L808.776 560.197L918.876 737.699L947.079 783.105C949.979 787.855 953.052 792.566 955.871 797.307C957.317 799.74 958.704 802.983 956.568 805.27C955.066 806.877 954.048 807.593 951.723 807.655C945.897 807.872 939.911 807.761 934.079 807.732L902.06 807.632L782.845 807.501C780.695 812.927 778.651 819.481 772.805 821.962C766.488 824.643 730.279 824.708 720.527 825.126C668.134 827.601 615.716 829.53 563.283 830.912L319.062 839.963C262.891 842.201 206.456 845.443 150.26 846.899C136.765 847.248 117.579 848.866 105.002 848.441C102.448 846.773 99.4425 844.84 97.1131 842.908C84.0022 832.033 77.2634 810.177 75.847 793.847C70.9406 737.277 112.467 695.622 159.03 671.577C184.205 658.576 205.9 651.846 230.842 636.881C267.425 614.931 289.504 595.443 316.879 563.191L314.207 553.847L314.753 553.225C315.224 554.322 315.521 555.076 316.119 556.113C316.167 552.571 312.818 546.691 313.377 542.334C309.231 524.106 302.683 506.525 298.647 488.672C303.435 500.571 307.346 513.24 311.404 525.457C313.334 531.265 317.559 542.426 318.902 547.946C321.843 547.193 334.839 539.346 339.629 537.42C347.602 533.865 355.529 530.998 363.954 528.725C368.033 527.624 378.599 526.171 381.275 523.537C437.11 536.641 502.777 530.643 535.596 477.332C541.696 506.918 542.046 540.211 544.285 570.247C544.403 571.827 544.598 573.536 545.475 574.844L545.901 574.965C546.289 569.532 546.428 564.218 546.593 558.778C547.721 553.483 545.95 542.939 547.892 540.053C548.655 555.474 548.952 570.914 548.784 586.353C558.854 599.582 573.024 612.447 588.217 619.437Z"/>
<path fill="#B4913E" d="M407.95 523.913C409.083 523.183 411.129 522.821 412.444 522.628C433.545 519.524 452.81 511.464 472.764 504.456C489.675 498.517 507.076 493.372 523.914 487.082C503.626 511.07 474.751 521.118 444.083 523.953C433.506 524.931 418.511 525.189 407.95 523.913Z"/>
<path fill="#B4913E" d="M317.089 255.251C340.877 233.939 392.479 232.777 416.031 255.205L348.835 255.173C339.26 255.204 326.391 255.729 317.089 255.251Z"/>
<path fill="#B4913E" d="M447.383 255.278C456.392 245.158 472.125 241.271 485.139 240.598C504.421 239.602 521.043 243.394 536.266 255.347C527.23 256.075 507.485 255.574 497.933 255.451C481.805 255.244 463.229 255.929 447.383 255.278Z"/>
<path fill="#B4913E" d="M290.826 810.376L306.197 810.517C306.43 832.329 306.538 854.142 306.519 875.955L870.522 876.048L870.642 980.943L98.1541 980.502C97.5976 969.897 98.0246 955.122 98.0428 944.356L98.11 875.811C112.016 875.928 125.923 875.968 139.829 875.931L139.953 810.465L156.089 810.457L290.826 810.376Z"/>

<!-- Outlines (#4A2219) -->
<path fill="#4A2219" d="M1024 211.118C1015.59 203.654 1015.28 193.636 1008.25 185.149C997.445 172.109 978.517 168.318 964.616 178.834C961.456 181.225 958.649 184.131 955.531 186.582C941.074 199.308 914.113 195.172 904.959 178.006C902.318 173.052 900.494 168.503 896.859 163.948C885.559 149.788 861.608 147.865 848.22 160.08C844.698 163.295 841.578 166.84 837.88 169.872C826.829 178.931 809.888 179.107 797.888 171.871C787.506 165.903 788.526 154.266 781.682 145.648C767.011 127.176 735.561 128.278 721.582 147.089C719.749 149.555 717.241 154.601 715.303 156.161C713.636 156.512 713.756 156.479 712.176 155.804C710.759 154.214 711.076 155.087 710.834 153.256C713.295 145.737 722.602 136.126 729.501 132.205C740.411 126.017 753.352 124.478 765.409 127.936C776.089 130.982 786.099 138.802 791.135 149.037C792.68 152.564 793.595 158.295 795.682 161.466C803.849 173.874 824.663 174.555 835.104 164.755C840.014 160.146 845.029 154.375 850.671 151.074C869.209 140.225 894.631 146.918 905.323 165.681C907.388 169.295 908.87 173.235 910.914 176.71C918.448 189.515 940.562 192.505 951.429 182.462C955.316 179.182 958.843 175.163 963.204 172.517C984.348 159.69 1011.7 170.929 1019.79 193.777C1020.77 196.543 1022.46 200.644 1024 203.107L1024 211.118Z"/>
<path fill="#4A2219" d="M298.647 488.672C303.435 500.571 307.346 513.24 311.404 525.457C313.334 531.265 317.559 542.426 318.902 547.946C329.011 579.72 339.333 611.425 349.867 643.059L359.69 672.872C361.023 676.911 365.101 686.223 364.148 689.833C363.055 690.734 363.668 690.537 362.248 690.431C358.529 687.948 355.603 676.327 354.098 671.71L346.557 648.977C337.311 621.83 328.571 594.514 320.343 567.042C317.99 559.18 316.376 550.659 313.595 542.925L313.377 542.334C309.231 524.106 302.683 506.525 298.647 488.672Z"/>
<path fill="#4A2219" d="M547.892 540.053C548.655 555.474 548.952 570.914 548.784 586.353C548.337 590.791 548.427 597.571 548.147 602.392C547.507 613.141 546.597 623.873 545.417 634.576C544.353 643.507 536.269 700.136 530.924 704.346C530.193 704.921 530.524 704.775 529.542 704.632C526.889 701.394 532.064 685.515 533.069 679.9C539.068 646.395 544.671 608.934 545.901 574.965C546.289 569.532 546.428 564.218 546.593 558.778C547.721 553.483 545.95 542.939 547.892 540.053Z"/>
<path fill="#4A2219" d="M560.969 382.033L562.215 380.935C561.189 392.394 560.129 404.962 558.438 416.38C557.605 422.006 554.68 418.771 553.636 425.831C551.081 447.885 545.441 458.784 535.596 477.332C502.777 530.643 437.11 536.641 381.275 523.537C353.148 517.122 328.048 502.698 309.762 480.169L310.296 479.226C336.408 508.889 367.391 520.498 406.252 523.904C406.806 523.953 407.393 523.927 407.95 523.913C409.083 523.183 411.129 522.821 412.444 522.628C433.545 519.524 452.81 511.464 472.764 504.456C489.675 498.517 507.076 493.372 523.914 487.082C534.647 477.672 546.392 455.355 549.413 441.544C553.67 422.079 558.717 401.812 560.969 382.033Z"/>
<path fill="#4A2219" d="M315.743 255.432C323.642 243.982 339.778 240.198 352.472 236.995C369.571 232.68 408.624 238.32 417.676 255.514L416.031 255.205C392.479 232.777 340.877 233.939 317.089 255.251L315.743 255.432Z"/>
<path fill="#4A2219" d="M446.201 255.47C448.863 249.112 457.342 244.543 463.427 242.1C481.443 234.866 503.099 235.353 520.817 243.315C526.39 245.819 534.411 250.127 537.274 255.738L536.266 255.347C521.043 243.394 504.421 239.602 485.139 240.598C472.125 241.271 456.392 245.158 447.383 255.278L446.201 255.47Z"/>
<path fill="#4A2219" d="M403.849 357.933L405.197 358.012C403.932 365.76 400.177 370.256 398.733 377.207C396.371 388.578 404.255 390.365 412.308 391.757L412.173 392.659C404.656 397.654 395.545 387.307 396.321 379.447C397.15 371.05 402.029 365.95 403.849 357.933Z"/>
<path fill="#4A2219" d="M461.998 357.798L464.165 357.954C467.173 365.207 472.442 378.452 469.237 386.132C467.984 389.137 463.562 393.866 459.99 391.703L459.873 391.034C460.362 390.895 460.85 390.747 461.335 390.593C473.825 386.548 464.777 366.052 461.998 357.798Z"/>
<path fill="#4A2219" d="M548.357 231.299C555.437 243.211 555.192 244.351 565.072 255.478C563.805 255.509 562.173 255.365 560.857 255.292C554.971 247.348 550.952 241.085 548.357 231.299Z"/>
<path fill="#4A2219" d="M259.822 357.421L261.084 357.798C264.161 363.517 272.996 390.419 272.337 395.811C270.542 394.886 270.098 389.952 269.666 387.726C267.568 376.894 263.688 367.612 259.822 357.421Z"/>
<path fill="#4A2219" d="M444.055 357.662L445.551 358.001C446.806 362.354 448.98 367.23 450.562 371.668C449.348 378.29 447.22 380.325 442.269 384.385C452.258 370.616 447.517 372.264 444.055 357.662Z"/>
<path fill="#694A27" d="M309.762 480.169C306.135 476.004 301.674 469.09 298.964 464.121C301.39 466.342 307.684 475.922 310.296 479.226L309.762 480.169Z"/>
<path fill="#694A27" d="M562.276 372.118C562.515 375.113 562.718 377.963 562.215 380.935L560.969 382.033C561.357 378.722 561.793 375.417 562.276 372.118Z"/>
<path fill="#4A2219" d="M493.222 78.8913C498.662 80.1304 510.326 91.4405 513.222 96.9336C521.009 111.706 515.697 129.179 500.674 136.649C485.145 144.371 470.472 141.125 454.785 135.943C452.846 135.328 451.507 135.031 449.792 133.974C453.204 134.227 456.898 135.367 460.314 136.095C466.125 137.363 472.055 138.002 478.003 138.001C487.745 137.923 498.495 135.589 505.456 128.271C510.225 123.212 512.783 116.461 512.565 109.512C512.163 94.8433 502.795 87.741 493.222 78.8913Z"/>
<path fill="#4A2219" d="M576.015 130.906C587.904 152.842 572.685 181.507 546.959 180.957C530.618 180.608 519.243 174.203 507.781 163.159C505.773 161.073 504.615 160.223 503.472 157.548C516.493 169.649 532.618 178.751 550.939 176.111C567.092 173.783 576.374 161.46 577.584 145.834C578.003 140.426 576.974 136.145 576.015 130.906Z"/>
<path fill="#4A2219" d="M545.724 102.855C548.285 104.791 550.961 110.523 552.088 113.569C558.287 130.338 552.149 150.097 533.669 155.584C517.459 160.397 502.874 154.484 488.557 147.027L481.508 143.682C486.719 144.562 493.701 147.279 498.797 149.233C535.025 163.125 563.614 140.898 545.724 102.855Z"/>
<path fill="#4A2219" d="M307.288 115.94C307.34 117.037 306.029 119.694 305.5 120.893C298.325 137.132 300.072 157.827 319.29 164.647C333.847 169.813 347.265 165.157 360.621 158.872L356.38 162.056C341.754 171.296 323.499 175.278 308.563 164.105C293.363 152.734 296.469 129.174 307.288 115.94Z"/>
<path fill="#4A2219" d="M269.25 156.878C269.321 157.897 268.525 162.888 268.361 164.358C267.266 174.145 268.788 184.034 275.322 191.823C280.533 197.945 287.992 201.709 296.013 202.263C309.691 203.31 320.541 196.108 330.363 187.691L330.481 187.997L328.669 190.102C317.106 202.09 302.858 210.952 285.715 204.633C278.03 201.886 271.787 196.142 268.41 188.712C263.574 177.818 265.228 167.536 269.25 156.878Z"/>
<path fill="#4A2219" d="M366.709 87.4292L367.193 87.7706C365.036 89.3095 363.148 90.9548 361.209 92.6276C338.101 112.557 350.53 141.932 380.669 140.905C387.161 140.684 391.917 139.734 398.282 138.431C397.009 139.173 395.356 139.89 393.993 140.53C385.135 143.565 375.564 145.326 366.426 143.225C345.171 138.339 339.05 115.39 352.406 99.2449C357.122 93.5441 360.376 91.073 366.709 87.4292Z"/>
<path fill="#4A2219" d="M592.213 175.598C592.306 173.806 592.282 170.922 592.938 169.375C593.798 172.196 593.589 176.665 593.205 179.656C583.791 223.074 537.984 211.846 523.01 179.635C531.165 188.977 537.416 195.583 549.12 200.654C570.954 210.115 588.051 197.763 592.213 175.598Z"/>
<path fill="#4A2219" d="M598.597 202.356C600.743 206.44 600.579 213.552 599.471 217.843C595.664 232.388 581.972 241.526 566.985 236.825C552.612 232.317 544.606 221.025 537.802 208.328C537.027 206.633 536.368 204.74 535.705 202.985C544.729 217.243 557.999 234.132 576.584 233.843C588.42 233.659 598.766 222.026 598.947 210.477C598.988 207.886 598.745 204.95 598.597 202.356Z"/>
<path fill="#4A2219" d="M445.359 77.3531C448.854 78.1934 454.206 82.8595 456.587 85.6713C466.719 97.6352 468.154 116.695 454.485 126.902C445.465 133.637 435.265 135.19 424.313 133.858C422.511 133.598 420.432 133.026 418.64 132.588C442.51 132.833 470.794 123.069 457.769 91.9033C455.498 86.4718 449.912 80.994 445.359 77.3531Z"/>
<path fill="#4A2219" d="M234.732 219.961C235.026 218.779 235.345 218.159 235.815 217.045C241.985 249.805 276.528 251.036 297.115 231.26C298.082 230.33 302.104 225.974 302.971 225.932C284.07 254.691 241.697 258.708 234.805 220.386L234.732 219.961Z"/>
<path fill="#4A2219" d="M410.48 429.901C423.727 426.027 426.528 433.486 435.869 433.704C446.82 433.96 448.986 425.503 463.448 430.794C472.013 436.394 470.44 435.013 479.127 438.227L479.419 438.948C475.258 443.201 461.365 430.5 455.85 430.876C447.479 431.446 444.227 437.129 435.506 436.942C428.518 436.791 421.603 428.756 415.054 430.552C402.93 433.877 403.176 438.996 388.967 440.283C391.697 438.68 395.701 437.397 398.812 435.927C402.918 433.988 406.451 431.924 410.48 429.901Z"/>
<path fill="#4A2219" d="M413.719 446.901C417.734 448.276 421.903 454.18 430.49 455.461C445.258 457.664 449.91 453.969 461.21 446.283C456.467 451.871 452.963 454.381 446.505 457.731C451.046 459.808 453.999 461.699 458.011 464.579L457.85 465.307C455.503 465.516 449.207 460.081 445.391 459.964C440.878 459.826 429.154 458.658 425.069 460.935C422.412 462.417 419.64 464.738 416.23 466.41L415.996 466.015C418.24 462.46 425.028 459.159 428.867 457.615C422.945 455.023 417.769 452.103 413.719 446.901Z"/>
<path fill="#4A2219" d="M408.811 101.7C412.353 101.169 425.147 100.679 427.66 102.651L427.208 103.419C422.966 105.125 418.262 105.125 413.687 105.421C409.724 105.484 395.407 107.065 393.055 104.955C395.263 102.72 405.227 102.131 408.811 101.7Z"/>
<path fill="#4A2219" d="M409.581 428.888C410.21 426.625 419.192 419.065 421.637 417.678C423.225 416.776 424.608 416.417 426.395 416.013C430.737 417.244 435.686 419.44 439.68 420.176C442.082 417.918 442.886 417.031 446.306 417.191C452.292 417.471 460.432 424.415 463.44 429.446C453.822 425.763 450.616 412.844 441.107 421.487C439.191 423.229 432.458 420.493 430.007 419.3C420.943 414.886 417.51 426.188 409.581 428.888Z"/>
<path fill="#4A2219" d="M258.561 402.281C260.666 403.537 263.193 412.084 266.369 416.008C270.986 421.713 280.072 424.348 281.535 426.363C268.999 428.023 261.696 411.784 258.561 402.281Z"/>
<path fill="#4A2219" d="M453.211 380.718L456.651 380.485C458.304 381.369 457.666 380.755 458.594 382.435L458.279 383.131L457.085 382.063C454.994 382.155 453.159 385.743 448.463 387.963C445.655 388.194 443.331 388.036 440.932 386.38C441.642 385.174 441.128 385.585 442.328 384.955C445.786 386.429 450.301 382.592 453.211 380.718Z"/>
<path fill="#4A2219" d="M415.96 378.562C422.255 378.184 428.767 381.899 427.927 388.804L427.393 389.19C426.039 388.069 425.618 385.977 425.043 384.214C418.843 375.194 414.66 383.462 411.459 384.182L411.207 383.59C411.921 381.034 413.781 379.837 415.96 378.562Z"/>
<path fill="#4A2219" d="M436.643 393.673L437.308 393.988C437.618 394.529 438.083 411.85 438.314 414.54C434.245 411.994 436.2 398.155 436.643 393.673Z"/>
<path fill="#2B1D19" d="M234.732 219.961C234.44 217.677 234.306 209.605 235.766 208.164C235.881 209.1 235.782 215.469 235.815 217.045C235.345 218.159 235.026 218.779 234.732 219.961Z"/>
<path fill="#4A2219" d="M151.308 849.673C166.456 848.687 178.005 854.838 187.063 866.605C190.848 871.523 195.211 876.755 200.672 879.776C204.702 882.007 209.245 882.771 213.808 882.633C237.519 881.328 237.554 856.818 260.438 850.643C274.728 846.799 289.964 851.337 299.821 862.375C309.264 872.76 314.703 883.747 331.028 883.145C352.284 882.629 355.891 856.549 375.132 851.599C383.73 849.387 391.56 849.976 399.95 852.509C420.093 858.591 421.563 884.895 444.778 884.193C466.562 883.534 469.983 858.15 489.675 852.679C495.458 851.052 500.715 850.646 506.702 851.208C530.96 853.106 532.212 873.546 549.324 883.523C552.228 885.216 558.082 886.19 561.762 886.001C583.655 884.878 584.603 860.915 605.465 854.504C613.005 852.187 615.838 852.334 623.144 852.926C646.397 854.809 651.781 879.139 666.267 885.604C670.459 887.442 675.052 888.174 679.608 887.729C699.308 885.664 701.196 863.401 719.641 857.108C726.78 854.672 730.698 854.509 737.874 855.095C762.802 857.129 763.124 876.859 780.756 886.099C784.297 887.955 791.046 888.75 795.192 887.973C815.341 884.198 812.149 869.117 831.616 861.008C842.539 856.491 854.822 856.569 865.687 861.224C875.844 865.461 884.08 873.46 888.405 883.664C889.652 886.606 891.536 891.01 890.314 893.874C888.453 895.065 889.425 894.807 887.338 894.835C883.634 892.602 883.751 886.061 880.18 880.821C873.047 870.354 865.657 866.367 853.678 863.709C853.252 863.662 852.827 863.62 852.4 863.583C841.141 862.609 829.706 865.837 822.68 874.649C813.103 887.19 804.038 895.123 787.364 893.619C762.261 891.354 762.305 862.798 736.879 860.738C712.798 858.786 711.02 873.213 696.101 886.797C690.394 891.994 681.043 894.825 673.37 893.567C657.306 891.463 652.401 881.822 643.462 870.786C637.942 863.833 629.833 859.421 620.996 858.564C587.484 855.119 590.5 895.481 556.566 891.32C530.124 888.599 532.58 859.573 505.27 856.799C472.382 853.459 473.456 893.215 441.209 889.978C426.846 888.536 420.216 879.565 412.146 868.752C404.617 858.022 385.363 851.831 373.719 858.473C354.479 869.741 352.921 891.597 325.372 888.728C298.594 885.939 301.036 857.285 274.008 855.346C249.99 853.622 248.688 868.372 234.217 880.464C227.073 886.445 217.796 889.249 208.536 888.227C194.847 886.795 188.643 878.252 180.943 868.297C175.442 861.184 167.022 856.329 157.999 855.388C144.754 854.007 130.692 861.826 123.383 872.711C121.143 876.048 118.874 881.403 115.68 883.995C114.693 884.796 113.965 884.383 112.865 884.109C111.318 882.633 111.782 883.49 111.301 881.514C112.772 876.922 116.057 872.051 119.021 868.263C127.338 857.631 137.96 851.391 151.308 849.673Z"/>
<path fill="#4A2219" d="M265.887 961.666C267.198 961.519 268.51 961.399 269.829 961.372C282.32 961.109 293.611 965.61 300.931 976.037C304.414 980.999 307.364 986.664 311.855 990.812C317.378 995.912 324.565 998.196 332.026 997.692C348.16 996.602 350.776 983.647 359.783 973.543C366.087 966.471 374.54 963.07 383.893 962.575C397.469 961.856 409.684 967.249 417.44 978.545C420.803 983.443 423.531 988.918 428.07 992.879C433.401 997.53 440.389 999.085 447.306 998.433C463.276 996.928 464.709 985.53 473.294 975.444C479.571 968.071 488.702 964.446 498.208 963.799C511.676 962.882 523.662 967.183 531.374 978.682C534.739 983.699 537.687 989.298 542.4 993.207C548.283 998.039 555.871 1000.29 563.437 999.434C577.468 997.732 581.101 986.313 588.835 976.928C594.832 969.652 602.749 965.968 612.068 965.156C625.608 963.977 637.689 968.001 645.692 979.404C649.422 984.718 652.381 990.507 657.535 994.653C663.477 999.434 671.063 1001.22 678.549 1000.23C692.938 998.323 695.674 988.124 703.486 978.439C709 971.602 716.082 968.128 724.772 967.188C739.242 965.624 752.682 968.864 761.392 981.317C764.975 986.44 767.839 991.884 772.865 995.813C778.762 1000.42 786.351 1002.01 793.678 1000.88C805.883 998.997 810.113 990.267 816.543 981.385C821.686 974.281 829.421 970.218 837.977 968.838C849.519 966.977 861.432 968.023 871.064 975.021C878.662 980.542 883.057 986.906 886.927 995.344C887.699 997.028 889.07 999.289 889.168 1001.15C889.239 1002.48 889.009 1003.5 888.043 1004.46C887.388 1005.11 887.095 1004.9 886.239 1004.91C882.32 1002.44 877.835 989.099 872.912 983.813C866.309 976.724 857.579 973.993 848.131 973.705C822.779 972.933 824.106 986.574 810.253 999.293C803.983 1005.05 796.066 1007.11 787.74 1006.74C777.155 1006.28 768.106 1001.41 762.126 992.654C759.454 988.741 757.22 984.487 753.999 980.977C747.925 974.36 740.768 972.641 732.166 972.318C702.764 972.68 708.685 992.035 690.177 1002.45C684.911 1005.42 678.784 1006.55 672.785 1006.22C643.646 1004.66 647.358 977.274 626.791 971.857C614.112 968.517 600.952 971.043 592.457 981.628C586.643 988.871 583.229 996.69 574.774 1001.49C561.73 1008.9 544.924 1004.95 535.069 994.112C526.256 984.418 524.717 973.982 510.065 970.106C505.1 968.792 499.548 968.752 494.524 969.754C473.506 973.948 474.673 992.04 459.509 1000.73C454.457 1003.63 448.725 1004.77 442.939 1004.51C415.367 1003.27 418.409 975.338 395.569 969.333C383.632 966.194 370.436 969.47 362.53 979.188C356.521 986.575 353.407 994.422 344.786 999.434C339.666 1002.41 333.607 1003.6 327.72 1003.28C300.194 1001.76 302.423 973.581 278.953 967.647C267.667 964.793 255.489 967.964 247.891 977.059C241.48 984.732 237.928 993.133 228.946 998.468C217.011 1005.56 200.958 1003.76 191.004 993.98C180.125 983.29 180.022 973.651 162.492 969.226C145.797 965.012 130.624 971.952 121.849 986.548C120.155 989.366 117.849 996.081 115.03 997.472C114.359 997.803 113.575 997.657 112.909 997.339C111.966 996.889 111.667 996.015 111.656 995.026C111.603 990.136 118.21 981.306 121.162 977.514C127.764 969.185 137.428 963.85 147.994 962.703C161.836 961.128 176.908 966.085 185.519 977.444C189.251 982.366 192.015 987.916 197.04 991.743C202.706 996.058 210.668 997.747 217.636 996.622C230.982 994.467 235.254 984.969 242.367 975.138C248.44 966.742 255.918 963.299 265.887 961.666Z"/>
<path fill="#4A2219" d="M727.154 260.683C741.306 258.858 760.115 266.63 766.77 279.252C773.75 292.494 779.392 304.224 797.032 304.96C828.056 306.254 824.096 271.065 860.511 279.94C887.339 286.478 882.055 306.431 899.391 316.704C903.578 319.168 908.316 320.541 913.171 320.699C934.633 321.598 935.705 302.635 954.77 298.33C977.627 293.169 998.587 306.837 1005.24 328.892C1005.81 330.763 1005.65 332.68 1004.62 334.335C1001.84 335.234 999.681 331.011 998.902 328.845C995.055 318.149 988.459 310.626 978.22 305.642C974.729 304.127 970.074 303.057 966.344 302.807C951.848 301.838 945.666 308.972 936.097 317.796C928.951 324.17 920.33 327.114 911.144 326.447C889.908 324.905 885.361 309.723 875.031 294.714C870.77 288.523 860.652 284.984 853.091 284.354C838.128 283.108 831.605 292.728 822.139 301.983C815.345 308.249 805.228 311.166 795.946 310.313C784.522 309.263 773.821 304.088 767.944 293.774C765.298 288.759 763.734 283.792 760.053 279.393C745.833 262.399 720.213 261.469 704.708 277.244C702.445 279.546 700.264 282.109 697.946 284.36C696.643 285.625 694.851 285.909 693.105 285.77C688.66 282.516 697.999 276.037 700.362 273.651C708.489 265.448 715.858 262.078 727.154 260.683Z"/>
</svg>