<?xml version="1.0" encoding="utf-8" ?><svg xmlns="http://www.w3.org/2000/svg" viewBox="0 0 1024 1024">
<!-- FIGURE: Main body (#B4913E) + outlines (#4A2219) -->

<!-- Body elements (#B4913E) -->
<path fill="#B4913E" d="M466.071 115.036C480.406 90.6684 494.333 65.8001 508.288 41.1982C509.382 39.27 510.709 35.8493 512.688 35.0286C514.419 36.3471 553.997 106.52 556.392 111.878C557.655 112.728 560.59 112.687 562.192 112.706C578.004 112.897 588.144 116.301 599.741 127.495C613.037 127.992 622.931 130.854 634.915 136.618C651 144.354 650.25 160.846 662.078 172.371C665.478 172.46 668.604 172.271 671.972 172.208C694.349 171.787 716.675 172.418 739.049 171.458C742.708 169.341 748.05 165.865 751.702 164.11C763.589 158.395 777.623 156.89 790.39 160.311C798.801 162.564 805.509 167.184 812.616 171.985C829.436 172.027 850.79 172.571 867.458 171.491C883.456 161.246 895.088 156.036 914.852 159.894C927.995 162.46 932.424 167.016 942.883 172.198C960.233 172.999 978.07 172.143 995.341 172.61L956.683 248.898C943.85 273.894 929.104 301.403 917.449 326.944C955.407 333.347 985.136 363.105 991.5 401.07C997.864 439.034 979.465 476.861 945.67 495.291C911.874 513.722 870.111 508.706 841.641 482.796C832.239 499.886 823.253 517.2 814.69 534.725C820.049 545.479 828.796 559.155 835.034 569.75L873.004 633.781L954.178 769.615C961.832 782.167 1017.98 872.642 1018.89 878.818C1014.72 880.864 990.639 879.494 983.578 880.275L999.974 907.973L676.026 908.472C653.448 911.927 628.959 918.54 610.464 932.093C606.509 934.991 602.178 938.892 598.445 942.173C582.624 956.082 561.637 963.146 541.038 965.996C529.591 967.579 516.733 968.162 505.533 971.127C495.059 973.9 484.178 978.258 473.643 981.526C452.355 988.129 431.263 991.025 409.002 989.472C380.338 987.473 350.439 974.917 332.231 952.133C329.243 948.301 326.968 943.969 324.25 939.958C315.148 926.525 300.489 915.743 285.694 909.407C274.146 904.462 262.6 901.152 252.881 892.733C248.102 888.594 246.23 884.058 242.567 879.84L242.118 879.332L70.5096 879.538L25.4857 879.531C20.1618 879.527 13.8961 879.587 8.50989 879.368C7.14685 879.313 6.89318 878.543 6.3242 877.633C7.15209 874.799 12.152 866.489 13.8397 863.502C21.7259 849.632 29.8246 835.885 38.1331 822.264L83.3101 746.357C89.5005 735.876 96.1502 725.778 102.067 715.139C65.699 687.701 51.6777 637.349 67.9124 594.894C78.136 568.047 98.6083 546.362 124.824 534.612C153.915 521.68 181.34 522.257 210.543 533.491C215.994 525.171 221.716 515.005 226.908 506.363C237.339 489.193 247.675 471.965 257.914 454.68C272.149 431.777 285.936 408.134 300.144 385.087C307.109 373.938 313.962 362.718 320.701 351.431C324.477 345.21 329.125 338.011 332.402 331.647C326.635 313.855 337.582 293.068 357.141 292.989C360.992 285.272 368.128 274.283 372.632 266.196C372.524 261.644 367.39 251.849 366.148 246.441C362.598 230.979 373.129 228.931 377.483 217.262C379.829 208.556 375.336 199.632 376.149 190.788C377.533 175.748 389.189 171.656 396.967 161.24C401.04 155.786 399.855 145.038 404.645 138.234C412.85 126.578 423.345 131.709 434.898 127.834C438.458 126.618 442.428 122.869 445.642 121.068C451.126 117.995 459.818 116.361 466.071 115.036Z"/>
<path fill="#B4913E" d="M638.361 339.338C643.841 331.143 654.437 317.711 665.995 325.372C677.314 332.875 675.835 356.281 671.076 367.347C665.428 380.31 659.505 394.704 651.381 406.023C643.944 416.519 634.304 425.263 623.134 431.644C621.172 423.874 619.351 414.55 621.014 406.547C623.028 396.853 625.202 393.218 624.682 383.089C622.99 390.839 617.478 406.755 617.53 412.972C617.743 438.304 630.185 451.444 625.384 479.02L624.179 484.604L625.097 485.037C623.015 499.225 614.837 502.027 609.59 512.689C604.57 522.888 606.659 535.977 594.844 544.404C588.379 549.016 579.562 551.279 574.072 556.199C565.276 564.081 565.502 572.697 554.638 579.539C541.681 587.7 532.716 584.293 518.734 586.83C515.711 587.378 507.904 591.153 504.765 592.731C493.496 598.395 479.742 598.445 467.505 596.089C456.593 593.989 444.078 589.687 433.251 586.26C421.104 582.967 412.863 579.283 408.296 566.592C404.644 558.81 396.343 549.533 392.415 540.477C387.493 529.125 390.253 527.588 388.613 516.444C387.953 511.955 379.314 501.961 377.686 497.584C374.898 490.087 377.217 479.445 376.479 471.898C375.32 463.255 373.722 455.693 374.095 446.847C374.617 434.454 383.249 421.435 383.595 409.768C384.032 395.066 374.176 379.866 376.674 364.895L433.863 364.594L435.558 364.477C443.308 365.157 459.939 364.647 468.496 364.641L533.975 364.615L585.424 364.701C591.701 364.71 608.055 365.054 613.671 364.015L615.004 363.18C625.776 361.026 635.038 349.364 638.361 339.338Z"/>
<path fill="#B4913E" d="M498.248 550.864C499.287 549.006 500.738 544.291 501.275 543.614C501.711 546.641 500.491 549.302 498.59 551.643L498.248 550.864Z"/>
<path fill="#B4913E" d="M485.016 495.379C485.289 493.6 485.42 491.146 486.456 489.8C486.994 491.699 486.218 493.655 485.595 495.565L485.016 495.379Z"/>
<path fill="#B4913E" d="M434.238 556.92L435.202 557.111C435.664 558.68 435.896 560.923 436.138 562.592L435.553 563.066L435.695 563.366C435.032 561.576 434.62 558.869 434.238 556.92Z"/>
<path fill="#B4913E" d="M436.499 660.986L437.479 665.184C438.582 667.952 438.822 684.227 437.906 687.204C437.735 679.002 436.208 668.631 436.499 660.986Z"/>
<path fill="#B4913E" d="M407.27 962.672L408.034 962.448C408.99 964.627 413.946 975.573 413.672 976.894C410.968 972.028 409.053 967.955 407.27 962.672Z"/>
<path fill="#B4913E" d="M389.428 778.366C388.233 775.659 385.542 764.988 385.604 762.315C386.961 763.217 389.237 775.503 389.999 778.425L389.428 778.366Z"/>
<path fill="#B4913E" d="M479.61 968.253C481.899 970.716 482.973 972.423 484.147 975.571C482.22 973.751 480.448 970.784 478.935 968.519L479.61 968.253Z"/>
<path fill="#B4913E" d="M650.25 170.157C651.616 169.862 653.994 172.462 654.288 173.809C652.904 174.164 650.675 171.374 650.25 170.157Z"/>
<path fill="#B4913E" d="M601.429 129.799C604.029 131.679 604.44 132.951 606.033 135.68C603.429 134.719 602.339 132.267 601.429 129.799Z"/>
<path fill="#B4913E" d="M584.633 932.324L585.041 932.441C585.104 934.206 584.853 937.816 583.693 939.164L583.709 939.519C583.421 936.999 584.093 934.831 584.633 932.324Z"/>
<path fill="#B4913E" d="M489.404 187.194C487.767 187.129 486.027 187.304 484.762 186.426L485.478 185.973C487.552 185.9 487.751 185.89 489.748 186.356L489.404 187.194Z"/>
<path fill="#B4913E" d="M278.913 877.446L279.447 877.306C279.808 879.19 280.358 881.147 279.533 882.819C278.679 881.258 278.906 879.292 278.913 877.446Z"/>
<path fill="#B4913E" d="M663.883 233.762L664.595 233.537C664.901 235.126 665.352 237.088 664.468 238.428C663.625 236.975 663.867 235.502 663.883 233.762Z"/>
<path fill="#B4913E" d="M625.119 688.554C626.149 687.361 626.826 686.2 628.285 685.916C627.971 687.397 626.759 688.311 625.501 689.387L625.119 688.554Z"/>

<!-- Outlines (#4A2219) -->
<path fill="#4A2219" d="M332.402 331.647C333.083 333.295 334.182 336.388 334.382 338.137L284.077 420.178C275.967 433.438 268.573 447.061 260.054 460.112C249.618 477.89 239.006 495.564 228.221 513.132C224.046 519.981 219.21 528.639 214.917 535.178L144.733 651.716L119.576 694.362C115.309 701.647 109.892 711.583 105.394 718.468C96.4728 732.534 88.9898 745.581 80.5165 759.827L52.9021 805.945C39.0545 829.422 25.6015 851.225 12.1755 875.139C51.6413 875.661 92.4267 875.057 132.009 875.081L200.165 874.972C212.965 874.966 226.96 875.26 239.673 874.943C241.606 876.044 241.696 877.219 242.118 879.332L70.5096 879.538L25.4857 879.531C20.1618 879.527 13.8961 879.587 8.50989 879.368C7.14685 879.313 6.89318 878.543 6.3242 877.633C7.15209 874.799 12.152 866.489 13.8397 863.502C21.7259 849.632 29.8246 835.885 38.1331 822.264L83.3101 746.357C89.5005 735.876 96.1502 725.778 102.067 715.139C105.575 709.942 110.607 700.494 113.991 694.62C120.714 682.991 127.547 671.426 134.489 659.926L210.543 533.491C215.994 525.171 221.716 515.005 226.908 506.363C237.339 489.193 247.675 471.965 257.914 454.68C272.149 431.777 285.936 408.134 300.144 385.087C307.109 373.938 313.962 362.718 320.701 351.431C324.477 345.21 329.125 338.011 332.402 331.647Z"/>
<path fill="#4A2219" d="M739.049 171.458C742.708 169.341 748.05 165.865 751.702 164.11C763.589 158.395 777.623 156.89 790.39 160.311C798.801 162.564 805.509 167.184 812.616 171.985C829.436 172.027 850.79 172.571 867.458 171.491C883.456 161.246 895.088 156.036 914.852 159.894C927.995 162.46 932.424 167.016 942.883 172.198C946.457 175.984 947.956 181.393 944.541 185.921C936.925 196.02 926.071 184.828 918.198 181.369C913.192 179.169 907.922 178.094 902.416 178.324C880.181 178.965 871.755 199.73 848.167 203.271C825.356 206.694 815.382 199.101 797.829 186.124C787.217 178.278 772.588 175.201 760.689 181.797C756.686 183.73 751.663 187.993 747.209 188.397C737.52 189.275 732.801 178.792 739.049 171.458Z"/>
<path fill="#4A2219" d="M433.863 364.594L435.558 364.477C434.779 370.35 434.246 373.106 432.827 378.826C430.275 389.115 424.861 397.322 427.505 408.025C428.962 409.823 446.673 424.581 448.809 425.798C452.251 424.687 453.395 421.299 455.892 418.812C465.635 415.78 481.051 419.227 487.318 409.772C490.829 404.476 486.91 397.821 482.755 394.149L483.634 393.353C488.44 397.853 492.78 405.113 488.315 411.439C484.3 417.126 477.131 418.519 470.683 419.483C507.044 423.154 536.285 445.379 529.63 484.787C492.19 485.511 490.387 455.929 468.941 451.775C462.946 450.614 457.862 453.07 452.961 456.22C450.109 454.457 445.758 451.552 442.215 450.779C421.508 446.258 416.817 474.914 400.275 482.233C394.663 484.716 385.029 489.845 379.284 488.309L379.139 487.742C388.348 485.029 393.883 483.858 402.005 478.039C420.684 464.655 423.642 434.492 452.537 453.737C478.235 438.677 483.658 460.44 500.254 473.275C508.083 479.33 518.679 482.217 528.281 484.024C528.419 455.158 521.466 438.387 492.924 427.268C482.388 423.314 468.524 419.774 457.469 423.443C455.12 424.223 451.698 427.965 447.977 429.485C436.319 420.515 440.993 419.041 425.761 421.897C407.118 425.392 395.558 434.774 389.522 453.036C388.084 457.385 386.612 463.098 384.937 467.131C386.943 450.04 394.038 431.317 411.089 424.677C418.653 421.731 426.456 420.559 433.861 417.734L434.526 417.476C428.509 412.901 422.541 408.41 424.563 400.144C427.345 388.769 430.6 375.791 433.863 364.594Z"/>
<path fill="#4A2219" d="M624.179 484.604L625.097 485.037C623.015 499.225 614.837 502.027 609.59 512.689C604.57 522.888 606.659 535.977 594.844 544.404C588.379 549.016 579.562 551.279 574.072 556.199C565.276 564.081 565.502 572.697 554.638 579.539C541.681 587.7 532.716 584.293 518.734 586.83C515.711 587.378 507.904 591.153 504.765 592.731C493.496 598.395 479.742 598.445 467.505 596.089C456.593 593.989 444.078 589.687 433.251 586.26C421.104 582.967 412.863 579.283 408.296 566.592L408.575 566.391C409.322 566.823 409.327 566.848 409.905 567.508C415.303 573.666 419.361 576.968 427.011 579.989C433.846 582.687 440.04 584.555 447.03 586.631C463.22 591.439 479.962 596.391 496.749 591.461C504.305 589.242 511.81 584.268 519.219 582.678C529.804 580.407 538.143 583.137 548.698 578.425C562.162 572.415 562.481 560.83 573.564 552.124C581.598 545.813 591.02 544.817 597.555 537.015C603.194 530.282 603.105 518.876 606.811 511.861C612.878 500.375 619.052 497.656 624.179 484.604Z"/>
<path fill="#4A2219" d="M613.671 364.015L615.004 363.18C614.466 384.848 604.359 383.116 598.509 401.183C596.458 407.519 600.896 420.027 597.664 426.165C595.207 430.829 590.375 434.711 586.815 438.57C582.544 443.201 578.606 449.42 576.433 455.356C572.44 466.262 569.373 478.462 568.518 490.039C568.226 493.996 569.987 499.761 569.11 503.436C568.038 507.925 563.485 511.407 561.256 515.101C558.672 519.382 558.274 525.355 557.845 530.272L557.412 530.247L556.778 529.14C557.618 516.607 558.657 514.6 566.804 505.074C566.529 500.963 565.514 494.049 565.802 490.105C567.091 472.46 572.946 451.464 584.553 437.728C587.638 434.076 595.194 428.314 596.113 424.282C598.12 415.483 593.106 404.846 597.949 395.633C605.982 380.349 611.043 382.575 613.671 364.015Z"/>
<path fill="#4A2219" d="M470.833 388.88C476.5 389.083 478.835 390.079 483.634 393.353L482.755 394.149C479.327 392.031 477.324 390.707 473.26 389.965L470.833 388.88Z"/>
<path fill="#4A2219" d="M512.746 558.222C516.833 550.03 523.525 544.696 526.979 537.138C530.028 530.469 522.448 518.516 527.898 511.243C531.08 505.859 535.506 502.913 540.252 499.351C551.966 490.559 555.582 480.633 554.44 466.226C553.356 452.542 566.778 440.758 575.819 432.448C577.549 430.823 579.856 427.203 581.689 425.133C581.975 426.431 581.172 428.037 580.427 429.073C574.107 437.852 562.025 446.321 557.868 456.624C552.709 469.411 560.078 475.301 551.524 489.958C544.499 501.996 536.045 501.692 529.731 512.658C525.515 519.978 532.033 530.675 528.922 537.347C524.699 546.401 518.983 548.426 513.516 558.529L512.746 558.222Z"/>
<path fill="#4A2219" d="M585.056 462.385C586.427 463.682 589.397 473.519 590.78 475.935C597.918 488.406 600.701 506.083 590.178 517.64C582.509 526.063 578.608 528.35 575.603 540.131L575.251 540.794C571.742 524.106 594.611 519.38 594.667 499.34C594.711 483.529 587.265 476.902 585.056 462.385Z"/>
<path fill="#4A2219" d="M429.185 456.061C448.324 464.397 456.534 464.523 476.88 458.776L477.275 459.084L476.221 460.128C463.124 467.719 449.144 467.6 435.42 461.13C432.94 459.961 430.088 458.725 429.185 456.061Z"/>
<path fill="#4A2219" d="M656.828 336.592C668.037 336.311 668.426 348.283 664.941 356.221C662.496 361.789 659.29 366.105 657.224 372.102L656.912 373.031C657.485 369.985 658.021 367.205 659.53 364.472C663.305 357.632 670.676 343.082 660.601 338.12C648.013 337.483 642.271 357.812 636.524 367.574C638.229 360.458 642.331 351.9 645.927 345.427C648.78 340.292 651.324 338.05 656.828 336.592Z"/>
<path fill="#4A2219" d="M508.854 504.404C508.868 504.545 508.883 504.687 508.897 504.828C507.446 517.978 494.863 523.998 484.652 529.769C471.513 537.195 467.647 553.313 467.265 567.346C465.709 563.566 467.023 558.411 467.522 554.564C471.978 520.228 498.744 532.881 508.854 504.404Z"/>
<path fill="#4A2219" d="M479.738 507.297L480.264 508.268C472.705 518.546 462.05 519.715 455.807 529.632C450.226 538.498 453.583 551.899 455.933 561.346C452.902 556.149 451.384 550.004 450.958 544.074C449.305 521.019 468.744 520.302 479.738 507.297Z"/>
<path fill="#4A2219" d="M565.682 430.671L566.228 430.748C562.169 432.569 556.812 434.753 553.579 437.869C543.213 447.861 550.655 461.079 536.73 470.624L535.726 470.31C535.854 469.137 540.586 463.834 541.603 461.492C548.271 446.137 544.476 434.615 565.682 430.671Z"/>
<path fill="#4A2219" d="M608.711 403.873C611.092 423.565 608.189 429.978 600.823 447.388C599.941 449.473 600.299 457.051 599.364 460.343C595.32 444.39 602.969 440.511 607.064 426.721C609.048 420.038 606.865 410.875 608.711 403.873Z"/>
<path fill="#4A2219" d="M429.269 472.602C432.886 472.795 439.923 474.369 443.899 474.882C456.81 476.545 467.054 475.79 479.546 472.626L479.591 473.091C478.839 473.503 478.068 473.881 477.281 474.224C462.707 480.702 443.8 478.196 429.269 472.602Z"/>
<path fill="#4A2219" d="M448.307 497.218L448.027 497.877C441.121 513.803 417.88 512.864 428.25 540.549C428.644 541.6 429.122 542.811 429.644 543.871L428.445 544.245C414.503 512.919 435.352 515.498 448.307 497.218Z"/>
<path fill="#4A2219" d="M615.576 445.866C620.448 457.973 616.475 477.446 609.714 488.201L609.561 488.262L609.071 488.041C609.754 485.085 611.777 479.72 612.72 476.395C615.923 465.094 616.195 457.284 615.576 445.866Z"/>
<path fill="#4A2219" d="M420.755 488.125C420.754 494.431 422.571 500.9 420.56 507.58C419.143 512.569 414.528 517.773 414.181 522.978C413.791 528.807 416.471 534.971 416.667 540.849L416.339 540.596C414.435 533.071 410.293 523.791 414.693 516.787C420.861 506.969 419.958 499.173 420.755 488.125Z"/>
<path fill="#4A2219" d="M476.361 585.507C483.014 576.296 484.385 570.165 489.206 560.362C490.073 558.598 495.99 553.475 497.883 551.292L498.248 550.864L498.59 551.643C496.721 554.289 491.043 560.455 489.798 562.943C483.246 576.045 487.737 575.13 476.361 585.507Z"/>
<path fill="#4A2219" d="M463.452 409.169C468.915 408.857 472.734 409.848 477.81 411.553C468.949 410.693 464.787 410.636 456.189 412.507C452.43 413.55 448.32 415.45 444.681 417.008C450.624 411.621 455.786 410.323 463.452 409.169Z"/>
<path fill="#4A2219" d="M400.604 501.284C403.444 503.956 396.525 519.988 396.775 524.81C396.953 528.239 396.651 527.354 397.545 531.136C391.938 522.039 400.331 513.076 400.604 501.284Z"/>
<path fill="#4A2219" d="M446.107 432.345L446.573 432.714C448.085 436.456 452.298 444.024 452.785 446.699C448.459 445.483 445.54 436.755 446.107 432.345Z"/>
<path fill="#4A2219" d="M387.701 427.869C387.966 429.822 379.313 449.349 377.733 453.509C378.581 445.294 383.932 435.399 387.701 427.869Z"/>
<path fill="#4A2219" d="M652.675 375.372C649.192 370.336 643.192 370.108 638.878 374.247L638.097 373.95C638.316 369.155 648.65 368 653.327 374.577L652.675 375.372Z"/>
<path fill="#4A2219" d="M689.902 327.008C704.922 350.667 719.563 374.564 733.822 398.689L814.69 534.725C820.049 545.479 828.796 559.155 835.034 569.75L873.004 633.781L954.178 769.615C961.832 782.167 1017.98 872.642 1018.89 878.818C1014.72 880.864 990.639 879.494 983.578 880.275C982.997 879.669 981.303 876.776 980.759 875.891C991.418 875.693 1002.08 875.565 1012.74 875.506C1008.45 867.67 1004.01 860.346 999.396 852.724C977.656 816.778 955.947 780.798 934.273 744.817L812.632 540.489C796.901 515.132 781.808 488.75 766.657 463.062L725.823 395.299C714.235 376.129 702.571 356.15 690.131 337.481C690.4 334.557 690.051 330.066 689.902 327.008Z"/>
<path fill="#4A2219" d="M466.071 115.036C480.406 90.6684 494.333 65.8001 508.288 41.1982C509.382 39.27 510.709 35.8493 512.688 35.0286C514.419 36.3471 553.997 106.52 556.392 111.878C554.115 112.631 553.913 112.576 551.462 112.551C547.277 103.887 541.504 94.8401 536.647 86.4709C528.454 72.3185 520.499 58.0296 512.786 43.6103C506.084 53.8382 500.155 65.8566 493.904 76.4857C486.49 89.0931 478.994 101.333 472.266 114.339C470.157 115.485 468.425 115.26 466.071 115.036Z"/>
<path fill="#4A2219" d="M676.029 768.26C688.089 749.577 709.152 723.681 723.686 706.813C744.776 683.078 765.705 662.107 794.938 649.073C824.726 635.791 842.778 647.462 865.9 667.688L864.385 668.017C835.087 641.915 808.315 633.892 781.862 667.424C744.175 715.197 715.354 778.805 696.485 836.537L695.793 835.708C699.521 823.637 704.611 811.025 709.03 798.99C725.444 754.282 745.445 708.304 775.678 671.054C782.431 662.734 788.917 658.807 795.963 651.794L796.411 651.341C754.836 668.137 703.435 732.542 677.105 768.647L676.029 768.26Z"/>
<path fill="#4A2219" d="M640.079 332.971C643.744 326.992 647.518 321.336 654.948 319.686C677.611 314.652 681.493 345.225 677.39 360.275C670.93 383.973 649.162 427.737 623.645 433.859C626.72 446.761 628.263 451.945 628.931 464.981C640.973 455.507 648.682 439.275 650.675 424.263C652.06 439.628 642.345 458.538 628.657 465.796C628.438 471.112 627.882 473.47 626.449 478.623L625.384 479.02C630.185 451.444 617.743 438.304 617.53 412.972C617.478 406.755 622.99 390.839 624.682 383.089C625.202 393.218 623.028 396.853 621.014 406.547C619.351 414.55 621.172 423.874 623.134 431.644C634.304 425.263 643.944 416.519 651.381 406.023C659.505 394.704 665.428 380.31 671.076 367.347C675.835 356.281 677.314 332.875 665.995 325.372C654.437 317.711 643.841 331.143 638.361 339.338C638.882 336.909 639.32 335.339 640.079 332.971Z"/>
<path fill="#4A2219" d="M370.06 661.934L371.243 661.976C367.947 682.591 369.373 712.668 370.272 734.001C372.79 793.773 377.433 855.704 392.171 913.79C395.761 927.935 401.985 949.085 408.034 962.448L407.27 962.672C374.266 882.973 366.905 794.541 367.144 709.075C367.188 693.281 367.494 677.555 370.06 661.934Z"/>
<path fill="#4A2219" d="M372.632 266.196C374.014 268.539 374.901 269.674 374.514 272.45C370.55 279.306 366.655 286.011 363.035 293.058C362.12 293.151 358.276 293.005 357.141 292.989C360.992 285.272 368.128 274.283 372.632 266.196Z"/>
<path fill="#4A2219" d="M314.468 689.489L315.259 689.955C286.04 725.358 264.769 766.625 252.886 810.963L252.224 810.433C263.471 765.897 284.762 724.526 314.468 689.489Z"/>
<path fill="#4A2219" d="M612.158 294.668C610.697 290.027 606.067 274.025 604.341 270.205C599.21 258.842 594.229 257.113 593.814 242.108C595.128 244.736 594.868 248.668 597.476 253.433C601.03 259.928 605.636 264.607 608.075 271.433C610.892 279.313 612.061 287.91 615.405 295.598L612.158 294.668Z"/>
<path fill="#4A2219" d="M670.882 404.113L670.982 406.752C669.909 409.661 669.729 414.11 669.224 417.38C668.094 424.702 665.228 432.841 661.433 439.198C659.764 441.995 655.025 447.047 651.826 447.772C652.208 447.164 652.107 447.193 652.77 446.772C661.45 441.255 666.294 427.141 668.187 417.48C668.918 413.751 669.1 407.57 670.882 404.113Z"/>
<path fill="#4A2219" d="M664.262 786.746C667.795 780.992 672.123 773.648 676.029 768.26L677.105 768.647C673.037 774.75 669.01 780.881 665.025 787.038L664.262 786.746Z"/>
<path fill="#4A2219" d="M685.907 314.804C682.083 308.782 693.022 300.907 696.952 297.668C692.459 304.476 686 305.372 685.907 314.804Z"/>
<path fill="#4A2219" d="M705.779 616.675L706.261 617.692C633.666 667.669 566.288 803.433 531.379 884.161L517.428 916.808C515.734 920.806 511.918 929.117 510.648 932.998L509.537 933.033C517.124 915.671 523.742 897.12 531.081 879.487C540.18 857.627 549.746 835.963 559.772 814.512C592.477 743.584 636.787 657.88 705.779 616.675Z"/>
<path fill="#4A2219" d="M587.268 913.894C599.302 848.048 614.895 784.075 653.847 728.295C682.142 687.775 725.757 644.725 774.614 631.042L775.396 631.831C714.595 652.404 660.656 717.495 632.947 773.424C611.058 817.605 597.534 864.907 588.381 913.161L587.268 913.894Z"/>
<path fill="#4A2219" d="M395.066 221.968C412.054 197.154 415.438 209.236 439.047 204.574C445.231 203.352 449.708 198.473 454.865 196.186C458.112 194.746 466.476 200.619 471.011 202.256C474.664 203.571 478.518 204.242 482.401 204.24C502.888 204.332 516.974 188.482 537.418 197.46C552.541 204.101 558.164 217.561 570.664 226.769C577.263 231.63 588.268 233.032 596.13 236.478L595.304 237.147C586.283 233.16 576.541 234.845 567.505 228.941C554.579 220.494 548.958 206.333 533.735 200.427C518.167 194.388 504.699 206.08 489.369 207.685C479.588 208.71 472.64 207.66 464.07 202.691C462.78 201.944 457.615 199.403 456.655 199.598C450.275 200.894 446.469 206.455 439.105 208.11C430.385 210.069 427.226 208.675 418.697 207.912C409.148 207.057 401.661 215.89 395.066 221.968Z"/>
<path fill="#4A2219" d="M593.188 725.485L593.762 726.677C583.691 739.424 573.816 752.088 563.185 764.417C515.825 819.342 435.86 845.349 399.813 761.721L400.531 760.751C405.251 773.315 413.996 786.218 424.257 794.876C438.798 807.196 457.706 813.107 476.675 811.263C525.607 806.945 564.287 760.271 593.188 725.485Z"/>
<path fill="#4A2219" d="M364.985 661.07L365.995 661.012C355.058 698.117 350.906 737.971 347.76 776.446C344.387 817.69 342.014 864.944 346.675 906.184L345.48 905.058C345.455 901.959 344.257 892.15 343.966 888.555C342.952 876.682 342.273 864.783 341.93 852.872C340.433 794.786 346.927 716.826 364.985 661.07Z"/>
<path fill="#4A2219" d="M279.39 853.586C279.631 843.191 281.517 831.421 282.927 821.189C289.471 773.716 306.224 731.007 332.621 691.023C342.455 676.127 348.661 666.981 361.372 654.032L361.529 654.145C358.668 657.843 355.612 660.804 352.74 664.335C349.242 668.636 345.574 673.873 342.468 678.501C312.813 721.972 292.884 771.329 284.042 823.204C282.632 831.801 280.532 843.778 280.508 852.432L279.39 853.586Z"/>
<path fill="#4A2219" d="M543.847 119.718C576.937 118.258 595.122 124.294 614.245 152.504C616.785 156.251 620.784 160.243 623.558 164.261C621.842 163.044 620.346 161.277 618.887 159.724C599.504 139.647 586.076 123.946 556.834 122.117C548.764 121.612 539.601 121.47 531.72 120.64C535.431 120.091 540.03 119.94 543.847 119.718Z"/>
<path fill="#4A2219" d="M371.298 238.446C373.64 232.747 378.025 227.836 380.234 222.345C385.282 209.797 383.264 194.005 397.786 187.139C407.797 182.405 417.939 187.151 428.661 185.551C438.203 184.128 446.548 179.97 456.018 178.92C461.054 178.397 466.173 180.441 470.817 182.162L471.024 183.153C447.957 176.72 450.537 184.925 428.298 187.751C422.226 188.523 413.146 186.105 406.923 186.144C403.512 186.166 399.494 187.862 396.772 189.819C385.72 197.763 387.405 211.792 382.672 222.971C380.576 227.921 374.943 234.241 371.298 238.446Z"/>
<path fill="#4A2219" d="M408.154 164.793C418.922 163.424 429.131 165.526 440.042 163.649C449.205 162.072 457.456 156.942 466.669 157.042C470.258 157.081 475.489 160.711 478.764 162.173C493.622 170.318 505.376 169.336 521.879 167.314L520.997 168.546C503.51 171.153 492.322 172.811 476.63 163.111C469.93 159.333 463.857 157.241 456.55 160.792C441.589 168.062 424.176 167.619 408.154 164.793Z"/>
<path fill="#4A2219" d="M395.865 799.068C409.472 842.333 427.735 884.772 450.369 924.179C459.727 940.472 469.629 953.225 479.61 968.253L478.935 968.519C476.487 964.22 471.158 957.543 468.122 953.395C442.09 917.83 423.736 877.931 407.834 837.026C403.195 825.091 399.438 812.285 395.227 800.032L395.865 799.068Z"/>
<path fill="#4A2219" d="M796.152 689.659L796.498 690.494C778.373 704.454 770.299 722.902 764.687 744.554C758.51 768.384 753.255 793.744 751.368 818.344L750.379 817.928C750.686 806.556 754.007 783.923 756.118 772.676C761.516 743.92 770.759 707.166 796.152 689.659Z"/>
<path fill="#4A2219" d="M615.94 183.974C619.218 184.65 628.56 189.101 631.107 190.961C650.389 205.04 637.939 214.948 638.193 231.32C638.998 236.146 647.074 237.073 650.213 239.44C670.869 255.016 643.727 275.794 635.55 288.76L635.175 289.107C637.841 280.748 646.849 274.726 650.847 267.716C659.355 252.797 657.142 243.468 641.481 236.632C629.443 231.378 643.727 214.942 639.846 204.711C635.413 193.025 626.066 189.73 615.94 183.974Z"/>
<path fill="#4A2219" d="M545.955 185.441C550.22 185.478 562.252 185.268 565.687 185.944C581.826 188.104 594.436 199.751 606.321 209.934C607.549 210.986 612.936 215.488 613.409 216.645C599.259 206.636 583.732 192.909 566.518 188.247C562.767 187.231 557.508 187.026 553.577 186.854C550.476 186.641 548.915 186.19 545.955 185.441Z"/>
<path fill="#4A2219" d="M438.704 140.294C454.824 134.623 468.467 139.434 484.645 140.965C491.558 141.62 502.306 139.796 509.407 138.847L509.054 140.014C491.389 143.964 482.728 144.66 464.983 140.641C457.818 139.018 446.006 139.417 438.704 140.294Z"/>
<path fill="#4A2219" d="M420.836 211.388C420.876 213.259 420.107 216.364 419.585 218.202C415.126 233.909 399.954 230.66 391.433 240.81C385.953 247.337 386.624 256.859 387.306 264.759L386.864 265.046C381.373 245.307 389.435 233.27 407.827 228.782C414.139 227.242 418.433 217.284 420.836 211.388Z"/>
<path fill="#4A2219" d="M532.353 156.968C549.955 155.033 561.763 154.543 576.509 165.823C578.98 167.712 583.931 170.575 585.761 172.693C584.298 172.67 573.15 166.19 570.894 164.861C557.762 157.12 546.493 158.024 531.487 158.017L532.353 156.968Z"/>
<path fill="#4A2219" d="M663.883 233.762C658.973 214.983 672.318 208.2 665.734 190.447C664.738 187.761 655.053 175.9 655.285 174.983C660.888 179.589 669.029 191.39 668.968 198.648C668.846 213.079 662.326 217.806 664.595 233.537L663.883 233.762Z"/>
<path fill="#4A2219" d="M489.748 186.356C499.987 187.256 509.537 186.345 519.771 185.549C522.729 185.319 529.74 183.244 532.173 183.485C521.545 188.939 501.029 189.203 489.404 187.194L489.748 186.356Z"/>
<path fill="#4A2219" d="M480.615 124.781C482.524 124.564 485.034 124.62 487.002 124.605C478.714 126.956 459.236 126.869 449.624 127.319C447.6 127.536 445.14 127.318 443.073 127.214C459.343 124.301 465.36 125.766 480.615 124.781Z"/>
<path fill="#4A2219" d="M682.022 248.389C683.194 250.217 683.532 251.838 684.157 253.917C682.804 260.723 677.446 275.592 675.031 282.559L674.814 282.531C673.832 276.015 684.227 260.689 682.022 248.389Z"/>
<path fill="#4A2219" d="M593.188 725.485C596.351 720.809 606.977 708.603 610.894 704.332L611.153 705.11C604.981 712.126 599.578 719.382 593.762 726.677L593.188 725.485Z"/>
<path fill="#4A2219" d="M418.171 143.098C421.991 142.942 423.643 142.492 426.766 144.656C426.624 144.824 419.888 144.498 416.861 145.163L416.161 145.321C412.999 146.849 412.286 148.754 410.23 149.613C411.529 145.592 414.446 144.32 418.171 143.098Z"/>
<path fill="#4A2219" d="M113.065 159.205C125.101 157.755 140.611 161.812 150.257 168.905C161.491 177.165 167.095 184.249 182.335 184.297C197.218 184.755 204.285 174.838 215.822 167.418C236.188 154.319 266.719 157.22 284.949 172.942C286.608 174.373 287.965 177.837 287.564 180.059C285.233 192.975 274.566 190.219 266.084 185.119C261.718 182.538 255.981 180.251 251.213 179.583L250.607 179.503C233.462 177.432 226.326 183.94 214.093 193.95C207.647 198.63 199.525 202.139 191.927 203.439C170.292 207.14 154.854 199.059 139.101 185.247C130.779 177.95 110.972 176.992 101.252 181.971C93.3202 186.033 79.1466 196.854 75.6312 180.709C75.2032 178.765 76.2593 174.283 77.8085 172.894C86.8253 164.813 101.115 160.253 113.065 159.205Z"/>
<path fill="#694A27" d="M556.778 529.14L557.412 530.247L557.845 530.272C557.689 533.031 557.307 535.642 556.949 538.377L556.169 538.765L556.487 539.204C555.785 537.031 556.524 531.684 556.778 529.14Z"/>
<path fill="#694A27" d="M473.26 389.965C470.189 389.934 467.889 390.194 464.629 390.044L464.648 389.835L465.92 389.647C464.792 390.126 465.23 390.203 464.365 389.954C466.79 389.433 468.372 389.154 470.833 388.88L473.26 389.965Z"/>
<path fill="#694A27" d="M653.327 374.577C654.769 379.014 655.122 391.627 649.546 393.09C647.71 392.736 647.653 392.516 646.203 391.383C648.12 390.872 650.326 393.236 651.579 390.661C653.513 386.688 653.741 379.522 652.675 375.372L653.327 374.577Z"/>
<path fill="#694A27" d="M429.644 543.871C432.132 548.76 433.278 551.996 435.202 557.111L434.238 556.92L433.974 556.204C432.43 551.889 430.501 548.324 428.445 544.245L429.644 543.871Z"/>
<path fill="#694A27" d="M485.016 495.379L485.595 495.565C483.996 500.997 483.18 503.434 480.264 508.268L479.738 507.297C482.176 503.306 483.628 499.802 485.016 495.379Z"/>
<path fill="#694A27" d="M446.319 571.447C450.471 571.703 454.928 574.589 456.512 578.51C453.186 575.111 450.448 573.814 446.319 571.447Z"/>
<path fill="#694A27" d="M513.516 558.529C512.444 561.156 511.219 564.503 509.812 566.897C510.159 563.788 511.205 560.931 512.746 558.222L513.516 558.529Z"/>
<path fill="#694A27" d="M434.39 611.567C436.012 615.72 437.627 658.236 437.479 665.184L436.499 660.986C436.635 657.231 435.995 652.165 435.753 648.246C435.2 639.427 434.767 630.6 434.455 621.768C434.555 618.168 434.516 615.17 434.39 611.567Z"/>
<path fill="#694A27" d="M252.886 810.963C249.527 829.425 245.676 838.211 244.219 858.576C244.327 845.814 248.132 822.759 252.224 810.433L252.886 810.963Z"/>
<path fill="#694A27" d="M865.9 667.688C867.275 668.907 868.881 670.445 870.411 671.402C872.656 674.101 875.156 676.987 877.197 679.81C875.839 679.29 866.207 669.666 864.385 668.017L865.9 667.688Z"/>
<path fill="#694A27" d="M696.485 836.537C695.375 839.89 690.467 855.599 688.956 857.341C691.111 850.092 693.39 842.88 695.793 835.708L696.485 836.537Z"/>
<path fill="#694A27" d="M328.964 673.639C324.72 679.905 320.165 684.327 315.259 689.955L314.468 689.489C318.304 684.572 323.94 679.803 327.596 674.524L328.964 673.639Z"/>
<path fill="#694A27" d="M373.523 647.871C373.936 650.194 371.75 658.811 371.243 661.976L370.06 661.934C370.709 657.095 372.383 652.771 373.129 647.983L373.523 647.871Z"/>
<path fill="#694A27" d="M665.025 787.038C662.921 790.383 660.196 794.264 657.544 797.183C659.445 793.976 661.937 789.516 664.262 786.746L665.025 787.038Z"/>
<path fill="#694A27" d="M626.449 478.623L625.097 485.037L624.179 484.604L625.384 479.02L626.449 478.623Z"/>
<path fill="#694A27" d="M545.955 185.441C550.22 185.478 562.252 185.268 565.687 185.944C562.676 186.011 555.76 185.631 553.577 186.854C550.476 186.641 548.915 186.19 545.955 185.441Z"/>
<path fill="#694A27" d="M390.426 729.411C392.418 739.194 396.932 751.307 400.531 760.751L399.813 761.721C395.992 752.531 392.193 739.901 389.821 730.273L390.426 729.411Z"/>
<path fill="#694A27" d="M750.379 817.928L751.368 818.344C750.631 824.82 749.844 831.498 749.911 838.014C750.023 839.2 749.923 840.069 749.861 841.254L749.479 841.032C748.988 837.193 748.512 831.556 749.441 827.809C749.51 825.191 749.781 820.382 750.379 817.928Z"/>
<path fill="#694A27" d="M749.911 838.014C750.023 839.2 749.923 840.069 749.861 841.254L749.479 841.032C748.988 837.193 748.512 831.556 749.441 827.809C749.494 831.236 749.461 834.617 749.911 838.014Z"/>
<path fill="#694A27" d="M279.39 853.586L280.508 852.432C279.933 859.84 279.381 869.936 279.447 877.306L278.913 877.446C278.377 873.976 278.797 856.888 279.39 853.586Z"/>
<path fill="#694A27" d="M347.078 919.561L348.152 920.492C348.84 922.457 352.412 944.996 352.483 947.032C351.124 943.676 347.307 923.353 347.078 919.561Z"/>
<path fill="#694A27" d="M509.537 933.033L510.648 932.998L502.759 952.553L502.057 952.674L501.998 953.479L502.489 953.382L502.137 952.82C503.693 946.78 507.127 938.935 509.537 933.033Z"/>
<path fill="#694A27" d="M389.821 730.273C387.855 722.054 387.325 715.382 385.779 707.648L385.971 707.735C387.682 712.365 389.462 724.079 390.426 729.411L389.821 730.273Z"/>
<path fill="#694A27" d="M792.689 627.394L793.382 627.688L790.725 628.537C786.198 628.775 779.894 630.599 775.396 631.831L774.614 631.042C779.67 629.248 787.316 627.732 792.689 627.394Z"/>
<path fill="#694A27" d="M587.268 913.894L588.381 913.161C587.407 919.23 586.312 926.481 585.041 932.441L584.633 932.324C584.745 928.437 586.384 917.727 587.268 913.894Z"/>
<path fill="#694A27" d="M625.119 688.554L625.501 689.387C620.248 694.196 615.977 699.862 611.153 705.11L610.894 704.332C613.308 700.713 621.781 692.011 625.119 688.554Z"/>
<path fill="#694A27" d="M389.428 778.366L389.999 778.425C391.785 785.244 394.245 792.568 395.865 799.068L395.227 800.032C393.259 792.647 391.272 785.896 389.428 778.366Z"/>
<path fill="#694A27" d="M345.48 905.058L346.675 906.184C347.151 910.912 347.577 915.788 348.152 920.492L347.078 919.561C346.844 915.499 345.92 909.349 345.48 905.058Z"/>
<path fill="#694A27" d="M364.985 661.07C365.672 659.017 367.847 652.077 369.069 650.697C368.441 654.659 367.376 657.227 365.995 661.012L364.985 661.07Z"/>
<path fill="#694A27" d="M796.152 689.659C798.291 688.002 803.792 684.597 806.499 684.542C806.483 684.558 798.022 689.456 796.498 690.494L796.152 689.659Z"/>
<path fill="#694A27" d="M705.779 616.675C708.99 614.662 711.636 613.448 715.074 611.82C712.473 614.065 709.223 615.89 706.261 617.692L705.779 616.675Z"/>
<path fill="#694A27" d="M509.407 138.847C511.906 138.223 514.756 137.851 517.322 137.444L518.002 138.389L517.881 137.397L518.447 138.199L518.66 137.993C515.52 138.958 512.287 139.462 509.054 140.014L509.407 138.847Z"/>
<path fill="#694A27" d="M596.13 236.478C598.76 237.742 600.304 238.502 602.811 240.108L601.983 240.592L595.304 237.147L596.13 236.478Z"/>
<path fill="#694A27" d="M792.689 627.394C794.907 626.496 799.189 627.474 801.661 627.901C797.851 628.03 794.513 628.171 790.725 628.537L793.382 627.688L792.689 627.394Z"/>
<path fill="#694A27" d="M521.879 167.314C523.41 167.08 524.806 166.816 526.358 166.791L526.74 167.517C525.608 167.98 522.382 168.34 520.997 168.546L521.879 167.314Z"/>
<path fill="#694A27" d="M602.811 240.108C604.329 240.83 606.655 241.684 607.58 242.956C605.895 242.904 603.49 241.478 601.983 240.592L602.811 240.108Z"/>
<path fill="#694A27" d="M531.487 158.017C529.209 158.12 528.027 158.221 525.79 157.953C527.327 157.264 530.54 157.136 532.353 156.968L531.487 158.017Z"/>
<path fill="#694A27" d="M470.817 182.162C472.622 182.401 473.897 182.232 475.081 183.19C473.364 183.692 472.769 183.452 471.024 183.153L470.817 182.162Z"/>
</svg>