<?xml version="1.0" encoding="utf-8" ?><svg xmlns="http://www.w3.org/2000/svg" viewBox="0 0 1024 1024">
<!-- BACKGROUND: Clouds (#D18C82), Ground structures (#965846) -->

<path fill="#D18C82" d="M260.054 460.112C269.289 475.052 277.845 490.485 286.639 505.683L332.614 585.001C340.355 598.367 348.17 611.69 356.059 624.969C359.69 631.108 366.946 642.734 369.623 648.838C360.62 651.447 336.551 667.484 328.964 673.639L327.596 674.524C318.329 678.092 307.45 686.568 300.565 693.64C299.102 691.518 298.037 688.96 296.719 686.734C288.801 673.361 281.853 657.991 273.8 644.892C278.823 597.798 256.397 557.485 214.917 535.178C219.21 528.639 224.046 519.981 228.221 513.132C239.006 495.564 249.618 477.89 260.054 460.112Z"/>
<path fill="#965846" d="M214.917 535.178C256.397 557.485 278.823 597.798 273.8 644.892C268.642 675.968 256.339 700.436 230.137 719.163C207.364 735.507 178.991 742.042 151.364 737.306C132.715 734.154 120.864 728.574 105.394 718.468C109.892 711.583 115.309 701.647 119.576 694.362L144.733 651.716L214.917 535.178Z"/>
<path fill="#965846" d="M102.067 715.139C65.699 687.701 51.6777 637.349 67.9124 594.894C78.136 568.047 98.6083 546.362 124.824 534.612C153.915 521.68 181.34 522.257 210.543 533.491L134.489 659.926C127.547 671.426 120.714 682.991 113.991 694.62C110.607 700.494 105.575 709.942 102.067 715.139Z"/>
<path fill="#D18C82" d="M739.049 171.458C742.708 169.341 748.05 165.865 751.702 164.11C763.589 158.395 777.623 156.89 790.39 160.311C798.801 162.564 805.509 167.184 812.616 171.985C829.436 172.027 850.79 172.571 867.458 171.491C883.456 161.246 895.088 156.036 914.852 159.894C927.995 162.46 932.424 167.016 942.883 172.198C960.233 172.999 978.07 172.143 995.341 172.61L956.683 248.898C943.85 273.894 929.104 301.403 917.449 326.944C955.407 333.347 985.136 363.105 991.5 401.07C997.864 439.034 979.465 476.861 945.67 495.291C911.874 513.722 870.111 508.706 841.641 482.796C832.239 499.886 823.253 517.2 814.69 534.725L733.822 398.689C719.563 374.564 704.922 350.667 689.902 327.008C688.996 323.209 687.803 318.169 685.907 314.804C686 305.372 692.459 304.476 696.952 297.668C704.718 289.225 699.043 272.975 698.27 263.56C697.892 258.882 699.683 247.592 697.656 243.596C689.203 226.932 680.23 228.508 684.132 206.659C686.379 194.074 670.909 181.237 662.078 172.371C665.478 172.46 668.604 172.271 671.972 172.208C694.349 171.787 716.675 172.418 739.049 171.458Z"/>
<path fill="#D18C82" d="M812.616 171.985C829.436 172.027 850.79 172.571 867.458 171.491C845.342 188.149 835.302 189.407 812.616 171.985Z"/>
<path fill="#D18C82" d="M690.131 337.481C702.571 356.15 714.235 376.129 725.823 395.299L766.657 463.062C781.808 488.75 796.901 515.132 812.632 540.489C811.157 542.206 804.843 554.437 803.308 557.283C797.472 568.167 791.481 578.966 785.337 589.678C775.617 575.141 765.365 555.739 756.38 540.463L699.226 443.645C693.496 433.828 687.685 424.059 681.793 414.339C678.764 409.263 674.908 402.347 671.645 397.607C671.926 377.127 686.741 359.603 690.131 337.481Z"/>
<path fill="#965846" d="M676.026 908.472C678.335 906.731 690.115 902.33 693.699 900.624C705.316 895.05 716.224 888.102 726.189 879.932C766.841 846.614 774.936 799.847 806.836 760.021C820.956 742.392 837.196 731.468 853.704 716.686C860.956 710.193 868.095 701.545 874.23 693.913C879.594 705.207 891.353 724.601 897.925 735.722L934.46 797.895C945.042 816.453 955.886 834.861 966.986 853.114C969.072 856.618 978.668 873.317 980.759 875.891C981.303 876.776 982.997 879.669 983.578 880.275L999.974 907.973L676.026 908.472Z"/>
<path fill="#D18C82" d="M37.3345 223.294C63.6475 219.94 91.464 213.242 117.372 209.953C119.444 213.776 122.334 218.142 124.574 222.022L139.738 248.354L179.541 316.953C180.851 319.245 182.155 321.666 183.359 324.017C192.567 341.999 203.473 359.035 213.376 376.568C227.869 402.805 242.716 428.845 257.914 454.68C247.675 471.965 237.339 489.193 226.908 506.363C221.716 515.005 215.994 525.171 210.543 533.491L87.5057 314.008L52.3305 251.072C47.7961 242.881 40.4255 231.499 37.3345 223.294Z"/>
</svg>