<?xml version="1.0" encoding="utf-8" ?><svg xmlns="http://www.w3.org/2000/svg" viewBox="0 0 1024 1024">
<!-- FOREGROUND: White highlights (#FEFEFE) -->

<path fill="#FEFEFE" d="M0 0L1024 0L1024 1024L0 1024L0 0Z"/>
<path fill="#FEFEFE" d="M332.402 331.647C333.083 333.295 334.182 336.388 334.382 338.137C346.932 355.965 353.981 365.039 376.674 364.895C374.176 379.866 384.032 395.066 383.595 409.768C383.249 421.435 374.617 434.454 374.095 446.847C373.722 455.693 375.32 463.255 376.479 471.898C377.217 479.445 374.898 490.087 377.686 497.584C379.314 501.961 387.953 511.955 388.613 516.444C390.253 527.588 387.493 529.125 392.415 540.477C396.343 549.533 404.644 558.81 408.296 566.592C412.863 579.283 421.104 582.967 433.251 586.26C433.334 590.125 433.523 609.354 434.39 611.567C434.516 615.17 434.555 618.168 434.455 621.768C421.565 625.878 407.893 633.083 395.202 638.386C391.669 639.862 375.82 646.304 373.523 647.871L373.129 647.983C371.339 648.136 371.392 648.098 369.623 648.838C360.62 651.447 336.551 667.484 328.964 673.639L327.596 674.524C318.329 678.092 307.45 686.568 300.565 693.64C281.107 710.666 269.511 727.361 258.57 750.754C256.77 754.601 249.2 761.026 246.767 764.963C221.583 799.276 215.28 838.51 239.673 874.943C241.606 876.044 241.696 877.219 242.118 879.332L70.5096 879.538L25.4857 879.531C20.1618 879.527 13.8961 879.587 8.50989 879.368C7.14685 879.313 6.89318 878.543 6.3242 877.633C7.15209 874.799 12.152 866.489 13.8397 863.502C21.7259 849.632 29.8246 835.885 38.1331 822.264L83.3101 746.357C89.5005 735.876 96.1502 725.778 102.067 715.139C65.699 687.701 51.6777 637.349 67.9124 594.894C78.136 568.047 98.6083 546.362 124.824 534.612C153.915 521.68 181.34 522.257 210.543 533.491C215.994 525.171 221.716 515.005 226.908 506.363C237.339 489.193 247.675 471.965 257.914 454.68C272.149 431.777 285.936 408.134 300.144 385.087C307.109 373.938 313.962 362.718 320.701 351.431C324.477 345.21 329.125 338.011 332.402 331.647Z"/>
<path fill="#FEFEFE" d="M334.382 338.137C346.932 355.965 353.981 365.039 376.674 364.895C374.176 379.866 384.032 395.066 383.595 409.768C383.249 421.435 374.617 434.454 374.095 446.847C373.722 455.693 375.32 463.255 376.479 471.898C377.217 479.445 374.898 490.087 377.686 497.584C379.314 501.961 387.953 511.955 388.613 516.444C390.253 527.588 387.493 529.125 392.415 540.477C396.343 549.533 404.644 558.81 408.296 566.592C412.863 579.283 421.104 582.967 433.251 586.26C433.334 590.125 433.523 609.354 434.39 611.567C434.516 615.17 434.555 618.168 434.455 621.768C421.565 625.878 407.893 633.083 395.202 638.386C391.669 639.862 375.82 646.304 373.523 647.871L373.129 647.983C371.339 648.136 371.392 648.098 369.623 648.838C360.62 651.447 336.551 667.484 328.964 673.639L327.596 674.524C318.329 678.092 307.45 686.568 300.565 693.64C299.102 691.518 298.037 688.96 296.719 686.734C288.801 673.361 281.853 657.991 273.8 644.892C278.823 597.798 256.397 557.485 214.917 535.178C219.21 528.639 224.046 519.981 228.221 513.132C239.006 495.564 249.618 477.89 260.054 460.112C268.573 447.061 275.967 433.438 284.077 420.178L334.382 338.137Z"/>
<path fill="#FEFEFE" d="M689.902 327.008C704.922 350.667 719.563 374.564 733.822 398.689L814.69 534.725C820.049 545.479 828.796 559.155 835.034 569.75L873.004 633.781L954.178 769.615C961.832 782.167 1017.98 872.642 1018.89 878.818C1014.72 880.864 990.639 879.494 983.578 880.275C982.997 879.669 981.303 876.776 980.759 875.891C978.668 873.317 969.072 856.618 966.986 853.114C955.886 834.861 945.042 816.453 934.46 797.895L897.925 735.722C891.353 724.601 879.594 705.207 874.23 693.913C874.887 691.935 879.623 686.589 881.252 684.637C879.89 682.774 878.728 681.51 877.197 679.81C875.156 676.987 872.656 674.101 870.411 671.402C866.645 661.753 838.809 644.081 829.178 639.546C824.674 637.425 819.196 635.565 814.724 633.011C815.328 631.731 816.591 630.344 817.51 629.212C817.742 628.09 817.88 627.04 817.398 625.96C813.851 618.019 799.425 611.058 792.269 607.94C775.205 600.503 755.265 598.283 737.202 602.783C731.261 604.264 725.317 606.748 719.634 609C709.177 603.039 691.903 593.853 682.842 587.076C651.631 563.728 634.021 505.524 629.369 467.971C632.523 467.163 638.875 465.867 641.127 463.879C660.077 447.144 677.708 434.356 670.982 406.752L670.882 404.113C671.189 401.95 671.443 399.781 671.645 397.607C671.926 377.127 686.741 359.603 690.131 337.481C690.4 334.557 690.051 330.066 689.902 327.008Z"/>
<path fill="#FEFEFE" d="M466.071 115.036C480.406 90.6684 494.333 65.8001 508.288 41.1982C509.382 39.27 510.709 35.8493 512.688 35.0286C514.419 36.3471 553.997 106.52 556.392 111.878C554.115 112.631 553.913 112.576 551.462 112.551C548.105 112.433 540.993 110.392 537.626 109.378C525.953 105.862 514.576 104.511 502.395 105.533C492.503 106.058 479.175 113.795 472.266 114.339C470.157 115.485 468.425 115.26 466.071 115.036Z"/>
<path fill="#FEFEFE" d="M372.632 266.196C374.014 268.539 374.901 269.674 374.514 272.45C376.498 276.935 379.144 287.905 379.64 293.071C373.764 293.227 368.916 293.277 363.035 293.058C362.12 293.151 358.276 293.005 357.141 292.989C360.992 285.272 368.128 274.283 372.632 266.196Z"/>
</svg>