<?xml version="1.0" encoding="utf-8" ?><svg xmlns="http://www.w3.org/2000/svg" viewBox="0 0 1024 1024">
<!-- ACCENT: Neon energy paths (#CCFF00) -->

<path fill="#CCFF00" d="M588.217 619.437C595.45 606.073 606.634 589.583 615.005 576.664L651.905 519.109L693.34 454.664C699.745 444.805 705.889 434.759 712.6 425.105C714.857 421.858 718.415 420.249 722.068 422.369C724.37 423.704 726.035 426.012 727.458 428.219C733.56 438.484 739.828 448.636 746.127 458.784L808.776 560.197L918.876 737.699L947.079 783.105C949.979 787.855 953.052 792.566 955.871 797.307C957.317 799.74 958.704 802.983 956.568 805.27C955.066 806.877 954.048 807.593 951.723 807.655C945.897 807.872 939.911 807.761 934.079 807.732L902.06 807.632L782.845 807.501C783.997 802.293 787.293 794.554 788.96 789.173C801.112 749.966 796.879 712.347 765.149 683.388C732.765 653.832 691.085 651.51 650.344 642.501C628.17 637.599 608.602 629.201 588.217 619.437Z"/>
<path fill="#CCFF00" d="M290.826 810.376L306.197 810.517C306.43 832.329 306.538 854.142 306.519 875.955L139.829 875.931L139.953 810.465L156.089 810.457L290.826 810.376Z"/>
</svg>